SourceSansPro_1.ufo
<glyph name="numbersign" format="1">
  <advance width="540"/>
  <unicode hex="0023"/>
  <outline>
    <contour>
      <point x="84" y="0" type="line"/>
      <point x="182" y="0" type="line"/>
      <point x="204" y="180" type="line"/>
      <point x="296" y="180" type="line"/>
      <point x="274" y="0" type="line"/>
      <point x="372" y="0" type="line"/>
      <point x="394" y="180" type="line"/>
      <point x="490" y="180" type="line"/>
      <point x="490" y="288" type="line"/>
      <point x="406" y="288" type="line"/>
      <point x="418" y="384" type="line"/>
      <point x="510" y="384" type="line"/>
      <point x="510" y="492" type="line"/>
      <point x="432" y="492" type="line"/>
      <point x="450" y="650" type="line"/>
      <point x="354" y="650" type="line"/>
      <point x="334" y="492" type="line"/>
      <point x="242" y="492" type="line"/>
      <point x="260" y="650" type="line"/>
      <point x="164" y="650" type="line"/>
      <point x="144" y="492" type="line"/>
      <point x="54" y="492" type="line"/>
      <point x="54" y="384" type="line"/>
      <point x="130" y="384" type="line"/>
      <point x="118" y="288" type="line"/>
      <point x="34" y="288" type="line"/>
      <point x="34" y="180" type="line"/>
      <point x="106" y="180" type="line"/>
    </contour>
    <contour>
      <point x="216" y="288" type="line"/>
      <point x="228" y="384" type="line"/>
      <point x="320" y="384" type="line"/>
      <point x="308" y="288" type="line"/>
    </contour>
  </outline>
</glyph>
<glyph name="plus" format="1">
  <advance width="540"/>
  <unicode hex="002B"/>
  <outline>
    <contour>
      <point x="208" y="90" type="line"/>
      <point x="332" y="90" type="line"/>
      <point x="332" y="270" type="line"/>
      <point x="506" y="270" type="line"/>
      <point x="506" y="390" type="line"/>
      <point x="332" y="390" type="line"/>
      <point x="332" y="570" type="line"/>
      <point x="208" y="570" type="line"/>
      <point x="208" y="390" type="line"/>
      <point x="34" y="390" type="line"/>
      <point x="34" y="270" type="line"/>
      <point x="208" y="270" type="line"/>
    </contour>
  </outline>
</glyph>
<glyph name="comma" format="1">
  <advance width="320"/>
  <unicode hex="002C"/>
  <outline>
    <contour>
      <point x="80" y="-204" type="line"/>
      <point x="210" y="-168"/>
      <point x="278" y="-78"/>
      <point x="278" y="40" type="curve" smooth="yes"/>
      <point x="278" y="138"/>
      <point x="238" y="196"/>
      <point x="164" y="196" type="curve" smooth="yes"/>
      <point x="106" y="196"/>
      <point x="60" y="158"/>
      <point x="60" y="102" type="curve" smooth="yes"/>
      <point x="60" y="42"/>
      <point x="108" y="8"/>
      <point x="160" y="8" type="curve" smooth="yes"/>
      <point x="182" y="8"/>
      <point x="202" y="15"/>
      <point x="218" y="27" type="curve"/>
      <point x="167" y="118" type="line"/>
      <point x="167" y="10" type="line"/>
      <point x="168" y="-40"/>
      <point x="127" y="-88"/>
      <point x="46" y="-114" type="curve"/>
    </contour>
  </outline>
</glyph>
<glyph name="zero" format="1">
  <advance width="540"/>
  <unicode hex="0030"/>
  <outline>
    <contour>
      <point x="270" y="-12" type="curve" smooth="yes"/>
      <point x="410" y="-12"/>
      <point x="506" y="103"/>
      <point x="506" y="320" type="curve" smooth="yes"/>
      <point x="506" y="536"/>
      <point x="410" y="646"/>
      <point x="270" y="646" type="curve" smooth="yes"/>
      <point x="130" y="646"/>
      <point x="34" y="537"/>
      <point x="34" y="320" type="curve" smooth="yes"/>
      <point x="34" y="103"/>
      <point x="130" y="-12"/>
    </contour>
    <contour>
      <point x="270" y="120" type="curve" smooth="yes"/>
      <point x="230" y="120"/>
      <point x="196" y="152"/>
      <point x="196" y="320" type="curve" smooth="yes"/>
      <point x="196" y="488"/>
      <point x="230" y="514"/>
      <point x="270" y="514" type="curve" smooth="yes"/>
      <point x="310" y="514"/>
      <point x="344" y="488"/>
      <point x="344" y="320" type="curve" smooth="yes"/>
      <point x="344" y="152"/>
      <point x="310" y="120"/>
    </contour>
  </outline>
</glyph>
<glyph name="three" format="1">
  <advance width="540"/>
  <unicode hex="0033"/>
  <outline>
    <contour>
      <point x="246" y="-12" type="curve" smooth="yes"/>
      <point x="378" y="-12"/>
      <point x="492" y="54"/>
      <point x="492" y="174" type="curve" smooth="yes"/>
      <point x="492" y="254"/>
      <point x="442" y="304"/>
      <point x="370" y="326" type="curve"/>
      <point x="370" y="330" type="line"/>
      <point x="438" y="360"/>
      <point x="472" y="406"/>
      <point x="472" y="467" type="curve" smooth="yes"/>
      <point x="472" y="582"/>
      <point x="382" y="646"/>
      <point x="242" y="646" type="curve" smooth="yes"/>
      <point x="164" y="646"/>
      <point x="98" y="616"/>
      <point x="36" y="564" type="curve"/>
      <point x="122" y="460" type="line"/>
      <point x="162" y="494"/>
      <point x="192" y="512"/>
      <point x="234" y="512" type="curve" smooth="yes"/>
      <point x="277" y="512"/>
      <point x="300" y="492"/>
      <point x="300" y="454" type="curve" smooth="yes"/>
      <point x="300" y="410"/>
      <point x="268" y="382"/>
      <point x="162" y="382" type="curve"/>
      <point x="162" y="262" type="line"/>
      <point x="295" y="262"/>
      <point x="320" y="234"/>
      <point x="320" y="186" type="curve" smooth="yes"/>
      <point x="320" y="146"/>
      <point x="284" y="126"/>
      <point x="228" y="126" type="curve" smooth="yes"/>
      <point x="183" y="126"/>
      <point x="137" y="150"/>
      <point x="98" y="186" type="curve"/>
      <point x="20" y="78" type="line"/>
      <point x="68" y="22"/>
      <point x="143" y="-12"/>
    </contour>
  </outline>
</glyph>
<glyph name="less" format="1">
  <advance width="540"/>
  <unicode hex="003C"/>
  <outline>
    <contour>
      <point x="506" y="94" type="line"/>
      <point x="506" y="234" type="line"/>
      <point x="344" y="284" type="line"/>
      <point x="208" y="330" type="line"/>
      <point x="208" y="334" type="line"/>
      <point x="344" y="380" type="line"/>
      <point x="506" y="430" type="line"/>
      <point x="506" y="570" type="line"/>
      <point x="34" y="390" type="line"/>
      <point x="34" y="274" type="line"/>
    </contour>
  </outline>
</glyph>
<glyph name="greater" format="1">
  <advance width="540"/>
  <unicode hex="003E"/>
  <outline>
    <contour>
      <point x="34" y="94" type="line"/>
      <point x="506" y="274" type="line"/>
      <point x="506" y="390" type="line"/>
      <point x="34" y="570" type="line"/>
      <point x="34" y="430" type="line"/>
      <point x="196" y="380" type="line"/>
      <point x="332" y="334" type="line"/>
      <point x="332" y="330" type="line"/>
      <point x="196" y="284" type="line"/>
      <point x="34" y="234" type="line"/>
    </contour>
  </outline>
</glyph>
<glyph name="question" format="1">
  <advance width="478"/>
  <unicode hex="003F"/>
  <outline>
    <contour>
      <point x="152" y="244" type="curve"/>
      <point x="302" y="244" type="line"/>
      <point x="292" y="354"/>
      <point x="438" y="386"/>
      <point x="438" y="506" type="curve" smooth="yes"/>
      <point x="438" y="632"/>
      <point x="350" y="682"/>
      <point x="240" y="682" type="curve" smooth="yes"/>
      <point x="160" y="682"/>
      <point x="91" y="644"/>
      <point x="42" y="588" type="curve"/>
      <point x="136" y="502" type="line"/>
      <point x="162" y="526"/>
      <point x="184" y="544"/>
      <point x="218" y="544" type="curve" smooth="yes"/>
      <point x="248" y="544"/>
      <point x="274" y="530"/>
      <point x="274" y="494" type="curve" smooth="yes"/>
      <point x="274" y="430"/>
      <point x="132" y="374"/>
    </contour>
    <contour>
      <point x="226" y="-12" type="curve" smooth="yes"/>
      <point x="284" y="-12"/>
      <point x="326" y="34"/>
      <point x="326" y="92" type="curve" smooth="yes"/>
      <point x="326" y="150"/>
      <point x="284" y="196"/>
      <point x="226" y="196" type="curve" smooth="yes"/>
      <point x="168" y="196"/>
      <point x="126" y="150"/>
      <point x="126" y="92" type="curve" smooth="yes"/>
      <point x="126" y="34"/>
      <point x="168" y="-12"/>
    </contour>
  </outline>
</glyph>
<glyph name="at" format="1">
  <advance width="924"/>
  <unicode hex="0040"/>
  <outline>
    <contour>
      <point x="438" y="-178" type="curve" smooth="yes"/>
      <point x="510" y="-178"/>
      <point x="574" y="-164"/>
      <point x="636" y="-132" type="curve"/>
      <point x="600" y="-40" type="line"/>
      <point x="560" y="-60"/>
      <point x="500" y="-76"/>
      <point x="452" y="-76" type="curve" smooth="yes"/>
      <point x="302" y="-76"/>
      <point x="162" y="12"/>
      <point x="162" y="210" type="curve" smooth="yes"/>
      <point x="162" y="432"/>
      <point x="330" y="576"/>
      <point x="498" y="576" type="curve" smooth="yes"/>
      <point x="700" y="576"/>
      <point x="770" y="444"/>
      <point x="770" y="308" type="curve" smooth="yes"/>
      <point x="770" y="206"/>
      <point x="716" y="138"/>
      <point x="656" y="138" type="curve" smooth="yes"/>
      <point x="616" y="138"/>
      <point x="602" y="162"/>
      <point x="614" y="212" type="curve" smooth="yes"/>
      <point x="662" y="440" type="line"/>
      <point x="558" y="440" type="line"/>
      <point x="542" y="398" type="line"/>
      <point x="540" y="398" type="line"/>
      <point x="524" y="434"/>
      <point x="498" y="448"/>
      <point x="466" y="448" type="curve" smooth="yes"/>
      <point x="352" y="448"/>
      <point x="260" y="326"/>
      <point x="260" y="198" type="curve" smooth="yes"/>
      <point x="260" y="106"/>
      <point x="314" y="44"/>
      <point x="396" y="44" type="curve" smooth="yes"/>
      <point x="436" y="44"/>
      <point x="490" y="70"/>
      <point x="516" y="110" type="curve"/>
      <point x="518" y="110" type="line"/>
      <point x="530" y="62"/>
      <point x="579" y="34"/>
      <point x="638" y="34" type="curve" smooth="yes"/>
      <point x="748" y="34"/>
      <point x="876" y="126"/>
      <point x="876" y="312" type="curve" smooth="yes"/>
      <point x="876" y="526"/>
      <point x="734" y="678"/>
      <point x="512" y="678" type="curve" smooth="yes"/>
      <point x="258" y="678"/>
      <point x="48" y="490"/>
      <point x="48" y="206" type="curve" smooth="yes"/>
      <point x="48" y="-58"/>
      <point x="236" y="-178"/>
    </contour>
    <contour>
      <point x="434" y="150" type="curve" smooth="yes"/>
      <point x="404" y="150"/>
      <point x="388" y="171"/>
      <point x="388" y="208" type="curve" smooth="yes"/>
      <point x="388" y="262"/>
      <point x="420" y="340"/>
      <point x="472" y="340" type="curve" smooth="yes"/>
      <point x="490" y="340"/>
      <point x="505" y="330"/>
      <point x="512" y="316" type="curve"/>
      <point x="490" y="190" type="line"/>
      <point x="468" y="160"/>
      <point x="452" y="150"/>
    </contour>
  </outline>
</glyph>
<glyph name="J" format="1">
  <advance width="520"/>
  <unicode hex="004A"/>
  <outline>
    <contour>
      <point x="232" y="-12" type="curve" smooth="yes"/>
      <point x="382" y="-12"/>
      <point x="452" y="96"/>
      <point x="452" y="226" type="curve" smooth="yes"/>
      <point x="452" y="650" type="line"/>
      <point x="280" y="650" type="line"/>
      <point x="280" y="240" type="line" smooth="yes"/>
      <point x="280" y="158"/>
      <point x="254" y="136"/>
      <point x="208" y="136" type="curve" smooth="yes"/>
      <point x="180" y="136"/>
      <point x="148" y="156"/>
      <point x="126" y="198" type="curve"/>
      <point x="10" y="111" type="line"/>
      <point x="58" y="28"/>
      <point x="126" y="-12"/>
    </contour>
    <contour>
      <point x="364" y="672" type="move" name="aboveUC"/>
    </contour>
    <contour>
      <point x="276" y="-22" type="move" name="belowLC"/>
    </contour>
  </outline>
</glyph>
<glyph name="R" format="1">
  <advance width="630"/>
  <unicode hex="0052"/>
  <outline>
    <contour>
      <point x="72" y="0" type="line"/>
      <point x="244" y="0" type="line"/>
      <point x="244" y="218" type="line"/>
      <point x="318" y="218" type="line" smooth="yes"/>
      <point x="458" y="218"/>
      <point x="578" y="283"/>
      <point x="578" y="440" type="curve" smooth="yes"/>
      <point x="578" y="602"/>
      <point x="458" y="650"/>
      <point x="318" y="650" type="curve" smooth="yes"/>
      <point x="72" y="650" type="line"/>
    </contour>
    <contour>
      <point x="244" y="354" type="line"/>
      <point x="244" y="514" type="line"/>
      <point x="306" y="514" type="line" smooth="yes"/>
      <point x="374" y="514"/>
      <point x="410" y="496"/>
      <point x="410" y="440" type="curve" smooth="yes"/>
      <point x="410" y="384"/>
      <point x="374" y="354"/>
      <point x="306" y="354" type="curve" smooth="yes"/>
    </contour>
    <contour>
      <point x="422" y="0" type="line"/>
      <point x="614" y="0" type="line"/>
      <point x="403" y="377" type="line"/>
      <point x="287" y="263" type="line"/>
    </contour>
    <contour>
      <point x="316" y="672" type="move" name="aboveUC"/>
    </contour>
    <contour>
      <point x="334" y="-22" type="move" name="belowLC"/>
    </contour>
  </outline>
</glyph>
<glyph name="S" format="1">
  <advance width="564"/>
  <unicode hex="0053"/>
  <outline>
    <contour>
      <point x="278" y="-12" type="curve" smooth="yes"/>
      <point x="440" y="-12"/>
      <point x="532" y="86"/>
      <point x="532" y="196" type="curve" smooth="yes"/>
      <point x="532" y="286"/>
      <point x="486" y="342"/>
      <point x="405" y="374" type="curve" smooth="yes"/>
      <point x="326" y="405" type="line" smooth="yes"/>
      <point x="267" y="428"/>
      <point x="230" y="439"/>
      <point x="230" y="470" type="curve" smooth="yes"/>
      <point x="230" y="499"/>
      <point x="256" y="514"/>
      <point x="298" y="514" type="curve" smooth="yes"/>
      <point x="346" y="514"/>
      <point x="384" y="498"/>
      <point x="428" y="467" type="curve"/>
      <point x="514" y="575" type="line"/>
      <point x="454" y="634"/>
      <point x="372" y="662"/>
      <point x="298" y="662" type="curve" smooth="yes"/>
      <point x="156" y="662"/>
      <point x="56" y="571"/>
      <point x="56" y="460" type="curve" smooth="yes"/>
      <point x="56" y="366"/>
      <point x="117" y="307"/>
      <point x="187" y="279" type="curve" smooth="yes"/>
      <point x="268" y="245" type="line" smooth="yes"/>
      <point x="323" y="223"/>
      <point x="356" y="213"/>
      <point x="356" y="182" type="curve" smooth="yes"/>
      <point x="356" y="153"/>
      <point x="334" y="136"/>
      <point x="282" y="136" type="curve" smooth="yes"/>
      <point x="234" y="136"/>
      <point x="176" y="162"/>
      <point x="130" y="199" type="curve"/>
      <point x="32" y="81" type="line"/>
      <point x="102" y="18"/>
      <point x="196" y="-12"/>
    </contour>
    <contour>
      <point x="296" y="672" type="move" name="aboveUC"/>
    </contour>
    <contour>
      <point x="282" y="-22" type="move" name="belowLC"/>
    </contour>
    <contour>
      <point x="282" y="0" type="move" name="baseLC"/>
    </contour>
  </outline>
</glyph>
<glyph name="U" format="1">
  <advance width="672"/>
  <unicode hex="0055"/>
  <outline>
    <contour>
      <point x="338" y="-12" type="curve" smooth="yes"/>
      <point x="520" y="-12"/>
      <point x="604" y="92"/>
      <point x="604" y="314" type="curve" smooth="yes"/>
      <point x="604" y="650" type="line"/>
      <point x="438" y="650" type="line"/>
      <point x="438" y="294" type="line" smooth="yes"/>
      <point x="438" y="178"/>
      <point x="406" y="136"/>
      <point x="338" y="136" type="curve" smooth="yes"/>
      <point x="270" y="136"/>
      <point x="240" y="178"/>
      <point x="240" y="294" type="curve" smooth="yes"/>
      <point x="240" y="650" type="line"/>
      <point x="68" y="650" type="line"/>
      <point x="68" y="314" type="line" smooth="yes"/>
      <point x="68" y="92"/>
      <point x="156" y="-12"/>
    </contour>
    <contour>
      <point x="336" y="672" type="move" name="aboveUC"/>
    </contour>
    <contour>
      <point x="336" y="-22" type="move" name="belowLC"/>
    </contour>
    <contour>
      <point x="336" y="0" type="move" name="ogonekUC"/>
    </contour>
    <contour>
      <point x="552" y="660" type="move" name="hornLC"/>
    </contour>
  </outline>
</glyph>
<glyph name="bracketright" format="1">
  <advance width="360"/>
  <unicode hex="005D"/>
  <outline>
    <contour>
      <point x="52" y="-152" type="line"/>
      <point x="276" y="-152" type="line"/>
      <point x="276" y="708" type="line"/>
      <point x="52" y="708" type="line"/>
      <point x="52" y="618" type="line"/>
      <point x="148" y="618" type="line"/>
      <point x="148" y="-62" type="line"/>
      <point x="52" y="-62" type="line"/>
    </contour>
  </outline>
</glyph>
<glyph name="b" format="1">
  <advance width="580"/>
  <unicode hex="0062"/>
  <outline>
    <contour>
      <point x="336" y="-12" type="curve" smooth="yes"/>
      <point x="442" y="-12"/>
      <point x="544" y="86"/>
      <point x="544" y="259" type="curve" smooth="yes"/>
      <point x="544" y="412"/>
      <point x="467" y="512"/>
      <point x="349" y="512" type="curve" smooth="yes"/>
      <point x="305" y="512"/>
      <point x="261" y="494"/>
      <point x="226" y="462" type="curve"/>
      <point x="230" y="534" type="line"/>
      <point x="230" y="696" type="line"/>
      <point x="58" y="696" type="line"/>
      <point x="58" y="0" type="line"/>
      <point x="192" y="0" type="line"/>
      <point x="206" y="54" type="line"/>
      <point x="210" y="54" type="line"/>
      <point x="248" y="10"/>
      <point x="292" y="-12"/>
    </contour>
    <contour>
      <point x="294" y="128" type="curve" smooth="yes"/>
      <point x="272" y="128"/>
      <point x="250" y="134"/>
      <point x="230" y="152" type="curve"/>
      <point x="230" y="336" type="line"/>
      <point x="252" y="362"/>
      <point x="272" y="372"/>
      <point x="298" y="372" type="curve" smooth="yes"/>
      <point x="344" y="372"/>
      <point x="368" y="338"/>
      <point x="368" y="256" type="curve" smooth="yes"/>
      <point x="368" y="160"/>
      <point x="334" y="128"/>
    </contour>
    <contour>
      <point x="146" y="730" type="move" name="aboveLC"/>
    </contour>
    <contour>
      <point x="297" y="-22" type="move" name="belowLC"/>
    </contour>
  </outline>
</glyph>
<glyph name="e" format="1">
  <advance width="526"/>
  <unicode hex="0065"/>
  <outline>
    <contour>
      <point x="290" y="-12" type="curve" smooth="yes"/>
      <point x="346" y="-12"/>
      <point x="418" y="8"/>
      <point x="472" y="46" type="curve"/>
      <point x="416" y="148" type="line"/>
      <point x="380" y="128"/>
      <point x="348" y="118"/>
      <point x="314" y="118" type="curve" smooth="yes"/>
      <point x="258" y="118"/>
      <point x="214" y="138"/>
      <point x="198" y="198" type="curve"/>
      <point x="483" y="198" type="line"/>
      <point x="486" y="210"/>
      <point x="490" y="240"/>
      <point x="490" y="270" type="curve" smooth="yes"/>
      <point x="490" y="404"/>
      <point x="420" y="512"/>
      <point x="272" y="512" type="curve" smooth="yes"/>
      <point x="150" y="512"/>
      <point x="32" y="412"/>
      <point x="32" y="250" type="curve" smooth="yes"/>
      <point x="32" y="84"/>
      <point x="144" y="-12"/>
    </contour>
    <contour>
      <point x="196" y="310" type="line"/>
      <point x="206" y="360"/>
      <point x="238" y="382"/>
      <point x="276" y="382" type="curve" smooth="yes"/>
      <point x="328" y="382"/>
      <point x="344" y="348"/>
      <point x="344" y="310" type="curve"/>
    </contour>
    <contour>
      <point x="272" y="522" type="move" name="aboveLC"/>
    </contour>
    <contour>
      <point x="272" y="-22" type="move" name="belowLC"/>
    </contour>
    <contour>
      <point x="400" y="0" type="move" name="ogonekLC"/>
    </contour>
  </outline>
</glyph>
<glyph name="j" format="1">
  <advance width="290"/>
  <unicode hex="006A"/>
  <outline>
    <contour>
      <point x="38" y="-188" type="curve" smooth="yes"/>
      <point x="188" y="-188"/>
      <point x="232" y="-86"/>
      <point x="232" y="26" type="curve" smooth="yes"/>
      <point x="232" y="500" type="line"/>
      <point x="60" y="500" type="line"/>
      <point x="60" y="20" type="line" smooth="yes"/>
      <point x="60" y="-34"/>
      <point x="46" y="-54"/>
      <point x="10" y="-54" type="curve" smooth="yes"/>
      <point x="-2" y="-54"/>
      <point x="-12" y="-52"/>
      <point x="-26" y="-48" type="curve"/>
      <point x="-56" y="-174" type="line"/>
      <point x="-34" y="-182"/>
      <point x="-8" y="-188"/>
    </contour>
    <contour>
      <point x="146" y="562" type="curve" smooth="yes"/>
      <point x="202" y="562"/>
      <point x="242" y="598"/>
      <point x="242" y="648" type="curve" smooth="yes"/>
      <point x="242" y="698"/>
      <point x="202" y="734"/>
      <point x="146" y="734" type="curve" smooth="yes"/>
      <point x="90" y="734"/>
      <point x="50" y="698"/>
      <point x="50" y="648" type="curve" smooth="yes"/>
      <point x="50" y="598"/>
      <point x="90" y="562"/>
    </contour>
    <contour>
      <point x="147" y="733" type="move" name="aboveLC"/>
    </contour>
    <contour>
      <point x="86" y="-237" type="move" name="belowLC"/>
    </contour>
  </outline>
</glyph>
<glyph name="l" format="1">
  <advance width="298"/>
  <unicode hex="006C"/>
  <outline>
    <contour>
      <point x="212" y="-12" type="curve" smooth="yes"/>
      <point x="250" y="-12"/>
      <point x="278" y="-6"/>
      <point x="296" y="2" type="curve"/>
      <point x="276" y="128" type="line"/>
      <point x="268" y="126"/>
      <point x="264" y="126"/>
      <point x="258" y="126" type="curve" smooth="yes"/>
      <point x="246" y="126"/>
      <point x="230" y="136"/>
      <point x="230" y="170" type="curve" smooth="yes"/>
      <point x="230" y="696" type="line"/>
      <point x="58" y="696" type="line"/>
      <point x="58" y="176" type="line" smooth="yes"/>
      <point x="58" y="64"/>
      <point x="96" y="-12"/>
    </contour>
    <contour>
      <point x="143" y="730" type="move" name="aboveLC"/>
    </contour>
    <contour>
      <point x="143" y="-22" type="move" name="belowLC"/>
    </contour>
  </outline>
</glyph>
<glyph name="o" format="1">
  <advance width="560"/>
  <unicode hex="006F"/>
  <outline>
    <contour>
      <point x="280" y="-12" type="curve" smooth="yes"/>
      <point x="408" y="-12"/>
      <point x="528" y="84"/>
      <point x="528" y="250" type="curve" smooth="yes"/>
      <point x="528" y="416"/>
      <point x="408" y="512"/>
      <point x="280" y="512" type="curve" smooth="yes"/>
      <point x="152" y="512"/>
      <point x="32" y="416"/>
      <point x="32" y="250" type="curve" smooth="yes"/>
      <point x="32" y="84"/>
      <point x="152" y="-12"/>
    </contour>
    <contour>
      <point x="280" y="126" type="curve" smooth="yes"/>
      <point x="228" y="126"/>
      <point x="208" y="174"/>
      <point x="208" y="250" type="curve" smooth="yes"/>
      <point x="208" y="326"/>
      <point x="228" y="374"/>
      <point x="280" y="374" type="curve" smooth="yes"/>
      <point x="332" y="374"/>
      <point x="352" y="326"/>
      <point x="352" y="250" type="curve" smooth="yes"/>
      <point x="352" y="174"/>
      <point x="332" y="126"/>
    </contour>
    <contour>
      <point x="280" y="522" type="move" name="aboveLC"/>
    </contour>
    <contour>
      <point x="280" y="-22" type="move" name="belowLC"/>
    </contour>
    <contour>
      <point x="374" y="500" type="move" name="hornLC"/>
    </contour>
    <contour>
      <point x="334" y="0" type="move" name="ogonekLC"/>
    </contour>
  </outline>
</glyph>
<glyph name="p" format="1">
  <advance width="580"/>
  <unicode hex="0070"/>
  <outline>
    <contour>
      <point x="58" y="-176" type="line"/>
      <point x="230" y="-176" type="line"/>
      <point x="230" y="-38" type="line"/>
      <point x="224" y="38" type="line"/>
      <point x="256" y="6"/>
      <point x="294" y="-12"/>
      <point x="336" y="-12" type="curve" smooth="yes"/>
      <point x="442" y="-12"/>
      <point x="544" y="86"/>
      <point x="544" y="258" type="curve" smooth="yes"/>
      <point x="544" y="412"/>
      <point x="468" y="512"/>
      <point x="350" y="512" type="curve" smooth="yes"/>
      <point x="300" y="512"/>
      <point x="251" y="488"/>
      <point x="214" y="454" type="curve"/>
      <point x="210" y="454" type="line"/>
      <point x="198" y="500" type="line"/>
      <point x="58" y="500" type="line"/>
    </contour>
    <contour>
      <point x="294" y="128" type="curve" smooth="yes"/>
      <point x="272" y="128"/>
      <point x="250" y="134"/>
      <point x="230" y="152" type="curve"/>
      <point x="230" y="336" type="line"/>
      <point x="252" y="362"/>
      <point x="272" y="372"/>
      <point x="298" y="372" type="curve" smooth="yes"/>
      <point x="344" y="372"/>
      <point x="368" y="338"/>
      <point x="368" y="256" type="curve" smooth="yes"/>
      <point x="368" y="160"/>
      <point x="334" y="128"/>
    </contour>
    <contour>
      <point x="314" y="522" type="move" name="aboveLC"/>
    </contour>
    <contour>
      <point x="135" y="-218" type="move" name="belowLC"/>
    </contour>
  </outline>
</glyph>
<glyph name="q" format="1">
  <advance width="580"/>
  <unicode hex="0071"/>
  <outline>
    <contour>
      <point x="350" y="-176" type="line"/>
      <point x="522" y="-176" type="line"/>
      <point x="522" y="500" type="line"/>
      <point x="388" y="500" type="line"/>
      <point x="374" y="450" type="line"/>
      <point x="370" y="450" type="line"/>
      <point x="332" y="494"/>
      <point x="293" y="512"/>
      <point x="240" y="512" type="curve" smooth="yes"/>
      <point x="138" y="512"/>
      <point x="36" y="414"/>
      <point x="36" y="250" type="curve" smooth="yes"/>
      <point x="36" y="88"/>
      <point x="116" y="-12"/>
      <point x="240" y="-12" type="curve" smooth="yes"/>
      <point x="280" y="-12"/>
      <point x="326" y="8"/>
      <point x="356" y="38" type="curve"/>
      <point x="350" y="-33" type="line"/>
    </contour>
    <contour>
      <point x="286" y="128" type="curve" smooth="yes"/>
      <point x="240" y="128"/>
      <point x="212" y="162"/>
      <point x="212" y="252" type="curve" smooth="yes"/>
      <point x="212" y="340"/>
      <point x="246" y="372"/>
      <point x="282" y="372" type="curve" smooth="yes"/>
      <point x="304" y="372"/>
      <point x="330" y="366"/>
      <point x="350" y="348" type="curve"/>
      <point x="350" y="164" type="line"/>
      <point x="332" y="136"/>
      <point x="312" y="128"/>
    </contour>
    <contour>
      <point x="298" y="522" type="move" name="aboveLC"/>
    </contour>
    <contour>
      <point x="432" y="-218" type="move" name="belowLC"/>
    </contour>
  </outline>
</glyph>
<glyph name="s" format="1">
  <advance width="452"/>
  <unicode hex="0073"/>
  <outline>
    <contour>
      <point x="212" y="-12" type="curve" smooth="yes"/>
      <point x="352" y="-12"/>
      <point x="426" y="60"/>
      <point x="426" y="154" type="curve" smooth="yes"/>
      <point x="426" y="244"/>
      <point x="358" y="282"/>
      <point x="298" y="304" type="curve" smooth="yes"/>
      <point x="248" y="322"/>
      <point x="204" y="332"/>
      <point x="204" y="358" type="curve" smooth="yes"/>
      <point x="204" y="378"/>
      <point x="219" y="386"/>
      <point x="248" y="386" type="curve" smooth="yes"/>
      <point x="279" y="386"/>
      <point x="314" y="370"/>
      <point x="350" y="344" type="curve"/>
      <point x="426" y="446" type="line"/>
      <point x="382" y="479"/>
      <point x="324" y="512"/>
      <point x="242" y="512" type="curve" smooth="yes"/>
      <point x="124" y="512"/>
      <point x="44" y="448"/>
      <point x="44" y="350" type="curve" smooth="yes"/>
      <point x="44" y="268"/>
      <point x="112" y="225"/>
      <point x="170" y="202" type="curve" smooth="yes"/>
      <point x="220" y="182"/>
      <point x="266" y="170"/>
      <point x="266" y="144" type="curve" smooth="yes"/>
      <point x="266" y="124"/>
      <point x="252" y="114"/>
      <point x="216" y="114" type="curve" smooth="yes"/>
      <point x="181" y="114"/>
      <point x="140" y="130"/>
      <point x="94" y="164" type="curve"/>
      <point x="18" y="58" type="line"/>
      <point x="70" y="16"/>
      <point x="148" y="-12"/>
    </contour>
    <contour>
      <point x="242" y="522" type="move" name="aboveLC"/>
    </contour>
    <contour>
      <point x="236" y="-22" type="move" name="belowLC"/>
    </contour>
    <contour>
      <point x="236" y="0" type="move" name="baseLC"/>
    </contour>
  </outline>
</glyph>
<glyph name="u" format="1">
  <advance width="578"/>
  <unicode hex="0075"/>
  <outline>
    <contour>
      <point x="210" y="-12" type="curve" smooth="yes"/>
      <point x="278" y="-12"/>
      <point x="324" y="18"/>
      <point x="364" y="66" type="curve"/>
      <point x="368" y="66" type="line"/>
      <point x="380" y="0" type="line"/>
      <point x="520" y="0" type="line"/>
      <point x="520" y="500" type="line"/>
      <point x="348" y="500" type="line"/>
      <point x="348" y="178" type="line"/>
      <point x="326" y="146"/>
      <point x="308" y="134"/>
      <point x="276" y="134" type="curve" smooth="yes"/>
      <point x="242" y="134"/>
      <point x="226" y="150"/>
      <point x="226" y="214" type="curve" smooth="yes"/>
      <point x="226" y="500" type="line"/>
      <point x="54" y="500" type="line"/>
      <point x="54" y="192" type="line" smooth="yes"/>
      <point x="54" y="68"/>
      <point x="100" y="-12"/>
    </contour>
    <contour>
      <point x="290" y="522" type="move" name="aboveLC"/>
    </contour>
    <contour>
      <point x="308" y="-22" type="move" name="belowLC"/>
    </contour>
    <contour>
      <point x="438" y="510" type="move" name="hornLC"/>
    </contour>
    <contour>
      <point x="466" y="0" type="move" name="ogonekLC"/>
    </contour>
  </outline>
</glyph>
<glyph name="y" format="1">
  <advance width="542"/>
  <unicode hex="0079"/>
  <outline>
    <contour>
      <point x="132" y="-188" type="curve" smooth="yes"/>
      <point x="256" y="-188"/>
      <point x="310" y="-127"/>
      <point x="362" y="8" type="curve"/>
      <point x="530" y="500" type="line"/>
      <point x="366" y="500" type="line"/>
      <point x="316" y="308" type="line" smooth="yes"/>
      <point x="304" y="260"/>
      <point x="294" y="214"/>
      <point x="284" y="166" type="curve"/>
      <point x="280" y="166" type="line"/>
      <point x="268" y="216"/>
      <point x="258" y="262"/>
      <point x="244" y="308" type="curve" smooth="yes"/>
      <point x="184" y="500" type="line"/>
      <point x="12" y="500" type="line"/>
      <point x="202" y="18" type="line"/>
      <point x="196" y="-4" type="line" smooth="yes"/>
      <point x="186" y="-34"/>
      <point x="164" y="-54"/>
      <point x="118" y="-54" type="curve" smooth="yes"/>
      <point x="108" y="-54"/>
      <point x="95" y="-50"/>
      <point x="86" y="-48" type="curve"/>
      <point x="56" y="-178" type="line"/>
      <point x="78" y="-184"/>
      <point x="98" y="-188"/>
    </contour>
    <contour>
      <point x="276" y="522" type="move" name="aboveLC"/>
    </contour>
    <contour>
      <point x="238" y="-241" type="move" name="belowLC"/>
    </contour>
  </outline>
</glyph>
<glyph name="braceleft" format="1">
  <advance width="360"/>
  <unicode hex="007B"/>
  <outline>
    <contour>
      <point x="238" y="-152" type="curve" smooth="yes"/>
      <point x="308" y="-152" type="line"/>
      <point x="308" y="-62" type="line"/>
      <point x="292" y="-62" type="line" smooth="yes"/>
      <point x="255" y="-62"/>
      <point x="244" y="-52"/>
      <point x="244" y="0" type="curve" smooth="yes"/>
      <point x="244" y="51"/>
      <point x="248" y="98"/>
      <point x="248" y="156" type="curve" smooth="yes"/>
      <point x="248" y="236"/>
      <point x="221" y="264"/>
      <point x="168" y="276" type="curve"/>
      <point x="168" y="280" type="line"/>
      <point x="221" y="292"/>
      <point x="248" y="320"/>
      <point x="248" y="400" type="curve" smooth="yes"/>
      <point x="248" y="458"/>
      <point x="244" y="505"/>
      <point x="244" y="556" type="curve" smooth="yes"/>
      <point x="244" y="608"/>
      <point x="255" y="618"/>
      <point x="292" y="618" type="curve" smooth="yes"/>
      <point x="308" y="618" type="line"/>
      <point x="308" y="708" type="line"/>
      <point x="238" y="708" type="line" smooth="yes"/>
      <point x="146" y="708"/>
      <point x="106" y="672"/>
      <point x="106" y="562" type="curve" smooth="yes"/>
      <point x="106" y="492"/>
      <point x="116" y="462"/>
      <point x="116" y="400" type="curve" smooth="yes"/>
      <point x="116" y="366"/>
      <point x="94" y="330"/>
      <point x="30" y="328" type="curve"/>
      <point x="30" y="228" type="line"/>
      <point x="94" y="226"/>
      <point x="116" y="190"/>
      <point x="116" y="156" type="curve" smooth="yes"/>
      <point x="116" y="94"/>
      <point x="106" y="64"/>
      <point x="106" y="-6" type="curve" smooth="yes"/>
      <point x="106" y="-116"/>
      <point x="146" y="-152"/>
    </contour>
  </outline>
</glyph>
<glyph name="bar" format="1">
  <advance width="278"/>
  <unicode hex="007C"/>
  <outline>
    <contour>
      <point x="84" y="-250" type="line"/>
      <point x="194" y="-250" type="line"/>
      <point x="194" y="750" type="line"/>
      <point x="84" y="750" type="line"/>
    </contour>
  </outline>
</glyph>
<glyph name="braceright" format="1">
  <advance width="360"/>
  <unicode hex="007D"/>
  <outline>
    <contour>
      <point x="52" y="-152" type="line"/>
      <point x="122" y="-152" type="line" smooth="yes"/>
      <point x="214" y="-152"/>
      <point x="254" y="-116"/>
      <point x="254" y="-6" type="curve" smooth="yes"/>
      <point x="254" y="64"/>
      <point x="244" y="94"/>
      <point x="244" y="156" type="curve" smooth="yes"/>
      <point x="244" y="190"/>
      <point x="266" y="226"/>
      <point x="330" y="228" type="curve"/>
      <point x="330" y="328" type="line"/>
      <point x="266" y="330"/>
      <point x="244" y="366"/>
      <point x="244" y="400" type="curve" smooth="yes"/>
      <point x="244" y="462"/>
      <point x="254" y="492"/>
      <point x="254" y="562" type="curve" smooth="yes"/>
      <point x="254" y="672"/>
      <point x="214" y="708"/>
      <point x="122" y="708" type="curve" smooth="yes"/>
      <point x="52" y="708" type="line"/>
      <point x="52" y="618" type="line"/>
      <point x="68" y="618" type="line" smooth="yes"/>
      <point x="105" y="618"/>
      <point x="116" y="608"/>
      <point x="116" y="556" type="curve" smooth="yes"/>
      <point x="116" y="505"/>
      <point x="112" y="458"/>
      <point x="112" y="400" type="curve" smooth="yes"/>
      <point x="112" y="320"/>
      <point x="139" y="292"/>
      <point x="192" y="280" type="curve"/>
      <point x="192" y="276" type="line"/>
      <point x="139" y="264"/>
      <point x="112" y="236"/>
      <point x="112" y="156" type="curve" smooth="yes"/>
      <point x="112" y="98"/>
      <point x="116" y="51"/>
      <point x="116" y="0" type="curve" smooth="yes"/>
      <point x="116" y="-52"/>
      <point x="105" y="-62"/>
      <point x="68" y="-62" type="curve" smooth="yes"/>
      <point x="52" y="-62" type="line"/>
    </contour>
  </outline>
</glyph>
<glyph name="exclamdown" format="1">
  <advance width="360"/>
  <unicode hex="00A1"/>
  <outline>
    <contour>
      <point x="94" y="-170" type="line"/>
      <point x="266" y="-170" type="line"/>
      <point x="260" y="-22" type="line"/>
      <point x="236" y="256" type="line"/>
      <point x="124" y="256" type="line"/>
      <point x="100" y="-22" type="line"/>
    </contour>
    <contour>
      <point x="180" y="304" type="curve" smooth="yes"/>
      <point x="238" y="304"/>
      <point x="280" y="350"/>
      <point x="280" y="408" type="curve" smooth="yes"/>
      <point x="280" y="466"/>
      <point x="238" y="512"/>
      <point x="180" y="512" type="curve" smooth="yes"/>
      <point x="122" y="512"/>
      <point x="80" y="466"/>
      <point x="80" y="408" type="curve" smooth="yes"/>
      <point x="80" y="350"/>
      <point x="122" y="304"/>
    </contour>
  </outline>
</glyph>
<glyph name="cent" format="1">
  <advance width="540"/>
  <unicode hex="00A2"/>
  <outline>
    <contour>
      <point x="332" y="44" type="curve" smooth="yes"/>
      <point x="384" y="44"/>
      <point x="450" y="62"/>
      <point x="500" y="106" type="curve"/>
      <point x="432" y="214" type="line"/>
      <point x="410" y="198"/>
      <point x="384" y="182"/>
      <point x="352" y="182" type="curve" smooth="yes"/>
      <point x="270" y="182"/>
      <point x="226" y="230"/>
      <point x="226" y="306" type="curve" smooth="yes"/>
      <point x="226" y="382"/>
      <point x="266" y="430"/>
      <point x="358" y="430" type="curve" smooth="yes"/>
      <point x="376" y="430"/>
      <point x="394" y="424"/>
      <point x="416" y="406" type="curve"/>
      <point x="494" y="512" type="line"/>
      <point x="460" y="546"/>
      <point x="408" y="568"/>
      <point x="348" y="568" type="curve" smooth="yes"/>
      <point x="186" y="568"/>
      <point x="60" y="472"/>
      <point x="60" y="306" type="curve" smooth="yes"/>
      <point x="60" y="140"/>
      <point x="168" y="44"/>
    </contour>
    <contour>
      <point x="280" y="-44" type="line"/>
      <point x="372" y="-44" type="line"/>
      <point x="372" y="656" type="line"/>
      <point x="280" y="656" type="line"/>
    </contour>
  </outline>
</glyph>
<glyph name="sterling" format="1">
  <advance width="540"/>
  <unicode hex="00A3"/>
  <outline>
    <contour>
      <point x="46" y="0" type="line"/>
      <point x="514" y="0" type="line"/>
      <point x="514" y="144" type="line"/>
      <point x="264" y="144" type="line"/>
      <point x="264" y="148" type="line"/>
      <point x="292" y="182"/>
      <point x="302" y="209"/>
      <point x="302" y="248" type="curve" smooth="yes"/>
      <point x="302" y="310"/>
      <point x="274" y="367"/>
      <point x="274" y="422" type="curve" smooth="yes"/>
      <point x="274" y="484"/>
      <point x="306" y="508"/>
      <point x="352" y="508" type="curve" smooth="yes"/>
      <point x="378" y="508"/>
      <point x="400" y="496"/>
      <point x="422" y="470" type="curve"/>
      <point x="514" y="562" type="line"/>
      <point x="466" y="618"/>
      <point x="410" y="646"/>
      <point x="334" y="646" type="curve" smooth="yes"/>
      <point x="206" y="646"/>
      <point x="110" y="564"/>
      <point x="110" y="432" type="curve" smooth="yes"/>
      <point x="110" y="377"/>
      <point x="152" y="309"/>
      <point x="152" y="250" type="curve" smooth="yes"/>
      <point x="152" y="180"/>
      <point x="102" y="130"/>
      <point x="46" y="106" type="curve"/>
    </contour>
    <contour>
      <point x="52" y="266" type="line"/>
      <point x="424" y="266" type="line"/>
      <point x="424" y="370" type="line"/>
      <point x="120" y="370" type="line"/>
      <point x="52" y="364" type="line"/>
    </contour>
  </outline>
</glyph>
<glyph name="yen" format="1">
  <advance width="540"/>
  <unicode hex="00A5"/>
  <outline>
    <contour>
      <point x="184" y="0" type="line"/>
      <point x="356" y="0" type="line"/>
      <point x="356" y="142" type="line"/>
      <point x="506" y="142" type="line"/>
      <point x="506" y="222" type="line"/>
      <point x="356" y="222" type="line"/>
      <point x="356" y="272" type="line"/>
      <point x="506" y="272" type="line"/>
      <point x="506" y="352" type="line"/>
      <point x="392" y="352" type="line"/>
      <point x="532" y="634" type="line"/>
      <point x="360" y="634" type="line"/>
      <point x="320" y="516" type="line"/>
      <point x="305" y="473"/>
      <point x="289" y="429"/>
      <point x="274" y="386" type="curve"/>
      <point x="270" y="386" type="line"/>
      <point x="254" y="428"/>
      <point x="239" y="472"/>
      <point x="224" y="516" type="curve" smooth="yes"/>
      <point x="184" y="634" type="line"/>
      <point x="8" y="634" type="line"/>
      <point x="148" y="352" type="line"/>
      <point x="34" y="352" type="line"/>
      <point x="34" y="272" type="line"/>
      <point x="184" y="272" type="line"/>
      <point x="184" y="222" type="line"/>
      <point x="34" y="222" type="line"/>
      <point x="34" y="142" type="line"/>
      <point x="184" y="142" type="line"/>
    </contour>
  </outline>
</glyph>
<glyph name="brokenbar" format="1">
  <advance width="278"/>
  <unicode hex="00A6"/>
  <outline>
    <contour>
      <point x="84" y="320" type="line"/>
      <point x="194" y="320" type="line"/>
      <point x="194" y="750" type="line"/>
      <point x="84" y="750" type="line"/>
    </contour>
    <contour>
      <point x="84" y="-250" type="line"/>
      <point x="194" y="-250" type="line"/>
      <point x="194" y="200" type="line"/>
      <point x="84" y="200" type="line"/>
    </contour>
  </outline>
</glyph>
<glyph name="section" format="1">
  <advance width="540"/>
  <unicode hex="00A7"/>
  <outline>
    <contour>
      <point x="400" y="136" type="line"/>
      <point x="470" y="170"/>
      <point x="506" y="220"/>
      <point x="506" y="284" type="curve" smooth="yes"/>
      <point x="506" y="464"/>
      <point x="238" y="480"/>
      <point x="238" y="536" type="curve" smooth="yes"/>
      <point x="238" y="558"/>
      <point x="253" y="566"/>
      <point x="282" y="566" type="curve" smooth="yes"/>
      <point x="313" y="566"/>
      <point x="353" y="545"/>
      <point x="384" y="518" type="curve"/>
      <point x="462" y="624" type="line"/>
      <point x="420" y="657"/>
      <point x="354" y="692"/>
      <point x="272" y="692" type="curve" smooth="yes"/>
      <point x="155" y="692"/>
      <point x="84" y="628"/>
      <point x="84" y="530" type="curve" smooth="yes"/>
      <point x="84" y="354"/>
      <point x="362" y="368"/>
      <point x="362" y="270" type="curve" smooth="yes"/>
      <point x="362" y="239"/>
      <point x="344" y="218"/>
      <point x="302" y="204" type="curve"/>
    </contour>
    <contour>
      <point x="242" y="-92" type="curve" smooth="yes"/>
      <point x="379" y="-92"/>
      <point x="446" y="-20"/>
      <point x="446" y="74" type="curve" smooth="yes"/>
      <point x="446" y="248"/>
      <point x="178" y="238"/>
      <point x="178" y="332" type="curve" smooth="yes"/>
      <point x="178" y="361"/>
      <point x="197" y="384"/>
      <point x="238" y="396" type="curve"/>
      <point x="152" y="466" type="line"/>
      <point x="80" y="442"/>
      <point x="34" y="378"/>
      <point x="34" y="320" type="curve" smooth="yes"/>
      <point x="34" y="130"/>
      <point x="292" y="130"/>
      <point x="292" y="66" type="curve" smooth="yes"/>
      <point x="292" y="46"/>
      <point x="278" y="34"/>
      <point x="242" y="34" type="curve" smooth="yes"/>
      <point x="208" y="34"/>
      <point x="170" y="50"/>
      <point x="138" y="84" type="curve"/>
      <point x="40" y="-2" type="line"/>
      <point x="86" y="-64"/>
      <point x="168" y="-92"/>
    </contour>
  </outline>
</glyph>
<glyph name="paragraph" format="1">
  <advance width="666"/>
  <unicode hex="00B6"/>
  <outline>
    <contour>
      <point x="398" y="-80" type="line"/>
      <point x="570" y="-80" type="line"/>
      <point x="570" y="650" type="line"/>
      <point x="398" y="650" type="line"/>
    </contour>
    <contour>
      <point x="298" y="186" type="curve" smooth="yes"/>
      <point x="342" y="186" type="line"/>
      <point x="342" y="650" type="line"/>
      <point x="298" y="650" type="line" smooth="yes"/>
      <point x="158" y="650"/>
      <point x="38" y="596"/>
      <point x="38" y="424" type="curve" smooth="yes"/>
      <point x="38" y="269"/>
      <point x="158" y="186"/>
    </contour>
  </outline>
</glyph>
<glyph name="questiondown" format="1">
  <advance width="478"/>
  <unicode hex="00BF"/>
  <outline>
    <contour>
      <point x="238" y="-182" type="curve" smooth="yes"/>
      <point x="318" y="-182"/>
      <point x="386" y="-144"/>
      <point x="436" y="-88" type="curve"/>
      <point x="342" y="-2" type="line"/>
      <point x="316" y="-26"/>
      <point x="294" y="-44"/>
      <point x="260" y="-44" type="curve" smooth="yes"/>
      <point x="230" y="-44"/>
      <point x="204" y="-30"/>
      <point x="204" y="6" type="curve" smooth="yes"/>
      <point x="204" y="70"/>
      <point x="346" y="126"/>
      <point x="326" y="256" type="curve"/>
      <point x="176" y="256" type="line"/>
      <point x="186" y="146"/>
      <point x="40" y="114"/>
      <point x="40" y="-6" type="curve" smooth="yes"/>
      <point x="40" y="-132"/>
      <point x="128" y="-182"/>
    </contour>
    <contour>
      <point x="252" y="304" type="curve" smooth="yes"/>
      <point x="310" y="304"/>
      <point x="352" y="350"/>
      <point x="352" y="408" type="curve" smooth="yes"/>
      <point x="352" y="466"/>
      <point x="310" y="512"/>
      <point x="252" y="512" type="curve" smooth="yes"/>
      <point x="194" y="512"/>
      <point x="152" y="466"/>
      <point x="152" y="408" type="curve" smooth="yes"/>
      <point x="152" y="350"/>
      <point x="194" y="304"/>
    </contour>
  </outline>
</glyph>
<glyph name="AE" format="1">
  <advance width="854"/>
  <unicode hex="00C6"/>
  <outline>
    <contour>
      <point x="-22" y="0" type="line"/>
      <point x="158" y="0" type="line"/>
      <point x="308" y="348" type="line"/>
      <point x="330" y="400"/>
      <point x="352" y="460"/>
      <point x="376" y="522" type="curve"/>
      <point x="380" y="522" type="line"/>
      <point x="380" y="0" type="line"/>
      <point x="800" y="0" type="line"/>
      <point x="800" y="144" type="line"/>
      <point x="552" y="144" type="line"/>
      <point x="552" y="260" type="line"/>
      <point x="754" y="260" type="line"/>
      <point x="754" y="404" type="line"/>
      <point x="552" y="404" type="line"/>
      <point x="552" y="506" type="line"/>
      <point x="790" y="506" type="line"/>
      <point x="790" y="650" type="line"/>
      <point x="274" y="650" type="line"/>
    </contour>
    <contour>
      <point x="130" y="132" type="line"/>
      <point x="468" y="132" type="line"/>
      <point x="468" y="265" type="line"/>
      <point x="130" y="265" type="line"/>
    </contour>
    <contour>
      <point x="526" y="672" type="move" name="aboveUC"/>
    </contour>
  </outline>
</glyph>
<glyph name="Oslash" format="1">
  <advance width="692"/>
  <unicode hex="00D8"/>
  <outline>
    <contour>
      <point x="124" y="-46" type="line"/>
      <point x="676" y="628" type="line"/>
      <point x="588" y="696" type="line"/>
      <point x="36" y="22" type="line"/>
    </contour>
    <component base="O"/>
    <contour>
      <point x="356" y="672" type="move" name="aboveUC"/>
    </contour>
  </outline>
</glyph>
<glyph name="germandbls" format="1">
  <advance width="654"/>
  <unicode hex="00DF"/>
  <outline>
    <contour>
      <point x="434" y="-12" type="curve" smooth="yes"/>
      <point x="564" y="-12"/>
      <point x="628" y="64"/>
      <point x="628" y="158" type="curve" smooth="yes"/>
      <point x="628" y="308"/>
      <point x="460" y="312"/>
      <point x="460" y="366" type="curve" smooth="yes"/>
      <point x="460" y="410"/>
      <point x="532" y="438"/>
      <point x="532" y="532" type="curve" smooth="yes"/>
      <point x="532" y="620"/>
      <point x="460" y="706"/>
      <point x="312" y="706" type="curve" smooth="yes"/>
      <point x="137" y="706"/>
      <point x="58" y="606"/>
      <point x="58" y="476" type="curve" smooth="yes"/>
      <point x="58" y="0" type="line"/>
      <point x="228" y="0" type="line"/>
      <point x="228" y="458" type="line" smooth="yes"/>
      <point x="228" y="526"/>
      <point x="255" y="572"/>
      <point x="312" y="572" type="curve" smooth="yes"/>
      <point x="348" y="572"/>
      <point x="368" y="546"/>
      <point x="368" y="512" type="curve" smooth="yes"/>
      <point x="368" y="442"/>
      <point x="304" y="416"/>
      <point x="304" y="344" type="curve" smooth="yes"/>
      <point x="304" y="216"/>
      <point x="472" y="210"/>
      <point x="472" y="150" type="curve" smooth="yes"/>
      <point x="472" y="128"/>
      <point x="454" y="114"/>
      <point x="428" y="114" type="curve" smooth="yes"/>
      <point x="400" y="114"/>
      <point x="370" y="124"/>
      <point x="338" y="148" type="curve"/>
      <point x="280" y="32" type="line"/>
      <point x="330" y="4"/>
      <point x="374" y="-12"/>
    </contour>
  </outline>
</glyph>
<glyph name="ae" format="1">
  <advance width="786"/>
  <unicode hex="00E6"/>
  <outline>
    <contour>
      <point x="192" y="-12" type="curve" smooth="yes"/>
      <point x="259" y="-12"/>
      <point x="308" y="5"/>
      <point x="380" y="60" type="curve"/>
      <point x="423" y="15"/>
      <point x="480" y="-12"/>
      <point x="550" y="-12" type="curve"/>
      <point x="606" y="-12"/>
      <point x="678" y="8"/>
      <point x="732" y="46" type="curve"/>
      <point x="674" y="156" type="line"/>
      <point x="638" y="136"/>
      <point x="608" y="122"/>
      <point x="574" y="122" type="curve" smooth="yes"/>
      <point x="523" y="122"/>
      <point x="482" y="142"/>
      <point x="468" y="198" type="curve"/>
      <point x="743" y="198" type="line"/>
      <point x="746" y="210"/>
      <point x="750" y="236"/>
      <point x="750" y="266" type="curve" smooth="yes"/>
      <point x="750" y="400"/>
      <point x="684" y="512"/>
      <point x="548" y="512" type="curve"/>
      <point x="492" y="512"/>
      <point x="450" y="490"/>
      <point x="406" y="448" type="curve"/>
      <point x="374" y="488"/>
      <point x="326" y="512"/>
      <point x="268" y="512" type="curve" smooth="yes"/>
      <point x="196" y="512"/>
      <point x="128" y="488"/>
      <point x="58" y="446" type="curve"/>
      <point x="118" y="334" type="line"/>
      <point x="170" y="362"/>
      <point x="208" y="376"/>
      <point x="244" y="376" type="curve" smooth="yes"/>
      <point x="289" y="376"/>
      <point x="308" y="360"/>
      <point x="312" y="325" type="curve"/>
      <point x="120" y="305"/>
      <point x="42" y="246"/>
      <point x="42" y="142" type="curve" smooth="yes"/>
      <point x="42" y="60"/>
      <point x="98" y="-12"/>
    </contour>
    <contour>
      <point x="252" y="120" type="curve" smooth="yes"/>
      <point x="222" y="120"/>
      <point x="206" y="133"/>
      <point x="206" y="156" type="curve" smooth="yes"/>
      <point x="206" y="185"/>
      <point x="235" y="210"/>
      <point x="310" y="222" type="curve"/>
      <point x="312" y="203" type="line" smooth="yes"/>
      <point x="314" y="186"/>
      <point x="318" y="168"/>
      <point x="324" y="150" type="curve"/>
      <point x="304" y="132"/>
      <point x="281" y="120"/>
    </contour>
    <contour>
      <point x="468" y="302" type="line"/>
      <point x="476" y="360"/>
      <point x="504" y="382"/>
      <point x="542" y="382" type="curve" smooth="yes"/>
      <point x="588" y="382"/>
      <point x="604" y="346"/>
      <point x="604" y="302" type="curve"/>
    </contour>
    <contour>
      <point x="410" y="522" type="move" name="aboveLC"/>
    </contour>
    <contour>
      <point x="404" y="-22" type="move" name="belowLC"/>
    </contour>
  </outline>
</glyph>
<glyph name="eth" format="1">
  <advance width="566"/>
  <unicode hex="00F0"/>
  <outline>
    <contour>
      <point x="274" y="-12" type="curve" smooth="yes"/>
      <point x="428" y="-12"/>
      <point x="520" y="108"/>
      <point x="520" y="270" type="curve" smooth="yes"/>
      <point x="520" y="526"/>
      <point x="348" y="658"/>
      <point x="177" y="744" type="curve"/>
      <point x="103" y="640" type="line"/>
      <point x="282" y="550"/>
      <point x="360" y="453"/>
      <point x="360" y="260" type="curve" smooth="yes"/>
      <point x="360" y="162"/>
      <point x="324" y="126"/>
      <point x="280" y="126" type="curve" smooth="yes"/>
      <point x="234" y="126"/>
      <point x="194" y="160"/>
      <point x="194" y="230" type="curve" smooth="yes"/>
      <point x="194" y="305"/>
      <point x="231" y="332"/>
      <point x="277" y="332" type="curve" smooth="yes"/>
      <point x="310" y="332"/>
      <point x="340" y="321"/>
      <point x="366" y="292" type="curve"/>
      <point x="364" y="378" type="line"/>
      <point x="344" y="438"/>
      <point x="290" y="458"/>
      <point x="240" y="458" type="curve" smooth="yes"/>
      <point x="140" y="458"/>
      <point x="38" y="376"/>
      <point x="38" y="230" type="curve" smooth="yes"/>
      <point x="38" y="82"/>
      <point x="146" y="-12"/>
    </contour>
    <contour>
      <point x="116" y="465" type="line"/>
      <point x="502" y="658" type="line"/>
      <point x="458" y="733" type="line"/>
      <point x="72" y="539" type="line"/>
    </contour>
  </outline>
</glyph>
<glyph name="divide" format="1">
  <advance width="540"/>
  <unicode hex="00F7"/>
  <outline>
    <contour>
      <point x="34" y="270" type="line"/>
      <point x="506" y="270" type="line"/>
      <point x="506" y="390" type="line"/>
      <point x="34" y="390" type="line"/>
    </contour>
    <contour>
      <point x="270" y="64" type="curve" smooth="yes"/>
      <point x="322" y="64"/>
      <point x="362" y="100"/>
      <point x="362" y="150" type="curve" smooth="yes"/>
      <point x="362" y="200"/>
      <point x="322" y="236"/>
      <point x="270" y="236" type="curve" smooth="yes"/>
      <point x="218" y="236"/>
      <point x="178" y="200"/>
      <point x="178" y="150" type="curve" smooth="yes"/>
      <point x="178" y="100"/>
      <point x="218" y="64"/>
    </contour>
    <contour>
      <point x="270" y="424" type="curve" smooth="yes"/>
      <point x="322" y="424"/>
      <point x="362" y="460"/>
      <point x="362" y="510" type="curve" smooth="yes"/>
      <point x="362" y="560"/>
      <point x="322" y="596"/>
      <point x="270" y="596" type="curve" smooth="yes"/>
      <point x="218" y="596"/>
      <point x="178" y="560"/>
      <point x="178" y="510" type="curve" smooth="yes"/>
      <point x="178" y="460"/>
      <point x="218" y="424"/>
    </contour>
  </outline>
</glyph>
<glyph name="oslash" format="1">
  <advance width="560"/>
  <unicode hex="00F8"/>
  <outline>
    <contour>
      <point x="280" y="-12" type="curve" smooth="yes"/>
      <point x="408" y="-12"/>
      <point x="528" y="84"/>
      <point x="528" y="250" type="curve" smooth="yes"/>
      <point x="528" y="416"/>
      <point x="408" y="512"/>
      <point x="280" y="512" type="curve" smooth="yes"/>
      <point x="152" y="512"/>
      <point x="32" y="416"/>
      <point x="32" y="250" type="curve" smooth="yes"/>
      <point x="32" y="84"/>
      <point x="152" y="-12"/>
    </contour>
    <contour>
      <point x="280" y="120" type="curve" smooth="yes"/>
      <point x="226" y="120"/>
      <point x="198" y="162"/>
      <point x="198" y="260" type="curve" smooth="yes"/>
      <point x="198" y="332"/>
      <point x="228" y="380"/>
      <point x="280" y="380" type="curve" smooth="yes"/>
      <point x="334" y="380"/>
      <point x="362" y="338"/>
      <point x="362" y="240" type="curve" smooth="yes"/>
      <point x="362" y="168"/>
      <point x="332" y="120"/>
    </contour>
    <contour>
      <point x="108" y="-26" type="line"/>
      <point x="514" y="480" type="line"/>
      <point x="452" y="528" type="line"/>
      <point x="46" y="22" type="line"/>
    </contour>
    <contour>
      <point x="280" y="522" type="move" name="aboveLC"/>
    </contour>
  </outline>
</glyph>
<glyph name="thorn" format="1">
  <advance width="580"/>
  <unicode hex="00FE"/>
  <outline>
    <contour>
      <point x="58" y="-176" type="line"/>
      <point x="230" y="-176" type="line"/>
      <point x="230" y="-38" type="line"/>
      <point x="226" y="32" type="line"/>
      <point x="256" y="4"/>
      <point x="288" y="-12"/>
      <point x="336" y="-12" type="curve" smooth="yes"/>
      <point x="442" y="-12"/>
      <point x="544" y="86"/>
      <point x="544" y="258" type="curve" smooth="yes"/>
      <point x="544" y="412"/>
      <point x="464" y="512"/>
      <point x="340" y="512" type="curve" smooth="yes"/>
      <point x="298" y="512"/>
      <point x="257" y="496"/>
      <point x="226" y="468" type="curve"/>
      <point x="230" y="533" type="line"/>
      <point x="230" y="696" type="line"/>
      <point x="58" y="696" type="line"/>
    </contour>
    <contour>
      <point x="294" y="128" type="curve" smooth="yes"/>
      <point x="272" y="128"/>
      <point x="250" y="134"/>
      <point x="230" y="152" type="curve"/>
      <point x="230" y="336" type="line"/>
      <point x="252" y="362"/>
      <point x="272" y="372"/>
      <point x="298" y="372" type="curve" smooth="yes"/>
      <point x="344" y="372"/>
      <point x="368" y="338"/>
      <point x="368" y="256" type="curve" smooth="yes"/>
      <point x="368" y="160"/>
      <point x="334" y="128"/>
    </contour>
    <contour>
      <point x="146" y="730" type="move" name="aboveLC"/>
    </contour>
    <contour>
      <point x="297" y="-22" type="move" name="belowLC"/>
    </contour>
  </outline>
</glyph>
<glyph name="r.sups" format="1">
  <advance width="284"/>
  <unicode hex="02B3"/>
  <outline>
    <contour>
      <point x="38" y="260" type="line"/>
      <point x="158" y="260" type="line"/>
      <point x="158" y="442" type="line"/>
      <point x="174" y="482"/>
      <point x="202" y="496"/>
      <point x="226" y="496" type="curve" smooth="yes"/>
      <point x="240" y="496"/>
      <point x="254" y="492"/>
      <point x="264" y="490" type="curve"/>
      <point x="284" y="592" type="line"/>
      <point x="275" y="596"/>
      <point x="262" y="600"/>
      <point x="240" y="600" type="curve" smooth="yes"/>
      <point x="208" y="600"/>
      <point x="172" y="580"/>
      <point x="146" y="534" type="curve"/>
      <point x="144" y="534" type="line"/>
      <point x="135" y="592" type="line"/>
      <point x="38" y="592" type="line"/>
    </contour>
  </outline>
</glyph>
<glyph name="y.sups" format="1">
  <advance width="366"/>
  <unicode hex="02B8"/>
  <outline>
    <contour>
      <point x="90" y="140" type="curve" smooth="yes"/>
      <point x="176" y="140"/>
      <point x="212" y="178"/>
      <point x="248" y="268" type="curve"/>
      <point x="358" y="592" type="line"/>
      <point x="244" y="592" type="line"/>
      <point x="214" y="468" type="line" smooth="yes"/>
      <point x="206" y="436"/>
      <point x="198" y="406"/>
      <point x="192" y="374" type="curve"/>
      <point x="188" y="374" type="line"/>
      <point x="180" y="408"/>
      <point x="176" y="434"/>
      <point x="166" y="468" type="curve" smooth="yes"/>
      <point x="128" y="592" type="line"/>
      <point x="8" y="592" type="line"/>
      <point x="136" y="274" type="line"/>
      <point x="132" y="262" type="line" smooth="yes"/>
      <point x="126" y="244"/>
      <point x="110" y="230"/>
      <point x="80" y="230" type="curve" smooth="yes"/>
      <point x="74" y="230"/>
      <point x="70" y="230"/>
      <point x="58" y="234" type="curve"/>
      <point x="38" y="146" type="line"/>
      <point x="54" y="142"/>
      <point x="68" y="140"/>
    </contour>
  </outline>
</glyph>
<glyph name="verticallinelowmod" format="1">
  <advance width="160"/>
  <unicode hex="02CC"/>
  <outline>
    <contour>
      <point x="12" y="-270" type="line"/>
      <point x="148" y="-270" type="line"/>
      <point x="142" y="-62" type="line"/>
      <point x="18" y="-62" type="line"/>
    </contour>
  </outline>
</glyph>
<glyph name="dieresiscmb" format="1">
  <advance width="0"/>
  <unicode hex="0308"/>
  <outline>
    <contour>
      <point x="0" y="522" type="move" name="_aboveLC"/>
    </contour>
    <contour>
      <point x="0" y="730" type="move" name="aboveLC"/>
    </contour>
    <contour>
      <point x="-104" y="564" type="curve" smooth="yes"/>
      <point x="-58" y="564"/>
      <point x="-26" y="598"/>
      <point x="-26" y="642" type="curve" smooth="yes"/>
      <point x="-26" y="686"/>
      <point x="-58" y="720"/>
      <point x="-104" y="720" type="curve" smooth="yes"/>
      <point x="-150" y="720"/>
      <point x="-182" y="686"/>
      <point x="-182" y="642" type="curve" smooth="yes"/>
      <point x="-182" y="598"/>
      <point x="-150" y="564"/>
    </contour>
    <contour>
      <point x="104" y="564" type="curve" smooth="yes"/>
      <point x="150" y="564"/>
      <point x="182" y="598"/>
      <point x="182" y="642" type="curve" smooth="yes"/>
      <point x="182" y="686"/>
      <point x="150" y="720"/>
      <point x="104" y="720" type="curve" smooth="yes"/>
      <point x="58" y="720"/>
      <point x="26" y="686"/>
      <point x="26" y="642" type="curve" smooth="yes"/>
      <point x="26" y="598"/>
      <point x="58" y="564"/>
    </contour>
  </outline>
</glyph>
<glyph name="hungarumlautcmb" format="1">
  <advance width="0"/>
  <unicode hex="030B"/>
  <outline>
    <contour>
      <point x="0" y="522" type="move" name="_aboveLC"/>
    </contour>
    <contour>
      <point x="-42" y="574" type="line"/>
      <point x="66" y="748" type="line"/>
      <point x="-78" y="748" type="line"/>
      <point x="-156" y="574" type="line"/>
    </contour>
    <contour>
      <point x="34" y="574" type="line"/>
      <point x="148" y="574" type="line"/>
      <point x="256" y="748" type="line"/>
      <point x="112" y="748" type="line"/>
    </contour>
  </outline>
</glyph>
<glyph name="caroncmb" format="1">
  <advance width="0"/>
  <unicode hex="030C"/>
  <outline>
    <contour>
      <point x="-88" y="574" type="line"/>
      <point x="88" y="574" type="line"/>
      <point x="194" y="748" type="line"/>
      <point x="60" y="748" type="line"/>
      <point x="2" y="664" type="line"/>
      <point x="-2" y="664" type="line"/>
      <point x="-60" y="748" type="line"/>
      <point x="-194" y="748" type="line"/>
    </contour>
    <contour>
      <point x="0" y="522" type="move" name="_aboveLC"/>
    </contour>
  </outline>
</glyph>
<glyph name="breveinvertedcmb" format="1">
  <advance width="0"/>
  <unicode hex="0311"/>
  <outline>
    <contour>
      <point x="-165" y="574" type="curve"/>
      <point x="-61" y="574" type="line"/>
      <point x="-56" y="610"/>
      <point x="-38" y="636"/>
      <point x="-1" y="636" type="curve" smooth="yes"/>
      <point x="36" y="636"/>
      <point x="55" y="610"/>
      <point x="60" y="574" type="curve"/>
      <point x="164" y="574" type="line"/>
      <point x="162" y="657"/>
      <point x="110" y="728"/>
      <point x="-1" y="728" type="curve" smooth="yes"/>
      <point x="-112" y="728"/>
      <point x="-163" y="657"/>
    </contour>
    <contour>
      <point x="0" y="522" type="move" name="_aboveLC"/>
    </contour>
  </outline>
</glyph>
<glyph name="squarebelowcmb" format="1">
  <advance width="0"/>
  <unicode hex="033B"/>
  <outline>
    <contour>
      <point x="0" y="-22" type="move" name="_belowLC"/>
    </contour>
    <contour>
      <point x="-130" y="-250" type="line"/>
      <point x="130" y="-250" type="line"/>
      <point x="130" y="-62" type="line"/>
      <point x="-130" y="-62" type="line"/>
    </contour>
    <contour>
      <point x="48" y="-190" type="line"/>
      <point x="-48" y="-190" type="line"/>
      <point x="-48" y="-120" type="line"/>
      <point x="48" y="-120" type="line"/>
    </contour>
  </outline>
</glyph>
<glyph name="delta" format="1">
  <advance width="554"/>
  <unicode hex="03B4"/>
  <outline>
    <contour>
      <point x="274" y="-12" type="curve" smooth="yes"/>
      <point x="426" y="-12"/>
      <point x="518" y="84"/>
      <point x="518" y="224" type="curve" smooth="yes"/>
      <point x="518" y="328"/>
      <point x="468" y="384"/>
      <point x="378" y="450" type="curve" smooth="yes"/>
      <point x="305" y="503"/>
      <point x="240" y="536"/>
      <point x="240" y="564" type="curve" smooth="yes"/>
      <point x="240" y="576"/>
      <point x="250" y="582"/>
      <point x="272" y="582" type="curve" smooth="yes"/>
      <point x="325" y="582"/>
      <point x="394" y="564"/>
      <point x="458" y="543" type="curve"/>
      <point x="496" y="669" type="line"/>
      <point x="432" y="690"/>
      <point x="348" y="708"/>
      <point x="272" y="708" type="curve" smooth="yes"/>
      <point x="143" y="708"/>
      <point x="82" y="650"/>
      <point x="82" y="582" type="curve" smooth="yes"/>
      <point x="82" y="479"/>
      <point x="164" y="421"/>
      <point x="231" y="378" type="curve" smooth="yes"/>
      <point x="297" y="336"/>
      <point x="352" y="295"/>
      <point x="352" y="226" type="curve" smooth="yes"/>
      <point x="352" y="150"/>
      <point x="318" y="126"/>
      <point x="278" y="126" type="curve" smooth="yes"/>
      <point x="234" y="126"/>
      <point x="198" y="157"/>
      <point x="198" y="220" type="curve" smooth="yes"/>
      <point x="198" y="292"/>
      <point x="237" y="329"/>
      <point x="295" y="342" type="curve"/>
      <point x="218" y="434" type="line"/>
      <point x="128" y="402"/>
      <point x="36" y="336"/>
      <point x="36" y="218" type="curve" smooth="yes"/>
      <point x="36" y="74"/>
      <point x="142" y="-12"/>
    </contour>
  </outline>
</glyph>
<glyph name="xi" format="1">
  <advance width="476"/>
  <unicode hex="03BE"/>
  <outline>
    <contour>
      <point x="260" y="-146" type="curve"/>
      <point x="394" y="-188" type="line"/>
      <point x="438" y="-120"/>
      <point x="456" y="-48"/>
      <point x="456" y="-12" type="curve" smooth="yes"/>
      <point x="456" y="68"/>
      <point x="436" y="104"/>
      <point x="326" y="126" type="curve" smooth="yes"/>
      <point x="238" y="143"/>
      <point x="208" y="154"/>
      <point x="208" y="212" type="curve" smooth="yes"/>
      <point x="208" y="260"/>
      <point x="249" y="296"/>
      <point x="310" y="296" type="curve" smooth="yes"/>
      <point x="338" y="296"/>
      <point x="364" y="294"/>
      <point x="396" y="286" type="curve"/>
      <point x="396" y="418" type="line"/>
      <point x="368" y="410"/>
      <point x="349" y="408"/>
      <point x="320" y="408" type="curve" smooth="yes"/>
      <point x="270" y="408"/>
      <point x="248" y="449"/>
      <point x="248" y="486" type="curve" smooth="yes"/>
      <point x="248" y="532"/>
      <point x="277" y="562"/>
      <point x="327" y="562" type="curve" smooth="yes"/>
      <point x="446" y="562" type="line"/>
      <point x="446" y="696" type="line"/>
      <point x="4" y="696" type="line"/>
      <point x="4" y="562" type="line"/>
      <point x="56" y="568"/>
      <point x="80" y="570"/>
      <point x="112" y="572" type="curve"/>
      <point x="88" y="552"/>
      <point x="76" y="518"/>
      <point x="76" y="492" type="curve" smooth="yes"/>
      <point x="76" y="436"/>
      <point x="106" y="386"/>
      <point x="163" y="364" type="curve"/>
      <point x="163" y="360" type="line"/>
      <point x="92" y="334"/>
      <point x="32" y="266"/>
      <point x="32" y="184" type="curve" smooth="yes"/>
      <point x="32" y="60"/>
      <point x="114" y="15"/>
      <point x="216" y="-8" type="curve" smooth="yes"/>
      <point x="286" y="-24"/>
      <point x="306" y="-34"/>
      <point x="306" y="-60" type="curve" smooth="yes"/>
      <point x="306" y="-85"/>
      <point x="286" y="-110"/>
    </contour>
  </outline>
</glyph>
<glyph name="chi" format="1">
  <advance width="544"/>
  <unicode hex="03C7"/>
  <outline>
    <contour>
      <point x="8" y="-176" type="line"/>
      <point x="186" y="-188" type="line"/>
      <point x="278" y="30" type="line"/>
      <point x="282" y="30" type="line"/>
      <point x="390" y="-188" type="line"/>
      <point x="560" y="-152" type="line"/>
      <point x="364" y="170" type="line"/>
      <point x="534" y="500" type="line"/>
      <point x="356" y="500" type="line"/>
      <point x="282" y="316" type="line"/>
      <point x="278" y="316" type="line"/>
      <point x="176" y="512" type="line"/>
      <point x="6" y="476" type="line"/>
      <point x="195" y="166" type="line"/>
    </contour>
  </outline>
</glyph>
<glyph name="d.sups" format="1">
  <advance width="390"/>
  <unicode hex="1D48"/>
  <outline>
    <contour>
      <point x="160" y="252" type="curve" smooth="yes"/>
      <point x="192" y="252"/>
      <point x="222" y="268"/>
      <point x="244" y="290" type="curve"/>
      <point x="246" y="290" type="line"/>
      <point x="254" y="260" type="line"/>
      <point x="352" y="260" type="line"/>
      <point x="352" y="720" type="line"/>
      <point x="232" y="720" type="line"/>
      <point x="232" y="618" type="line"/>
      <point x="238" y="566" type="line"/>
      <point x="220" y="586"/>
      <point x="194" y="600"/>
      <point x="160" y="600" type="curve" smooth="yes"/>
      <point x="96" y="600"/>
      <point x="24" y="536"/>
      <point x="24" y="432" type="curve" smooth="yes"/>
      <point x="24" y="318"/>
      <point x="77" y="252"/>
    </contour>
    <contour>
      <point x="194" y="346" type="curve" smooth="yes"/>
      <point x="164" y="346"/>
      <point x="146" y="368"/>
      <point x="146" y="432" type="curve" smooth="yes"/>
      <point x="146" y="484"/>
      <point x="168" y="506"/>
      <point x="192" y="506" type="curve" smooth="yes"/>
      <point x="206" y="506"/>
      <point x="218" y="502"/>
      <point x="232" y="490" type="curve"/>
      <point x="232" y="370" type="line"/>
      <point x="222" y="352"/>
      <point x="210" y="346"/>
    </contour>
  </outline>
</glyph>
<glyph name="e.sups" format="1">
  <advance width="350"/>
  <unicode hex="1D49"/>
  <outline>
    <contour>
      <point x="196" y="252" type="curve" smooth="yes"/>
      <point x="234" y="252"/>
      <point x="282" y="264"/>
      <point x="320" y="290" type="curve"/>
      <point x="280" y="360" type="line"/>
      <point x="256" y="346"/>
      <point x="234" y="342"/>
      <point x="212" y="342" type="curve" smooth="yes"/>
      <point x="176" y="342"/>
      <point x="146" y="352"/>
      <point x="136" y="394" type="curve"/>
      <point x="324" y="394" type="line"/>
      <point x="328" y="408"/>
      <point x="330" y="418"/>
      <point x="330" y="438" type="curve" smooth="yes"/>
      <point x="330" y="528"/>
      <point x="282" y="600"/>
      <point x="184" y="600" type="curve" smooth="yes"/>
      <point x="98" y="600"/>
      <point x="22" y="532"/>
      <point x="22" y="426" type="curve" smooth="yes"/>
      <point x="22" y="318"/>
      <point x="98" y="252"/>
    </contour>
    <contour>
      <point x="134" y="460" type="line"/>
      <point x="140" y="496"/>
      <point x="160" y="510"/>
      <point x="185" y="510" type="curve" smooth="yes"/>
      <point x="218" y="510"/>
      <point x="230" y="488"/>
      <point x="230" y="460" type="curve"/>
    </contour>
  </outline>
</glyph>
<glyph name="u.sups" format="1">
  <advance width="388"/>
  <unicode hex="1D58"/>
  <outline>
    <contour>
      <point x="140" y="252" type="curve" smooth="yes"/>
      <point x="186" y="252"/>
      <point x="220" y="278"/>
      <point x="242" y="300" type="curve"/>
      <point x="244" y="300" type="line"/>
      <point x="256" y="260" type="line"/>
      <point x="352" y="260" type="line"/>
      <point x="352" y="592" type="line"/>
      <point x="232" y="592" type="line"/>
      <point x="232" y="376" type="line"/>
      <point x="218" y="360"/>
      <point x="204" y="352"/>
      <point x="188" y="352" type="curve" smooth="yes"/>
      <point x="158" y="352"/>
      <point x="154" y="366"/>
      <point x="154" y="402" type="curve" smooth="yes"/>
      <point x="154" y="592" type="line"/>
      <point x="34" y="592" type="line"/>
      <point x="34" y="387" type="line" smooth="yes"/>
      <point x="34" y="305"/>
      <point x="67" y="252"/>
    </contour>
  </outline>
</glyph>
<glyph name="v.sups" format="1">
  <advance width="368"/>
  <unicode hex="1D5B"/>
  <outline>
    <contour>
      <point x="116" y="260" type="line"/>
      <point x="254" y="260" type="line"/>
      <point x="360" y="592" type="line"/>
      <point x="246" y="592" type="line"/>
      <point x="212" y="450" type="line"/>
      <point x="188" y="346" type="line"/>
      <point x="186" y="346" type="line"/>
      <point x="160" y="450" type="line"/>
      <point x="126" y="592" type="line"/>
      <point x="8" y="592" type="line"/>
    </contour>
  </outline>
</glyph>
<glyph name="guilsinglright" format="1">
  <advance width="300"/>
  <unicode hex="203A"/>
  <outline>
    <contour>
      <point x="116" y="52" type="line"/>
      <point x="250" y="192" type="line"/>
      <point x="250" y="312" type="line"/>
      <point x="116" y="452" type="line"/>
      <point x="54" y="402" type="line"/>
      <point x="162" y="252" type="line"/>
      <point x="54" y="102" type="line"/>
    </contour>
  </outline>
</glyph>
<glyph name="schwa.sups" format="1">
  <advance width="350"/>
  <unicode hex="2094"/>
  <outline>
    <contour>
      <point x="166" y="252" type="curve" smooth="yes"/>
      <point x="252" y="252"/>
      <point x="328" y="320"/>
      <point x="328" y="426" type="curve" smooth="yes"/>
      <point x="328" y="530"/>
      <point x="262" y="600"/>
      <point x="164" y="600" type="curve" smooth="yes"/>
      <point x="126" y="600"/>
      <point x="78" y="588"/>
      <point x="40" y="562" type="curve"/>
      <point x="80" y="492" type="line"/>
      <point x="104" y="506"/>
      <point x="126" y="510"/>
      <point x="148" y="510" type="curve" smooth="yes"/>
      <point x="184" y="510"/>
      <point x="204" y="496"/>
      <point x="214" y="458" type="curve"/>
      <point x="26" y="458" type="line"/>
      <point x="22" y="444"/>
      <point x="20" y="434"/>
      <point x="20" y="414" type="curve" smooth="yes"/>
      <point x="20" y="324"/>
      <point x="68" y="252"/>
    </contour>
    <contour>
      <point x="165" y="342" type="curve" smooth="yes"/>
      <point x="132" y="342"/>
      <point x="120" y="364"/>
      <point x="120" y="392" type="curve"/>
      <point x="216" y="392" type="line"/>
      <point x="210" y="356"/>
      <point x="190" y="342"/>
    </contour>
  </outline>
</glyph>
<glyph name="squareblack" format="1">
  <advance width="360"/>
  <unicode hex="25A0"/>
  <outline>
    <contour>
      <point x="54" y="134" type="line"/>
      <point x="306" y="134" type="line"/>
      <point x="306" y="390" type="line"/>
      <point x="54" y="390" type="line"/>
    </contour>
  </outline>
</glyph>
<glyph name="trianglewhiteup" format="1">
  <advance width="600"/>
  <unicode hex="25B3"/>
  <outline>
    <contour>
      <point x="18" y="14" type="line"/>
      <point x="582" y="14" type="line"/>
      <point x="582" y="16" type="line"/>
      <point x="302" y="550" type="line"/>
      <point x="298" y="550" type="line"/>
      <point x="18" y="16" type="line"/>
    </contour>
    <contour>
      <point x="207" y="124" type="line"/>
      <point x="300" y="312" type="line"/>
      <point x="394" y="124" type="line"/>
    </contour>
  </outline>
</glyph>
<glyph name="A" format="1">
  <advance width="584"/>
  <outline>
    <contour>
      <point x="-10" y="0" type="line"/>
      <point x="166" y="0" type="line"/>
      <point x="240" y="316" type="line" smooth="yes"/>
      <point x="256" y="378"/>
      <point x="272" y="456"/>
      <point x="286" y="522" type="curve"/>
      <point x="290" y="522" type="line"/>
      <point x="306" y="457"/>
      <point x="322" y="378"/>
      <point x="338" y="316" type="curve" smooth="yes"/>
      <point x="412" y="0" type="line"/>
      <point x="594" y="0" type="line"/>
      <point x="396" y="650" type="line"/>
      <point x="188" y="650" type="line"/>
    </contour>
    <contour>
      <point x="132" y="138" type="line"/>
      <point x="450" y="138" type="line"/>
      <point x="450" y="271" type="line"/>
      <point x="132" y="271" type="line"/>
    </contour>
    <contour>
      <point x="288" y="672" type="move" name="aboveUC"/>
    </contour>
    <contour>
      <point x="288" y="-22" type="move" name="belowLC"/>
    </contour>
    <contour>
      <point x="484" y="0" type="move" name="ogonekUC"/>
    </contour>
  </outline>
</glyph>
<glyph name="B" format="1">
  <advance width="612"/>
  <outline>
    <contour>
      <point x="72" y="0" type="line"/>
      <point x="326" y="0" type="line" smooth="yes"/>
      <point x="466" y="0"/>
      <point x="582" y="58"/>
      <point x="582" y="192" type="curve" smooth="yes"/>
      <point x="582" y="278"/>
      <point x="536" y="326"/>
      <point x="444" y="344" type="curve"/>
      <point x="444" y="348" type="line"/>
      <point x="520" y="368"/>
      <point x="552" y="432"/>
      <point x="552" y="488" type="curve" smooth="yes"/>
      <point x="552" y="616"/>
      <point x="442" y="650"/>
      <point x="306" y="650" type="curve" smooth="yes"/>
      <point x="72" y="650" type="line"/>
    </contour>
    <contour>
      <point x="244" y="394" type="line"/>
      <point x="244" y="518" type="line"/>
      <point x="302" y="518" type="line" smooth="yes"/>
      <point x="358" y="518"/>
      <point x="384" y="502"/>
      <point x="384" y="462" type="curve" smooth="yes"/>
      <point x="384" y="422"/>
      <point x="358" y="394"/>
      <point x="302" y="394" type="curve" smooth="yes"/>
    </contour>
    <contour>
      <point x="244" y="132" type="line"/>
      <point x="244" y="274" type="line"/>
      <point x="314" y="274" type="line" smooth="yes"/>
      <point x="382" y="274"/>
      <point x="414" y="254"/>
      <point x="414" y="206" type="curve" smooth="yes"/>
      <point x="414" y="158"/>
      <point x="382" y="132"/>
      <point x="314" y="132" type="curve" smooth="yes"/>
    </contour>
    <contour>
      <point x="305" y="672" type="move" name="aboveUC"/>
    </contour>
    <contour>
      <point x="320" y="-22" type="move" name="belowLC"/>
    </contour>
  </outline>
</glyph>
<glyph name="B.sups" format="1">
  <advance width="413"/>
  <outline>
    <contour>
      <point x="47" y="260" type="line"/>
      <point x="222" y="260" type="line" smooth="yes"/>
      <point x="315" y="260"/>
      <point x="393" y="300"/>
      <point x="393" y="389" type="curve" smooth="yes"/>
      <point x="393" y="445"/>
      <point x="363" y="477"/>
      <point x="302" y="489" type="curve"/>
      <point x="302" y="491" type="line"/>
      <point x="353" y="507"/>
      <point x="374" y="549"/>
      <point x="374" y="586" type="curve" smooth="yes"/>
      <point x="374" y="670"/>
      <point x="299" y="692"/>
      <point x="208" y="692" type="curve" smooth="yes"/>
      <point x="47" y="692" type="line"/>
    </contour>
    <contour>
      <point x="167" y="523" type="line"/>
      <point x="167" y="601" type="line"/>
      <point x="204" y="601" type="line" smooth="yes"/>
      <point x="241" y="601"/>
      <point x="257" y="590"/>
      <point x="257" y="566" type="curve" smooth="yes"/>
      <point x="257" y="542"/>
      <point x="240" y="523"/>
      <point x="204" y="523" type="curve" smooth="yes"/>
    </contour>
    <contour>
      <point x="167" y="351" type="line"/>
      <point x="167" y="441" type="line"/>
      <point x="213" y="441" type="line" smooth="yes"/>
      <point x="257" y="441"/>
      <point x="276" y="428"/>
      <point x="276" y="399" type="curve" smooth="yes"/>
      <point x="276" y="369"/>
      <point x="257" y="351"/>
      <point x="213" y="351" type="curve" smooth="yes"/>
    </contour>
  </outline>
</glyph>
<glyph name="Be.sc" format="1">
  <advance width="546"/>
  <outline>
    <contour>
      <point x="72" y="0" type="line"/>
      <point x="294" y="0" type="line" smooth="yes"/>
      <point x="413" y="0"/>
      <point x="516" y="40"/>
      <point x="516" y="172" type="curve" smooth="yes"/>
      <point x="516" y="290"/>
      <point x="414" y="329"/>
      <point x="294" y="329" type="curve" smooth="yes"/>
      <point x="241" y="329" type="line"/>
      <point x="241" y="390" type="line"/>
      <point x="464" y="390" type="line"/>
      <point x="464" y="531" type="line"/>
      <point x="72" y="531" type="line"/>
    </contour>
    <contour>
      <point x="241" y="129" type="line"/>
      <point x="241" y="212" type="line"/>
      <point x="284" y="212" type="line" smooth="yes"/>
      <point x="331" y="212"/>
      <point x="351" y="201"/>
      <point x="351" y="172" type="curve" smooth="yes"/>
      <point x="351" y="145"/>
      <point x="332" y="129"/>
      <point x="284" y="129" type="curve" smooth="yes"/>
    </contour>
  </outline>
</glyph>
<glyph name="Bsmall" format="1">
  <advance width="538"/>
  <outline>
    <contour>
      <point x="266" y="502" type="move" name="aboveLC"/>
    </contour>
    <contour>
      <point x="280" y="-22" type="move" name="belowLC"/>
    </contour>
    <component base="ve"/>
  </outline>
</glyph>
<glyph name="C" format="1">
  <advance width="586"/>
  <outline>
    <contour>
      <point x="44" y="320" type="curve" smooth="yes"/>
      <point x="44" y="98"/>
      <point x="188" y="-12"/>
      <point x="358" y="-12" type="curve" smooth="yes"/>
      <point x="438" y="-12"/>
      <point x="513" y="20"/>
      <point x="568" y="84" type="curve"/>
      <point x="474" y="188" type="line"/>
      <point x="446" y="158"/>
      <point x="410" y="136"/>
      <point x="360" y="136" type="curve" smooth="yes"/>
      <point x="276" y="136"/>
      <point x="220" y="204"/>
      <point x="220" y="326" type="curve" smooth="yes"/>
      <point x="220" y="444"/>
      <point x="286" y="514"/>
      <point x="364" y="514" type="curve" smooth="yes"/>
      <point x="406" y="514"/>
      <point x="434" y="498"/>
      <point x="466" y="470" type="curve"/>
      <point x="560" y="576" type="line"/>
      <point x="514" y="622"/>
      <point x="444" y="662"/>
      <point x="362" y="662" type="curve" smooth="yes"/>
      <point x="194" y="662"/>
      <point x="44" y="538"/>
    </contour>
    <contour>
      <point x="348" y="672" type="move" name="aboveUC"/>
    </contour>
    <contour>
      <point x="352" y="-22" type="move" name="belowLC"/>
    </contour>
    <contour>
      <point x="352" y="0" type="move" name="baseLC"/>
    </contour>
  </outline>
</glyph>
<glyph name="C.sups" format="1">
  <advance width="395"/>
  <outline>
    <contour>
      <point x="236" y="252" type="curve" smooth="yes"/>
      <point x="295" y="252"/>
      <point x="346" y="273"/>
      <point x="384" y="318" type="curve"/>
      <point x="319" y="389" type="line"/>
      <point x="300" y="368"/>
      <point x="276" y="354"/>
      <point x="243" y="354" type="curve" smooth="yes"/>
      <point x="188" y="354"/>
      <point x="152" y="398"/>
      <point x="152" y="475" type="curve" smooth="yes"/>
      <point x="152" y="550"/>
      <point x="195" y="596"/>
      <point x="246" y="596" type="curve" smooth="yes"/>
      <point x="273" y="596"/>
      <point x="291" y="586"/>
      <point x="313" y="568" type="curve"/>
      <point x="378" y="641" type="line"/>
      <point x="349" y="674"/>
      <point x="301" y="700"/>
      <point x="244" y="700" type="curve" smooth="yes"/>
      <point x="131" y="700"/>
      <point x="29" y="615"/>
      <point x="29" y="471" type="curve" smooth="yes"/>
      <point x="29" y="325"/>
      <point x="124" y="252"/>
    </contour>
  </outline>
</glyph>
<glyph name="Che" format="1">
  <advance width="642"/>
  <outline>
    <contour>
      <point x="398" y="0" type="line"/>
      <point x="570" y="0" type="line"/>
      <point x="570" y="650" type="line"/>
      <point x="398" y="650" type="line"/>
      <point x="398" y="388" type="line"/>
      <point x="380" y="384"/>
      <point x="360" y="382"/>
      <point x="326" y="382" type="curve" smooth="yes"/>
      <point x="254" y="382"/>
      <point x="226" y="412"/>
      <point x="226" y="494" type="curve" smooth="yes"/>
      <point x="226" y="650" type="line"/>
      <point x="58" y="650" type="line"/>
      <point x="58" y="494" type="line" smooth="yes"/>
      <point x="58" y="312"/>
      <point x="152" y="246"/>
      <point x="308" y="246" type="curve" smooth="yes"/>
      <point x="348" y="246"/>
      <point x="370" y="248"/>
      <point x="398" y="252" type="curve"/>
    </contour>
    <contour>
      <point x="314" y="672" type="move" name="aboveUC"/>
    </contour>
  </outline>
</glyph>
<glyph name="Che.sc" format="1">
  <advance width="587"/>
  <outline>
    <contour>
      <point x="346" y="0" type="line"/>
      <point x="516" y="0" type="line"/>
      <point x="516" y="531" type="line"/>
      <point x="346" y="531" type="line"/>
      <point x="346" y="330" type="line"/>
      <point x="329" y="320"/>
      <point x="312" y="319"/>
      <point x="295" y="319" type="curve" smooth="yes"/>
      <point x="244" y="319"/>
      <point x="223" y="347"/>
      <point x="223" y="401" type="curve"/>
      <point x="223" y="531" type="line"/>
      <point x="58" y="531" type="line"/>
      <point x="58" y="401" type="line"/>
      <point x="58" y="249"/>
      <point x="149" y="187"/>
      <point x="277" y="187" type="curve"/>
      <point x="300" y="187"/>
      <point x="318" y="189"/>
      <point x="346" y="197" type="curve"/>
    </contour>
  </outline>
</glyph>
<glyph name="Chedescender" format="1">
  <advance width="626"/>
  <outline>
    <contour>
      <point x="412" y="0" type="line"/>
      <point x="440" y="0" type="line"/>
      <point x="440" y="-188" type="line"/>
      <point x="590" y="-188" type="line"/>
      <point x="604" y="36" type="line"/>
      <point x="604" y="144" type="line"/>
      <point x="412" y="144" type="line"/>
    </contour>
    <component base="Che" xOffset="-48"/>
  </outline>
</glyph>
<glyph name="Chedescender.sc" format="1">
  <advance width="560"/>
  <outline>
    <contour>
      <point x="388" y="-172" type="line"/>
      <point x="536" y="-172" type="line"/>
      <point x="552" y="24" type="line"/>
      <point x="552" y="142" type="line"/>
      <point x="360" y="142" type="line"/>
      <point x="360" y="0" type="line"/>
      <point x="388" y="0" type="line"/>
    </contour>
    <component base="Che.sc" xOffset="-48"/>
  </outline>
</glyph>
<glyph name="D.sups" format="1">
  <advance width="433"/>
  <outline>
    <contour>
      <point x="47" y="260" type="line"/>
      <point x="184" y="260" type="line" smooth="yes"/>
      <point x="312" y="260"/>
      <point x="404" y="325"/>
      <point x="404" y="480" type="curve" smooth="yes"/>
      <point x="404" y="632"/>
      <point x="312" y="692"/>
      <point x="177" y="692" type="curve" smooth="yes"/>
      <point x="47" y="692" type="line"/>
    </contour>
    <contour>
      <point x="167" y="355" type="line"/>
      <point x="167" y="597" type="line"/>
      <point x="173" y="597" type="line" smooth="yes"/>
      <point x="235" y="597"/>
      <point x="281" y="580"/>
      <point x="281" y="478" type="curve" smooth="yes"/>
      <point x="281" y="379"/>
      <point x="235" y="355"/>
      <point x="173" y="355" type="curve" smooth="yes"/>
    </contour>
  </outline>
</glyph>
<glyph name="De.sc" format="1">
  <advance width="589"/>
  <outline>
    <contour>
      <point x="339" y="0" type="line"/>
      <point x="509" y="0" type="line"/>
      <point x="509" y="531" type="line"/>
      <point x="111" y="531" type="line"/>
      <point x="111" y="346" type="line" smooth="yes"/>
      <point x="111" y="315"/>
      <point x="108" y="273"/>
      <point x="97" y="229" type="curve" smooth="yes"/>
      <point x="85" y="184"/>
      <point x="63" y="149"/>
      <point x="29" y="141" type="curve"/>
      <point x="27" y="47" type="line"/>
      <point x="165" y="52"/>
      <point x="232" y="115"/>
      <point x="250" y="199" type="curve" smooth="yes"/>
      <point x="261" y="253"/>
      <point x="267" y="326"/>
      <point x="267" y="366" type="curve" smooth="yes"/>
      <point x="267" y="390" type="line"/>
      <point x="339" y="390" type="line"/>
    </contour>
    <contour>
      <point x="19" y="-157" type="line"/>
      <point x="163" y="-157" type="line"/>
      <point x="163" y="0" type="line"/>
      <point x="563" y="0" type="line"/>
      <point x="563" y="141" type="line"/>
      <point x="2" y="141" type="line"/>
      <point x="2" y="22" type="line"/>
    </contour>
    <contour>
      <point x="420" y="-157" type="line"/>
      <point x="564" y="-157" type="line"/>
      <point x="581" y="22" type="line"/>
      <point x="581" y="141" type="line"/>
      <point x="30" y="141" type="line"/>
      <point x="30" y="0" type="line"/>
      <point x="420" y="0" type="line"/>
    </contour>
  </outline>
</glyph>
<glyph name="Delta.math" format="1">
  <advance width="672"/>
  <outline>
    <contour>
      <point x="36" y="0" type="line"/>
      <point x="636" y="0" type="line"/>
      <point x="636" y="104" type="line"/>
      <point x="440" y="660" type="line"/>
      <point x="232" y="660" type="line"/>
      <point x="36" y="104" type="line"/>
    </contour>
    <contour>
      <point x="230" y="144" type="line"/>
      <point x="294" y="344" type="line"/>
      <point x="334" y="502" type="line"/>
      <point x="338" y="502" type="line"/>
      <point x="378" y="344" type="line"/>
      <point x="442" y="144" type="line"/>
    </contour>
  </outline>
</glyph>
<glyph name="Delta.sc" format="1">
  <advance width="592"/>
  <outline>
    <contour>
      <point x="36" y="0" type="line"/>
      <point x="556" y="0" type="line"/>
      <point x="556" y="102" type="line"/>
      <point x="399" y="531" type="line"/>
      <point x="193" y="531" type="line"/>
      <point x="36" y="102" type="line"/>
    </contour>
    <contour>
      <point x="217" y="141" type="line"/>
      <point x="252" y="262" type="line"/>
      <point x="290" y="410" type="line"/>
      <point x="294" y="410" type="line"/>
      <point x="334" y="262" type="line"/>
      <point x="371" y="141" type="line"/>
    </contour>
  </outline>
</glyph>
<glyph name="Dje" format="1">
  <advance width="726"/>
  <outline>
    <contour>
      <point x="478" y="-12" type="curve" smooth="yes"/>
      <point x="594" y="-12"/>
      <point x="672" y="49"/>
      <point x="672" y="192" type="curve" smooth="yes"/>
      <point x="672" y="350"/>
      <point x="556" y="410"/>
      <point x="438" y="410" type="curve" smooth="yes"/>
      <point x="392" y="410"/>
      <point x="378" y="408"/>
      <point x="348" y="404" type="curve"/>
      <point x="348" y="506" type="line"/>
      <point x="546" y="506" type="line"/>
      <point x="546" y="650" type="line"/>
      <point x="24" y="650" type="line"/>
      <point x="24" y="506" type="line"/>
      <point x="176" y="506" type="line"/>
      <point x="176" y="0" type="line"/>
      <point x="348" y="0" type="line"/>
      <point x="348" y="268" type="line"/>
      <point x="368" y="272"/>
      <point x="380" y="274"/>
      <point x="412" y="274" type="curve" smooth="yes"/>
      <point x="472" y="274"/>
      <point x="504" y="246"/>
      <point x="504" y="190" type="curve" smooth="yes"/>
      <point x="504" y="144"/>
      <point x="478" y="124"/>
      <point x="456" y="124" type="curve" smooth="yes"/>
      <point x="448" y="124"/>
      <point x="444" y="124"/>
      <point x="434" y="128" type="curve"/>
      <point x="408" y="-2" type="line"/>
      <point x="428" y="-10"/>
      <point x="450" y="-12"/>
    </contour>
  </outline>
</glyph>
<glyph name="Dje.sc" format="1">
  <advance width="653"/>
  <outline>
    <contour>
      <point x="24" y="391" type="line"/>
      <point x="459" y="391" type="line"/>
      <point x="459" y="532" type="line"/>
      <point x="24" y="532" type="line"/>
    </contour>
    <contour>
      <point x="148" y="0" type="line"/>
      <point x="318" y="0" type="line"/>
      <point x="318" y="200" type="line"/>
      <point x="331" y="208"/>
      <point x="347" y="211"/>
      <point x="360" y="211" type="curve" smooth="yes"/>
      <point x="417" y="211"/>
      <point x="434" y="180"/>
      <point x="434" y="116" type="curve" smooth="yes"/>
      <point x="434" y="-9"/>
      <point x="410" y="-25"/>
      <point x="387" y="-25" type="curve" smooth="yes"/>
      <point x="374" y="-25"/>
      <point x="359" y="-24"/>
      <point x="350" y="-19" type="curve"/>
      <point x="321" y="-139" type="line"/>
      <point x="339" y="-152"/>
      <point x="368" y="-157"/>
      <point x="407" y="-157" type="curve" smooth="yes"/>
      <point x="525" y="-157"/>
      <point x="599" y="-60"/>
      <point x="599" y="116" type="curve" smooth="yes"/>
      <point x="599" y="282"/>
      <point x="511" y="343"/>
      <point x="379" y="343" type="curve" smooth="yes"/>
      <point x="359" y="343"/>
      <point x="343" y="341"/>
      <point x="318" y="333" type="curve"/>
      <point x="318" y="531" type="line"/>
      <point x="148" y="531" type="line"/>
    </contour>
  </outline>
</glyph>
<glyph name="El" format="1">
  <advance width="668"/>
  <outline>
    <contour>
      <point x="-14" y="-2" type="line"/>
      <point x="8" y="-10"/>
      <point x="30" y="-12"/>
      <point x="70" y="-12" type="curve" smooth="yes"/>
      <point x="184" y="-12"/>
      <point x="242" y="52"/>
      <point x="286" y="278" type="curve" smooth="yes"/>
      <point x="300" y="352"/>
      <point x="314" y="424"/>
      <point x="328" y="506" type="curve"/>
      <point x="424" y="506" type="line"/>
      <point x="424" y="0" type="line"/>
      <point x="596" y="0" type="line"/>
      <point x="596" y="650" type="line"/>
      <point x="196" y="650" type="line"/>
      <point x="174" y="532"/>
      <point x="154" y="412"/>
      <point x="128" y="296" type="curve" smooth="yes"/>
      <point x="98" y="162"/>
      <point x="76" y="148"/>
      <point x="44" y="148" type="curve" smooth="yes"/>
      <point x="32" y="148"/>
      <point x="24" y="150"/>
      <point x="16" y="152" type="curve"/>
    </contour>
  </outline>
</glyph>
<glyph name="El.sc" format="1">
  <advance width="611"/>
  <outline>
    <contour>
      <point x="74" y="-10" type="curve" smooth="yes"/>
      <point x="194" y="-10"/>
      <point x="256" y="46"/>
      <point x="281" y="170" type="curve" smooth="yes"/>
      <point x="292" y="227"/>
      <point x="296" y="322"/>
      <point x="296" y="366" type="curve" smooth="yes"/>
      <point x="296" y="390" type="line"/>
      <point x="370" y="390" type="line"/>
      <point x="370" y="0" type="line"/>
      <point x="539" y="0" type="line"/>
      <point x="539" y="531" type="line"/>
      <point x="141" y="531" type="line"/>
      <point x="141" y="346" type="line" smooth="yes"/>
      <point x="141" y="312"/>
      <point x="137" y="247"/>
      <point x="126" y="202" type="curve" smooth="yes"/>
      <point x="112" y="149"/>
      <point x="90" y="146"/>
      <point x="56" y="146" type="curve" smooth="yes"/>
      <point x="47" y="146"/>
      <point x="35" y="150"/>
      <point x="29" y="151" type="curve"/>
      <point x="0" y="1" type="line"/>
      <point x="19" y="-6"/>
      <point x="37" y="-10"/>
    </contour>
  </outline>
</glyph>
<glyph name="Endescender.sc" format="1">
  <advance width="700"/>
  <outline>
    <contour>
      <point x="524" y="-188" type="line"/>
      <point x="678" y="-188" type="line"/>
      <point x="692" y="36" type="line"/>
      <point x="692" y="144" type="line"/>
      <point x="500" y="144" type="line"/>
      <point x="500" y="0" type="line"/>
      <point x="524" y="0" type="line"/>
    </contour>
    <component base="H"/>
  </outline>
</glyph>
<glyph name="Esdescender.sc" format="1">
  <advance width="586"/>
  <outline>
    <contour>
      <point x="272" y="-188" type="line"/>
      <point x="426" y="-188" type="line"/>
      <point x="440" y="24" type="line"/>
      <point x="272" y="0" type="line"/>
    </contour>
    <component base="C"/>
  </outline>
</glyph>
<glyph name="Eth" format="1">
  <advance width="668"/>
  <outline>
    <contour>
      <point x="24" y="294" type="line"/>
      <point x="386" y="294" type="line"/>
      <point x="386" y="374" type="line"/>
      <point x="100" y="374" type="line"/>
      <point x="24" y="368" type="line"/>
    </contour>
    <component base="D" xOffset="26"/>
  </outline>
</glyph>
<glyph name="F" format="1">
  <advance width="536"/>
  <outline>
    <contour>
      <point x="72" y="0" type="line"/>
      <point x="244" y="0" type="line"/>
      <point x="244" y="238" type="line"/>
      <point x="460" y="238" type="line"/>
      <point x="460" y="382" type="line"/>
      <point x="244" y="382" type="line"/>
      <point x="244" y="506" type="line"/>
      <point x="496" y="506" type="line"/>
      <point x="496" y="650" type="line"/>
      <point x="72" y="650" type="line"/>
    </contour>
    <contour>
      <point x="290" y="672" type="move" name="aboveUC"/>
    </contour>
    <contour>
      <point x="168" y="-22" type="move" name="belowLC"/>
    </contour>
  </outline>
</glyph>
<glyph name="F.sc" format="1">
  <advance width="488"/>
  <outline>
    <contour>
      <point x="72" y="0" type="line"/>
      <point x="244" y="0" type="line"/>
      <point x="244" y="180" type="line"/>
      <point x="420" y="180" type="line"/>
      <point x="420" y="308" type="line"/>
      <point x="244" y="308" type="line"/>
      <point x="244" y="392" type="line"/>
      <point x="448" y="392" type="line"/>
      <point x="448" y="532" type="line"/>
      <point x="72" y="532" type="line"/>
    </contour>
    <contour>
      <point x="271" y="564" type="move" name="aboveUC"/>
    </contour>
    <contour>
      <point x="168" y="-22" type="move" name="belowLC"/>
    </contour>
  </outline>
</glyph>
<glyph name="F.sups" format="1">
  <advance width="363"/>
  <outline>
    <contour>
      <point x="47" y="260" type="line"/>
      <point x="167" y="260" type="line"/>
      <point x="167" y="415" type="line"/>
      <point x="312" y="415" type="line"/>
      <point x="312" y="514" type="line"/>
      <point x="167" y="514" type="line"/>
      <point x="167" y="593" type="line"/>
      <point x="336" y="593" type="line"/>
      <point x="336" y="692" type="line"/>
      <point x="47" y="692" type="line"/>
    </contour>
  </outline>
</glyph>
<glyph name="Fita.sc" format="1">
  <advance width="626"/>
  <outline>
    <contour>
      <point x="167" y="206" type="line"/>
      <point x="480" y="206" type="line"/>
      <point x="480" y="330" type="line"/>
      <point x="167" y="330" type="line"/>
    </contour>
    <component base="O.sc"/>
  </outline>
</glyph>
<glyph name="G.sc" format="1">
  <advance width="586"/>
  <outline>
    <contour>
      <point x="324" y="564" type="move" name="aboveUC"/>
    </contour>
    <contour>
      <point x="328" y="-22" type="move" name="belowLC"/>
    </contour>
    <contour>
      <point x="44" y="261" type="curve" smooth="yes"/>
      <point x="44" y="74"/>
      <point x="176" y="-12"/>
      <point x="333" y="-12" type="curve" smooth="yes"/>
      <point x="412" y="-12"/>
      <point x="489" y="16"/>
      <point x="532" y="55" type="curve"/>
      <point x="532" y="316" type="line"/>
      <point x="308" y="316" type="line"/>
      <point x="308" y="198" type="line"/>
      <point x="382" y="198" type="line"/>
      <point x="382" y="132" type="line"/>
      <point x="372" y="126"/>
      <point x="360" y="124"/>
      <point x="346" y="124" type="curve" smooth="yes"/>
      <point x="256" y="124"/>
      <point x="218" y="176"/>
      <point x="218" y="261" type="curve" smooth="yes"/>
      <point x="218" y="355"/>
      <point x="270" y="405"/>
      <point x="337" y="405" type="curve" smooth="yes"/>
      <point x="376" y="405"/>
      <point x="400" y="394"/>
      <point x="428" y="370" type="curve"/>
      <point x="520" y="470" type="line"/>
      <point x="478" y="510"/>
      <point x="415" y="544"/>
      <point x="335" y="544" type="curve" smooth="yes"/>
      <point x="180" y="544"/>
      <point x="44" y="443"/>
    </contour>
  </outline>
</glyph>
<glyph name="Gamma.sc" format="1">
  <advance width="482"/>
  <outline>
    <contour>
      <point x="72" y="0" type="line"/>
      <point x="244" y="0" type="line"/>
      <point x="244" y="390" type="line"/>
      <point x="448" y="390" type="line"/>
      <point x="448" y="532" type="line"/>
      <point x="72" y="532" type="line"/>
    </contour>
  </outline>
</glyph>
<glyph name="Ghestroke.sc" format="1">
  <advance width="508"/>
  <outline>
    <contour>
      <point x="24" y="202" type="line"/>
      <point x="386" y="202" type="line"/>
      <point x="386" y="282" type="line"/>
      <point x="100" y="282" type="line"/>
      <point x="24" y="276" type="line"/>
    </contour>
    <component base="Ghe.sc" xOffset="26"/>
  </outline>
</glyph>
<glyph name="Gheup.sc" format="1">
  <advance width="482"/>
  <outline>
    <contour>
      <point x="256" y="390" type="line"/>
      <point x="448" y="390" type="line"/>
      <point x="458" y="696" type="line"/>
      <point x="314" y="696" type="line"/>
      <point x="291" y="524" type="line"/>
      <point x="256" y="524" type="line"/>
    </contour>
    <component base="Gamma.sc"/>
  </outline>
</glyph>
<glyph name="Ghook.sc" format="1">
  <advance width="586"/>
  <outline>
    <contour>
      <point x="44" y="261" type="curve" smooth="yes"/>
      <point x="44" y="74"/>
      <point x="176" y="-12"/>
      <point x="333" y="-12" type="curve" smooth="yes"/>
      <point x="412" y="-12"/>
      <point x="489" y="16"/>
      <point x="532" y="55" type="curve"/>
      <point x="532" y="316" type="line"/>
      <point x="308" y="316" type="line"/>
      <point x="308" y="198" type="line"/>
      <point x="382" y="198" type="line"/>
      <point x="382" y="132" type="line"/>
      <point x="372" y="126"/>
      <point x="360" y="124"/>
      <point x="346" y="124" type="curve" smooth="yes"/>
      <point x="256" y="124"/>
      <point x="218" y="176"/>
      <point x="218" y="261" type="curve" smooth="yes"/>
      <point x="218" y="355"/>
      <point x="270" y="405"/>
      <point x="337" y="405" type="curve" smooth="yes"/>
      <point x="376" y="405"/>
      <point x="400" y="396"/>
      <point x="428" y="378" type="curve"/>
      <point x="520" y="478" type="line"/>
      <point x="478" y="512"/>
      <point x="415" y="544"/>
      <point x="335" y="544" type="curve" smooth="yes"/>
      <point x="180" y="544"/>
      <point x="44" y="443"/>
    </contour>
    <contour>
      <point x="520" y="478" type="line"/>
      <point x="510" y="486"/>
      <point x="495" y="501"/>
      <point x="495" y="519" type="curve" smooth="yes"/>
      <point x="495" y="546"/>
      <point x="514" y="554"/>
      <point x="537" y="554" type="curve" smooth="yes"/>
      <point x="545" y="554"/>
      <point x="549" y="553"/>
      <point x="557" y="550" type="curve"/>
      <point x="588" y="670" type="line"/>
      <point x="566" y="678"/>
      <point x="542" y="684"/>
      <point x="498" y="684" type="curve" smooth="yes"/>
      <point x="404" y="684"/>
      <point x="353" y="617"/>
      <point x="353" y="545" type="curve" smooth="yes"/>
      <point x="353" y="523"/>
      <point x="367" y="493"/>
      <point x="375" y="471" type="curve"/>
    </contour>
  </outline>
</glyph>
<glyph name="H" format="1">
  <advance width="682"/>
  <outline>
    <contour>
      <point x="72" y="0" type="line"/>
      <point x="244" y="0" type="line"/>
      <point x="244" y="258" type="line"/>
      <point x="438" y="258" type="line"/>
      <point x="438" y="0" type="line"/>
      <point x="610" y="0" type="line"/>
      <point x="610" y="650" type="line"/>
      <point x="438" y="650" type="line"/>
      <point x="438" y="408" type="line"/>
      <point x="244" y="408" type="line"/>
      <point x="244" y="650" type="line"/>
      <point x="72" y="650" type="line"/>
    </contour>
    <contour>
      <point x="340" y="672" type="move" name="aboveUC"/>
    </contour>
    <contour>
      <point x="340" y="-22" type="move" name="belowLC"/>
    </contour>
  </outline>
</glyph>
<glyph name="H.sups" format="1">
  <advance width="459"/>
  <outline>
    <contour>
      <point x="47" y="368" type="line"/>
      <point x="167" y="368" type="line"/>
      <point x="167" y="538" type="line"/>
      <point x="293" y="538" type="line"/>
      <point x="293" y="368" type="line"/>
      <point x="413" y="368" type="line"/>
      <point x="413" y="800" type="line"/>
      <point x="293" y="800" type="line"/>
      <point x="293" y="641" type="line"/>
      <point x="167" y="641" type="line"/>
      <point x="167" y="800" type="line"/>
      <point x="47" y="800" type="line"/>
    </contour>
  </outline>
</glyph>
<glyph name="Hbar" format="1">
  <advance width="722"/>
  <outline>
    <contour>
      <point x="22.0" y="484.0" type="line"/>
      <point x="700.0" y="484.0" type="line"/>
      <point x="700.0" y="564.0" type="line"/>
      <point x="98.0" y="564.0" type="line"/>
      <point x="22.0" y="558.0" type="line"/>
    </contour>
    <component base="H" xOffset="20"/>
  </outline>
</glyph>
<glyph name="I" format="1">
  <advance width="316"/>
  <outline>
    <contour>
      <point x="72" y="0" type="line"/>
      <point x="244" y="0" type="line"/>
      <point x="244" y="650" type="line"/>
      <point x="72" y="650" type="line"/>
    </contour>
    <contour>
      <point x="158" y="672" type="move" name="aboveUC"/>
    </contour>
    <contour>
      <point x="158" y="-22" type="move" name="belowLC"/>
    </contour>
    <contour>
      <point x="140" y="0" type="move" name="ogonekUC"/>
    </contour>
  </outline>
</glyph>
<glyph name="I.sups" format="1">
  <advance width="213"/>
  <outline>
    <contour>
      <point x="47" y="260" type="line"/>
      <point x="167" y="260" type="line"/>
      <point x="167" y="692" type="line"/>
      <point x="47" y="692" type="line"/>
    </contour>
  </outline>
</glyph>
<glyph name="Ieukran.sc" format="1">
  <advance width="521"/>
  <outline>
    <contour>
      <point x="144" y="198" type="line"/>
      <point x="408" y="198" type="line"/>
      <point x="408" y="339" type="line"/>
      <point x="144" y="339" type="line"/>
    </contour>
    <contour>
      <point x="44" y="260" type="curve" smooth="yes"/>
      <point x="44" y="75"/>
      <point x="173" y="-10"/>
      <point x="316" y="-10" type="curve" smooth="yes"/>
      <point x="388" y="-10"/>
      <point x="455" y="16"/>
      <point x="504" y="69" type="curve"/>
      <point x="415" y="175" type="line"/>
      <point x="395" y="156"/>
      <point x="362" y="135"/>
      <point x="322" y="135" type="curve" smooth="yes"/>
      <point x="256" y="135"/>
      <point x="211" y="180"/>
      <point x="211" y="265" type="curve" smooth="yes"/>
      <point x="211" y="350"/>
      <point x="266" y="396"/>
      <point x="324" y="396" type="curve" smooth="yes"/>
      <point x="359" y="396"/>
      <point x="383" y="381"/>
      <point x="410" y="361" type="curve"/>
      <point x="499" y="469" type="line"/>
      <point x="457" y="508"/>
      <point x="395" y="541"/>
      <point x="320" y="541" type="curve" smooth="yes"/>
      <point x="179" y="541"/>
      <point x="44" y="441"/>
    </contour>
  </outline>
</glyph>
<glyph name="Iogonek" format="1">
  <advance width="316"/>
  <outline>
    <contour>
      <point x="72" y="0" type="line"/>
      <point x="119" y="0" type="line"/>
      <point x="91" y="-18"/>
      <point x="42" y="-64"/>
      <point x="42" y="-130" type="curve" smooth="yes"/>
      <point x="42" y="-192"/>
      <point x="96" y="-228"/>
      <point x="164" y="-228" type="curve" smooth="yes"/>
      <point x="202" y="-228"/>
      <point x="250" y="-212"/>
      <point x="278" y="-190" type="curve"/>
      <point x="240" y="-104" type="line"/>
      <point x="232" y="-110"/>
      <point x="218" y="-118"/>
      <point x="205" y="-118" type="curve" smooth="yes"/>
      <point x="186" y="-118"/>
      <point x="166" y="-108"/>
      <point x="166" y="-84" type="curve" smooth="yes"/>
      <point x="166" y="-52"/>
      <point x="186" y="-18"/>
      <point x="244" y="0" type="curve"/>
      <point x="244" y="650" type="line"/>
      <point x="72" y="650" type="line"/>
    </contour>
    <contour>
      <point x="158" y="672" type="move" name="aboveUC"/>
    </contour>
  </outline>
</glyph>
<glyph name="Ismall" format="1">
  <advance width="416"/>
  <outline>
    <contour>
      <point x="208" y="522" type="move" name="aboveLC"/>
    </contour>
    <contour>
      <point x="208" y="-22" type="move" name="belowLC"/>
    </contour>
    <contour>
      <point x="190" y="0" type="move" name="ogonekUC"/>
    </contour>
    <contour>
      <point x="54" y="0" type="line"/>
      <point x="362" y="0" type="line"/>
      <point x="362" y="134" type="line"/>
      <point x="294" y="134" type="line"/>
      <point x="294" y="366" type="line"/>
      <point x="362" y="366" type="line"/>
      <point x="362" y="500" type="line"/>
      <point x="54" y="500" type="line"/>
      <point x="54" y="366" type="line"/>
      <point x="122" y="366" type="line"/>
      <point x="122" y="134" type="line"/>
      <point x="54" y="134" type="line"/>
    </contour>
  </outline>
</glyph>
<glyph name="Izhitsa.sc" format="1">
  <advance width="524"/>
  <outline>
    <contour>
      <point x="150" y="0" type="line"/>
      <point x="363" y="0" type="line"/>
      <point x="451" y="340" type="line" smooth="yes"/>
      <point x="457" y="363"/>
      <point x="472" y="385"/>
      <point x="498" y="385" type="curve" smooth="yes"/>
      <point x="509" y="385"/>
      <point x="520" y="381"/>
      <point x="527" y="380" type="curve"/>
      <point x="556" y="530" type="line"/>
      <point x="536" y="537"/>
      <point x="519" y="541"/>
      <point x="480" y="541" type="curve" smooth="yes"/>
      <point x="380" y="541"/>
      <point x="332" y="490"/>
      <point x="302" y="372" type="curve" smooth="yes"/>
      <point x="289" y="320" type="line"/>
      <point x="276" y="265"/>
      <point x="269" y="210"/>
      <point x="258" y="155" type="curve"/>
      <point x="255" y="155" type="line"/>
      <point x="241" y="210"/>
      <point x="230" y="265"/>
      <point x="217" y="320" type="curve" smooth="yes"/>
      <point x="168" y="531" type="line"/>
      <point x="-11" y="531" type="line"/>
    </contour>
  </outline>
</glyph>
<glyph name="J.sc" format="1">
  <advance width="482"/>
  <outline>
    <contour>
      <point x="211" y="-12" type="curve" smooth="yes"/>
      <point x="346" y="-12"/>
      <point x="414" y="82"/>
      <point x="414" y="194" type="curve" smooth="yes"/>
      <point x="414" y="532" type="line"/>
      <point x="242" y="532" type="line"/>
      <point x="242" y="205" type="line" smooth="yes"/>
      <point x="242" y="143"/>
      <point x="221" y="130"/>
      <point x="190" y="130" type="curve" smooth="yes"/>
      <point x="167" y="130"/>
      <point x="141" y="149"/>
      <point x="124" y="180" type="curve"/>
      <point x="10" y="96" type="line"/>
      <point x="54" y="23"/>
      <point x="116" y="-12"/>
    </contour>
    <contour>
      <point x="322" y="564" type="move" name="aboveUC"/>
    </contour>
    <contour>
      <point x="232" y="-22" type="move" name="belowLC"/>
    </contour>
  </outline>
</glyph>
<glyph name="K.sups" format="1">
  <advance width="425"/>
  <outline>
    <contour>
      <point x="47" y="260" type="line"/>
      <point x="167" y="260" type="line"/>
      <point x="167" y="370" type="line"/>
      <point x="208" y="426" type="line"/>
      <point x="302" y="260" type="line"/>
      <point x="433" y="260" type="line"/>
      <point x="277" y="518" type="line"/>
      <point x="407" y="692" type="line"/>
      <point x="276" y="692" type="line"/>
      <point x="170" y="536" type="line"/>
      <point x="167" y="536" type="line"/>
      <point x="167" y="692" type="line"/>
      <point x="47" y="692" type="line"/>
    </contour>
  </outline>
</glyph>
<glyph name="Kabashkir.a" format="1">
  <advance width="754"/>
  <outline>
    <contour>
      <point x="24" y="506" type="line"/>
      <point x="196" y="506" type="line"/>
      <point x="368" y="650" type="line"/>
      <point x="24" y="650" type="line"/>
    </contour>
    <component base="Ka.a" xOffset="124"/>
  </outline>
</glyph>
<glyph name="Ka.sc" format="1">
  <advance width="569"/>
  <outline>
    <contour>
      <point x="72" y="0" type="line"/>
      <point x="241" y="0" type="line"/>
      <point x="241" y="198" type="line"/>
      <point x="279" y="198" type="line"/>
      <point x="391" y="0" type="line"/>
      <point x="575" y="0" type="line"/>
      <point x="394" y="294" type="line"/>
      <point x="566" y="531" type="line"/>
      <point x="377" y="531" type="line"/>
      <point x="263" y="341" type="line"/>
      <point x="241" y="341" type="line"/>
      <point x="241" y="531" type="line"/>
      <point x="72" y="531" type="line"/>
    </contour>
    <contour>
      <point x="312" y="554" type="move" name="aboveUC"/>
    </contour>
  </outline>
</glyph>
<glyph name="Kabashkir.b" format="1">
  <advance width="754"/>
  <outline>
    <contour>
      <point x="368" y="650" type="line"/>
      <point x="24" y="650" type="line"/>
      <point x="24" y="506" type="line"/>
      <point x="196" y="506" type="line"/>
    </contour>
    <component base="Ka.b" xOffset="124"/>
  </outline>
</glyph>
<glyph name="Kabashkir.sc" format="1">
  <advance width="688"/>
  <outline>
    <contour>
      <point x="346" y="532" type="curve"/>
      <point x="24" y="532" type="line"/>
      <point x="24" y="390" type="line"/>
      <point x="174" y="390" type="line"/>
      <point x="174" y="390"/>
      <point x="346" y="532"/>
    </contour>
    <component base="Ka.sc" xOffset="102"/>
  </outline>
</glyph>
<glyph name="Kadescender.b" format="1">
  <advance width="688"/>
  <outline>
    <contour>
      <point x="510" y="-192" type="line"/>
      <point x="656" y="-192" type="line"/>
      <point x="674" y="24" type="line"/>
      <point x="674" y="144" type="line"/>
      <point x="476" y="144" type="line"/>
      <point x="476" y="0" type="line"/>
      <point x="510" y="0" type="line"/>
    </contour>
    <component base="Ka.b"/>
  </outline>
</glyph>
<glyph name="Kadescender.sc" format="1">
  <advance width="682"/>
  <outline>
    <contour>
      <point x="506" y="-188" type="line"/>
      <point x="660" y="-188" type="line"/>
      <point x="674" y="36" type="line"/>
      <point x="674" y="144" type="line"/>
      <point x="476" y="144" type="line"/>
      <point x="476" y="0" type="line"/>
      <point x="506" y="0" type="line"/>
    </contour>
    <component base="Ka"/>
  </outline>
</glyph>
<glyph name="L" format="1">
  <advance width="530"/>
  <outline>
    <contour>
      <point x="72" y="0" type="line"/>
      <point x="490" y="0" type="line"/>
      <point x="490" y="144" type="line"/>
      <point x="244" y="144" type="line"/>
      <point x="244" y="650" type="line"/>
      <point x="72" y="650" type="line"/>
    </contour>
    <contour>
      <point x="162" y="672" type="move" name="aboveUC"/>
    </contour>
    <contour>
      <point x="291" y="-22" type="move" name="belowLC"/>
    </contour>
  </outline>
</glyph>
<glyph name="L.sc" format="1">
  <advance width="484"/>
  <outline>
    <contour>
      <point x="72" y="0" type="line"/>
      <point x="444" y="0" type="line"/>
      <point x="444" y="140" type="line"/>
      <point x="244" y="140" type="line"/>
      <point x="244" y="532" type="line"/>
      <point x="72" y="532" type="line"/>
    </contour>
    <contour>
      <point x="162" y="564" type="move" name="aboveUC"/>
    </contour>
    <contour>
      <point x="266" y="-22" type="move" name="belowLC"/>
    </contour>
  </outline>
</glyph>
<glyph name="L.sups" format="1">
  <advance width="359"/>
  <outline>
    <contour>
      <point x="47" y="260" type="line"/>
      <point x="332" y="260" type="line"/>
      <point x="332" y="359" type="line"/>
      <point x="167" y="359" type="line"/>
      <point x="167" y="692" type="line"/>
      <point x="47" y="692" type="line"/>
    </contour>
  </outline>
</glyph>
<glyph name="Lambda.sc" format="1">
  <advance width="505"/>
  <outline>
    <contour>
      <point x="-11" y="0" type="line"/>
      <point x="162" y="0" type="line"/>
      <point x="210" y="211" type="line" smooth="yes"/>
      <point x="222" y="265"/>
      <point x="233" y="321"/>
      <point x="247" y="376" type="curve"/>
      <point x="251" y="376" type="line"/>
      <point x="265" y="321"/>
      <point x="276" y="265"/>
      <point x="288" y="211" type="curve" smooth="yes"/>
      <point x="338" y="0" type="line"/>
      <point x="517" y="0" type="line"/>
      <point x="356" y="531" type="line"/>
      <point x="150" y="531" type="line"/>
    </contour>
  </outline>
</glyph>
<glyph name="Lje.sc" format="1">
  <advance width="839"/>
  <outline>
    <contour>
      <point x="370" y="0" type="line"/>
      <point x="580" y="0" type="line" smooth="yes"/>
      <point x="698" y="0"/>
      <point x="806" y="45"/>
      <point x="806" y="186" type="curve" smooth="yes"/>
      <point x="806" y="309"/>
      <point x="694" y="359"/>
      <point x="580" y="359" type="curve" smooth="yes"/>
      <point x="539" y="359" type="line"/>
      <point x="539" y="531" type="line"/>
      <point x="370" y="531" type="line"/>
    </contour>
    <contour>
      <point x="539" y="133" type="line"/>
      <point x="539" y="226" type="line"/>
      <point x="573" y="226" type="line" smooth="yes"/>
      <point x="620" y="226"/>
      <point x="641" y="209"/>
      <point x="641" y="184" type="curve" smooth="yes"/>
      <point x="641" y="148"/>
      <point x="616" y="133"/>
      <point x="573" y="133" type="curve" smooth="yes"/>
    </contour>
    <component base="El.sc"/>
  </outline>
</glyph>
<glyph name="Lslash" format="1">
  <advance width="538"/>
  <outline>
    <contour>
      <point x="10" y="156" type="line"/>
      <point x="99" y="210" type="line"/>
      <point x="235" y="268" type="line"/>
      <point x="420" y="372" type="line"/>
      <point x="420" y="504" type="line"/>
      <point x="235" y="400" type="line"/>
      <point x="99" y="342" type="line"/>
      <point x="10" y="288" type="line"/>
    </contour>
    <component base="L" xOffset="8"/>
  </outline>
</glyph>
<glyph name="Lslash.sc" format="1">
  <advance width="484"/>
  <outline>
    <contour>
      <point x="235" y="208" type="line"/>
      <point x="390" y="294" type="line"/>
      <point x="390" y="420" type="line"/>
      <point x="235" y="334" type="line"/>
      <point x="99" y="276" type="line"/>
      <point x="10" y="222" type="line"/>
      <point x="10" y="96" type="line"/>
      <point x="99" y="150" type="line"/>
    </contour>
    <component base="L.sc" xOffset="8"/>
  </outline>
</glyph>
<glyph name="Lsmall" format="1">
  <advance width="440"/>
  <outline>
    <contour>
      <point x="58" y="0" type="line"/>
      <point x="414" y="0" type="line"/>
      <point x="414" y="134" type="line"/>
      <point x="230" y="134" type="line"/>
      <point x="230" y="500" type="line"/>
      <point x="58" y="500" type="line"/>
    </contour>
    <contour>
      <point x="148" y="564" type="move" name="aboveUC"/>
    </contour>
    <contour>
      <point x="252" y="-22" type="move" name="belowLC"/>
    </contour>
  </outline>
</glyph>
<glyph name="M" format="1">
  <advance width="776"/>
  <outline>
    <contour>
      <point x="72" y="0" type="line"/>
      <point x="230" y="0" type="line"/>
      <point x="230" y="192" type="line" smooth="yes"/>
      <point x="230" y="258"/>
      <point x="216" y="359"/>
      <point x="208" y="424" type="curve"/>
      <point x="212" y="424" type="line"/>
      <point x="264" y="272" type="line"/>
      <point x="354" y="53" type="line"/>
      <point x="418" y="53" type="line"/>
      <point x="508" y="272" type="line"/>
      <point x="562" y="424" type="line"/>
      <point x="566" y="424" type="line"/>
      <point x="558" y="359"/>
      <point x="544" y="258"/>
      <point x="544" y="192" type="curve" smooth="yes"/>
      <point x="544" y="0" type="line"/>
      <point x="704" y="0" type="line"/>
      <point x="704" y="650" type="line"/>
      <point x="526" y="650" type="line"/>
      <point x="428" y="380" type="line"/>
      <point x="392" y="274" type="line"/>
      <point x="388" y="274" type="line"/>
      <point x="352" y="380" type="line"/>
      <point x="250" y="650" type="line"/>
      <point x="72" y="650" type="line"/>
    </contour>
    <contour>
      <point x="388" y="672" type="move" name="aboveUC"/>
    </contour>
    <contour>
      <point x="390" y="-22" type="move" name="belowLC"/>
    </contour>
  </outline>
</glyph>
<glyph name="M.sc" format="1">
  <advance width="700"/>
  <outline>
    <contour>
      <point x="72" y="0" type="line"/>
      <point x="226" y="0" type="line"/>
      <point x="226" y="106" type="line" smooth="yes"/>
      <point x="226" y="163"/>
      <point x="212" y="262"/>
      <point x="204" y="318" type="curve"/>
      <point x="208" y="318" type="line"/>
      <point x="258" y="192" type="line"/>
      <point x="323" y="39" type="line"/>
      <point x="375" y="39" type="line"/>
      <point x="440" y="192" type="line"/>
      <point x="492" y="318" type="line"/>
      <point x="496" y="318" type="line"/>
      <point x="488" y="262"/>
      <point x="474" y="163"/>
      <point x="474" y="106" type="curve" smooth="yes"/>
      <point x="474" y="0" type="line"/>
      <point x="628" y="0" type="line"/>
      <point x="628" y="532" type="line"/>
      <point x="457" y="532" type="line"/>
      <point x="384" y="336" type="line"/>
      <point x="354" y="252" type="line"/>
      <point x="350" y="252" type="line"/>
      <point x="320" y="336" type="line"/>
      <point x="244" y="532" type="line"/>
      <point x="72" y="532" type="line"/>
    </contour>
    <contour>
      <point x="350" y="564" type="move" name="aboveUC"/>
    </contour>
    <contour>
      <point x="350" y="-22" type="move" name="belowLC"/>
    </contour>
  </outline>
</glyph>
<glyph name="M.sups" format="1">
  <advance width="525"/>
  <outline>
    <contour>
      <point x="47" y="260" type="line"/>
      <point x="157" y="260" type="line"/>
      <point x="157" y="382" type="line" smooth="yes"/>
      <point x="157" y="427"/>
      <point x="147" y="496"/>
      <point x="142" y="536" type="curve"/>
      <point x="144" y="536" type="line"/>
      <point x="181" y="436" type="line"/>
      <point x="240" y="296" type="line"/>
      <point x="283" y="296" type="line"/>
      <point x="342" y="436" type="line"/>
      <point x="380" y="536" type="line"/>
      <point x="383" y="536" type="line"/>
      <point x="377" y="496"/>
      <point x="367" y="427"/>
      <point x="367" y="382" type="curve" smooth="yes"/>
      <point x="367" y="260" type="line"/>
      <point x="479" y="260" type="line"/>
      <point x="479" y="692" type="line"/>
      <point x="354" y="692" type="line"/>
      <point x="290" y="517" type="line"/>
      <point x="267" y="448" type="line"/>
      <point x="264" y="448" type="line"/>
      <point x="240" y="517" type="line"/>
      <point x="170" y="692" type="line"/>
      <point x="47" y="692" type="line"/>
    </contour>
  </outline>
</glyph>
<glyph name="N.sc" format="1">
  <advance width="614"/>
  <outline>
    <contour>
      <point x="72" y="0" type="line"/>
      <point x="230" y="0" type="line"/>
      <point x="230" y="107" type="line" smooth="yes"/>
      <point x="230" y="176"/>
      <point x="216" y="269"/>
      <point x="208" y="332" type="curve"/>
      <point x="212" y="332" type="line"/>
      <point x="269" y="202" type="line"/>
      <point x="374" y="0" type="line"/>
      <point x="542" y="0" type="line"/>
      <point x="542" y="532" type="line"/>
      <point x="384" y="532" type="line"/>
      <point x="384" y="424" type="line" smooth="yes"/>
      <point x="384" y="355"/>
      <point x="398" y="258"/>
      <point x="406" y="200" type="curve"/>
      <point x="402" y="200" type="line"/>
      <point x="345" y="331" type="line"/>
      <point x="244" y="532" type="line"/>
      <point x="72" y="532" type="line"/>
    </contour>
    <contour>
      <point x="316" y="564" type="move" name="aboveUC"/>
    </contour>
    <contour>
      <point x="312" y="-22" type="move" name="belowLC"/>
    </contour>
  </outline>
</glyph>
<glyph name="N.sups" format="1">
  <advance width="452"/>
  <outline>
    <contour>
      <point x="47" y="260" type="line"/>
      <point x="159" y="260" type="line"/>
      <point x="159" y="380" type="line" smooth="yes"/>
      <point x="159" y="432"/>
      <point x="152" y="495"/>
      <point x="146" y="545" type="curve"/>
      <point x="149" y="545" type="line"/>
      <point x="190" y="449" type="line"/>
      <point x="281" y="260" type="line"/>
      <point x="406" y="260" type="line"/>
      <point x="406" y="692" type="line"/>
      <point x="294" y="692" type="line"/>
      <point x="294" y="575" type="line" smooth="yes"/>
      <point x="294" y="521"/>
      <point x="301" y="455"/>
      <point x="307" y="407" type="curve"/>
      <point x="304" y="407" type="line"/>
      <point x="263" y="506" type="line"/>
      <point x="172" y="692" type="line"/>
      <point x="47" y="692" type="line"/>
    </contour>
  </outline>
</glyph>
<glyph name="Nje.sc" format="1">
  <advance width="851"/>
  <outline>
    <contour>
      <point x="388" y="0" type="line"/>
      <point x="598" y="0" type="line" smooth="yes"/>
      <point x="716" y="0"/>
      <point x="824" y="45"/>
      <point x="824" y="186" type="curve" smooth="yes"/>
      <point x="824" y="309"/>
      <point x="712" y="359"/>
      <point x="598" y="359" type="curve" smooth="yes"/>
      <point x="558" y="359" type="line"/>
      <point x="558" y="532" type="line"/>
      <point x="388" y="532" type="line"/>
    </contour>
    <contour>
      <point x="558" y="133" type="line"/>
      <point x="558" y="226" type="line"/>
      <point x="592" y="226" type="line" smooth="yes"/>
      <point x="638" y="226"/>
      <point x="659" y="209"/>
      <point x="659" y="184" type="curve" smooth="yes"/>
      <point x="659" y="148"/>
      <point x="634" y="133"/>
      <point x="592" y="133" type="curve" smooth="yes"/>
    </contour>
    <component base="H.sc"/>
  </outline>
</glyph>
<glyph name="Nu.sc" format="1">
  <advance width="614"/>
  <outline>
    <component base="N.sc"/>
    <contour>
      <point x="316" y="564" type="move" name="aboveLC"/>
    </contour>
    <contour>
      <point x="312" y="-22" type="move" name="belowLC"/>
    </contour>
  </outline>
</glyph>
<glyph name="O" format="1">
  <advance width="692"/>
  <outline>
    <contour>
      <point x="346" y="-12" type="curve" smooth="yes"/>
      <point x="526" y="-12"/>
      <point x="648" y="114"/>
      <point x="648" y="328" type="curve" smooth="yes"/>
      <point x="648" y="541"/>
      <point x="526" y="662"/>
      <point x="346" y="662" type="curve" smooth="yes"/>
      <point x="166" y="662"/>
      <point x="44" y="542"/>
      <point x="44" y="328" type="curve" smooth="yes"/>
      <point x="44" y="114"/>
      <point x="166" y="-12"/>
    </contour>
    <contour>
      <point x="346" y="136" type="curve" smooth="yes"/>
      <point x="268" y="136"/>
      <point x="220" y="210"/>
      <point x="220" y="328" type="curve" smooth="yes"/>
      <point x="220" y="446"/>
      <point x="268" y="514"/>
      <point x="346" y="514" type="curve" smooth="yes"/>
      <point x="424" y="514"/>
      <point x="472" y="446"/>
      <point x="472" y="328" type="curve" smooth="yes"/>
      <point x="472" y="210"/>
      <point x="424" y="136"/>
    </contour>
    <contour>
      <point x="346" y="672" type="move" name="aboveUC"/>
    </contour>
    <contour>
      <point x="346" y="-22" type="move" name="belowLC"/>
    </contour>
    <contour>
      <point x="346" y="0" type="move" name="ogonekUC"/>
    </contour>
    <contour>
      <point x="490" y="640" type="move" name="hornLC"/>
    </contour>
  </outline>
</glyph>
<glyph name="O.sups" format="1">
  <advance width="468"/>
  <outline>
    <contour>
      <point x="234" y="252" type="curve" smooth="yes"/>
      <point x="355" y="252"/>
      <point x="439" y="337"/>
      <point x="439" y="478" type="curve" smooth="yes"/>
      <point x="439" y="619"/>
      <point x="355" y="700"/>
      <point x="234" y="700" type="curve" smooth="yes"/>
      <point x="111" y="700"/>
      <point x="29" y="620"/>
      <point x="29" y="478" type="curve" smooth="yes"/>
      <point x="29" y="337"/>
      <point x="111" y="252"/>
    </contour>
    <contour>
      <point x="234" y="354" type="curve" smooth="yes"/>
      <point x="182" y="354"/>
      <point x="152" y="403"/>
      <point x="152" y="478" type="curve" smooth="yes"/>
      <point x="152" y="554"/>
      <point x="182" y="597"/>
      <point x="234" y="597" type="curve" smooth="yes"/>
      <point x="284" y="597"/>
      <point x="316" y="554"/>
      <point x="316" y="478" type="curve" smooth="yes"/>
      <point x="316" y="403"/>
      <point x="284" y="354"/>
    </contour>
  </outline>
</glyph>
<glyph name="Ohorn" format="1">
  <advance width="692"/>
  <outline>
    <contour>
      <point x="562" y="576" type="line"/>
      <point x="628" y="594"/>
      <point x="672" y="633"/>
      <point x="672" y="702" type="curve" smooth="yes"/>
      <point x="672" y="738"/>
      <point x="656" y="770"/>
      <point x="640" y="788" type="curve"/>
      <point x="524" y="738" type="line"/>
      <point x="531" y="727"/>
      <point x="540" y="710"/>
      <point x="540" y="690" type="curve" smooth="yes"/>
      <point x="540" y="652"/>
      <point x="520" y="640"/>
      <point x="486" y="630" type="curve"/>
    </contour>
    <component base="O"/>
    <contour>
      <point x="346" y="672" type="move" name="aboveUC"/>
    </contour>
    <contour>
      <point x="346" y="-22" type="move" name="belowLC"/>
    </contour>
  </outline>
</glyph>
<glyph name="Ohorn.sc" format="1">
  <advance width="626"/>
  <outline>
    <contour>
      <point x="314" y="-12" type="curve" smooth="yes"/>
      <point x="473" y="-12"/>
      <point x="582" y="91"/>
      <point x="582" y="269" type="curve" smooth="yes"/>
      <point x="582" y="446"/>
      <point x="473" y="544"/>
      <point x="314" y="544" type="curve" smooth="yes"/>
      <point x="153" y="544"/>
      <point x="44" y="447"/>
      <point x="44" y="269" type="curve" smooth="yes"/>
      <point x="44" y="91"/>
      <point x="153" y="-12"/>
    </contour>
    <contour>
      <point x="314" y="128" type="curve" smooth="yes"/>
      <point x="254" y="128"/>
      <point x="220" y="182"/>
      <point x="220" y="269" type="curve" smooth="yes"/>
      <point x="220" y="356"/>
      <point x="254" y="404"/>
      <point x="314" y="404" type="curve" smooth="yes"/>
      <point x="372" y="404"/>
      <point x="406" y="356"/>
      <point x="406" y="269" type="curve" smooth="yes"/>
      <point x="406" y="182"/>
      <point x="372" y="128"/>
    </contour>
    <contour>
      <point x="450" y="436" type="line"/>
      <point x="547" y="440"/>
      <point x="630" y="480"/>
      <point x="630" y="574" type="curve" smooth="yes"/>
      <point x="630" y="610"/>
      <point x="614" y="642"/>
      <point x="598" y="660" type="curve"/>
      <point x="482" y="610" type="line"/>
      <point x="489" y="599"/>
      <point x="498" y="582"/>
      <point x="498" y="562" type="curve" smooth="yes"/>
      <point x="498" y="520"/>
      <point x="472" y="509"/>
      <point x="438" y="502" type="curve"/>
    </contour>
    <contour>
      <point x="312" y="564" type="move" name="aboveUC"/>
    </contour>
    <contour>
      <point x="313" y="-22" type="move" name="belowLC"/>
    </contour>
    <contour>
      <point x="312" y="0" type="move" name="ogonekUC"/>
    </contour>
  </outline>
</glyph>
<glyph name="Omega.math" format="1">
  <advance width="744"/>
  <outline>
    <contour>
      <point x="42" y="0" type="line"/>
      <point x="334" y="0" type="line"/>
      <point x="334" y="112" type="line"/>
      <point x="262" y="174"/>
      <point x="234" y="252"/>
      <point x="234" y="350" type="curve" smooth="yes"/>
      <point x="234" y="456"/>
      <point x="288" y="524"/>
      <point x="372" y="524" type="curve" smooth="yes"/>
      <point x="456" y="524"/>
      <point x="510" y="456"/>
      <point x="510" y="350" type="curve" smooth="yes"/>
      <point x="510" y="252"/>
      <point x="482" y="174"/>
      <point x="410" y="112" type="curve"/>
      <point x="410" y="0" type="line"/>
      <point x="702" y="0" type="line"/>
      <point x="702" y="138" type="line"/>
      <point x="596" y="138" type="line"/>
      <point x="596" y="142" type="line"/>
      <point x="634" y="182"/>
      <point x="686" y="264"/>
      <point x="686" y="362" type="curve" smooth="yes"/>
      <point x="686" y="558"/>
      <point x="558" y="672"/>
      <point x="372" y="672" type="curve" smooth="yes"/>
      <point x="186" y="672"/>
      <point x="58" y="558"/>
      <point x="58" y="362" type="curve" smooth="yes"/>
      <point x="58" y="264"/>
      <point x="110" y="182"/>
      <point x="148" y="142" type="curve"/>
      <point x="148" y="138" type="line"/>
      <point x="42" y="138" type="line"/>
    </contour>
  </outline>
</glyph>
<glyph name="Omega.sc" format="1">
  <advance width="646"/>
  <outline>
    <contour>
      <point x="44" y="0" type="line"/>
      <point x="296" y="0" type="line"/>
      <point x="296" y="121" type="line"/>
      <point x="243.828976398" y="175.177601432"/>
      <point x="232.0" y="222.639240506"/>
      <point x="232" y="280" type="curve" smooth="yes"/>
      <point x="232.0" y="354.4"/>
      <point x="267.0" y="404.0"/>
      <point x="323" y="404" type="curve" smooth="yes"/>
      <point x="380.0" y="404.0"/>
      <point x="415.0" y="354.4"/>
      <point x="415" y="280" type="curve" smooth="yes"/>
      <point x="415.0" y="222.639240506"/>
      <point x="403.171120663" y="175.174349355"/>
      <point x="350" y="121" type="curve"/>
      <point x="350" y="0" type="line"/>
      <point x="603" y="0" type="line"/>
      <point x="603" y="135" type="line"/>
      <point x="522" y="135" type="line"/>
      <point x="522" y="138" type="line"/>
      <point x="550" y="166"/>
      <point x="588" y="228"/>
      <point x="588" y="298" type="curve" smooth="yes"/>
      <point x="588" y="444"/>
      <point x="481" y="544"/>
      <point x="323" y="544" type="curve" smooth="yes"/>
      <point x="166.0" y="544.0"/>
      <point x="58" y="444"/>
      <point x="58" y="298" type="curve" smooth="yes"/>
      <point x="58" y="228"/>
      <point x="97.0" y="166.0"/>
      <point x="125" y="138" type="curve"/>
      <point x="125" y="135" type="line"/>
      <point x="44" y="135" type="line"/>
    </contour>
  </outline>
</glyph>
<glyph name="P" format="1">
  <advance width="618"/>
  <outline>
    <contour>
      <point x="72" y="0" type="line"/>
      <point x="244" y="0" type="line"/>
      <point x="244" y="206" type="line"/>
      <point x="324" y="206" type="line" smooth="yes"/>
      <point x="460" y="206"/>
      <point x="584" y="275"/>
      <point x="584" y="434" type="curve" smooth="yes"/>
      <point x="584" y="598"/>
      <point x="464" y="650"/>
      <point x="324" y="650" type="curve" smooth="yes"/>
      <point x="72" y="650" type="line"/>
    </contour>
    <contour>
      <point x="244" y="342" type="line"/>
      <point x="244" y="514" type="line"/>
      <point x="316" y="514" type="line" smooth="yes"/>
      <point x="380" y="514"/>
      <point x="416" y="492"/>
      <point x="416" y="434" type="curve" smooth="yes"/>
      <point x="416" y="376"/>
      <point x="384" y="342"/>
      <point x="316" y="342" type="curve" smooth="yes"/>
    </contour>
    <contour>
      <point x="321" y="672" type="move" name="aboveUC"/>
    </contour>
    <contour>
      <point x="170" y="-22" type="move" name="belowLC"/>
    </contour>
  </outline>
</glyph>
<glyph name="Phi.sc" format="1">
  <advance width="727"/>
  <outline>
    <contour>
      <point x="213" y="268" type="curve" smooth="yes"/>
      <point x="213" y="329"/>
      <point x="259" y="359"/>
      <point x="325" y="359" type="curve" smooth="yes"/>
      <point x="403" y="359" type="line" smooth="yes"/>
      <point x="469" y="359"/>
      <point x="515" y="329"/>
      <point x="515" y="268" type="curve" smooth="yes"/>
      <point x="515" y="207"/>
      <point x="469" y="174"/>
      <point x="403" y="174" type="curve" smooth="yes"/>
      <point x="325" y="174" type="line"/>
      <point x="259" y="174"/>
      <point x="213" y="207"/>
    </contour>
    <contour>
      <point x="48" y="268" type="curve" smooth="yes"/>
      <point x="48" y="122"/>
      <point x="169" y="44"/>
      <point x="335" y="44" type="curve" smooth="yes"/>
      <point x="392" y="44" type="line"/>
      <point x="559" y="44"/>
      <point x="680" y="122"/>
      <point x="680" y="268" type="curve" smooth="yes"/>
      <point x="680" y="415"/>
      <point x="559" y="489"/>
      <point x="392" y="489" type="curve" smooth="yes"/>
      <point x="335" y="489" type="line" smooth="yes"/>
      <point x="169" y="489"/>
      <point x="48" y="415"/>
    </contour>
    <contour>
      <point x="285" y="-18" type="line"/>
      <point x="442" y="-18" type="line"/>
      <point x="442" y="549" type="line"/>
      <point x="285" y="549" type="line"/>
    </contour>
  </outline>
</glyph>
<glyph name="Pi.sc" format="1">
  <advance width="626"/>
  <outline>
    <contour>
      <point x="72" y="0" type="line"/>
      <point x="244" y="0" type="line"/>
      <point x="244" y="390" type="line"/>
      <point x="382" y="390" type="line"/>
      <point x="382" y="0" type="line"/>
      <point x="554" y="0" type="line"/>
      <point x="554" y="532" type="line"/>
      <point x="72" y="532" type="line"/>
    </contour>
  </outline>
</glyph>
<glyph name="Psi.sc" format="1">
  <advance width="702"/>
  <outline>
    <contour>
      <point x="323" y="159" type="curve" smooth="yes"/>
      <point x="380" y="159" type="line" smooth="yes"/>
      <point x="549" y="159"/>
      <point x="655" y="226"/>
      <point x="655" y="400" type="curve" smooth="yes"/>
      <point x="655" y="531" type="line"/>
      <point x="489" y="531" type="line"/>
      <point x="489" y="410" type="line" smooth="yes"/>
      <point x="489" y="307"/>
      <point x="453" y="290"/>
      <point x="390" y="290" type="curve" smooth="yes"/>
      <point x="313" y="290" type="line" smooth="yes"/>
      <point x="249" y="290"/>
      <point x="213" y="307"/>
      <point x="213" y="410" type="curve" smooth="yes"/>
      <point x="213" y="531" type="line"/>
      <point x="48" y="531" type="line"/>
      <point x="48" y="400" type="line" smooth="yes"/>
      <point x="48" y="226"/>
      <point x="154" y="159"/>
    </contour>
    <contour>
      <point x="273" y="0" type="line"/>
      <point x="430" y="0" type="line"/>
      <point x="430" y="531" type="line"/>
      <point x="273" y="531" type="line"/>
    </contour>
  </outline>
</glyph>
<glyph name="Q" format="1">
  <advance width="692"/>
  <outline>
    <contour>
      <point x="264" y="6" type="line"/>
      <point x="312" y="-106"/>
      <point x="416" y="-184"/>
      <point x="566" y="-184" type="curve" smooth="yes"/>
      <point x="621" y="-184"/>
      <point x="664" y="-174"/>
      <point x="690" y="-160" type="curve"/>
      <point x="660" y="-36" type="line"/>
      <point x="640" y="-43"/>
      <point x="614" y="-48"/>
      <point x="586" y="-48" type="curve" smooth="yes"/>
      <point x="530" y="-48"/>
      <point x="462" y="-34"/>
      <point x="438" y="24" type="curve"/>
    </contour>
    <contour>
      <point x="346" y="-12" type="curve" smooth="yes"/>
      <point x="526" y="-12"/>
      <point x="648" y="114"/>
      <point x="648" y="328" type="curve" smooth="yes"/>
      <point x="648" y="541"/>
      <point x="526" y="662"/>
      <point x="346" y="662" type="curve" smooth="yes"/>
      <point x="166" y="662"/>
      <point x="44" y="542"/>
      <point x="44" y="328" type="curve" smooth="yes"/>
      <point x="44" y="114"/>
      <point x="166" y="-12"/>
    </contour>
    <contour>
      <point x="346" y="128" type="curve" smooth="yes"/>
      <point x="268" y="128"/>
      <point x="220" y="200"/>
      <point x="220" y="328" type="curve" smooth="yes"/>
      <point x="220" y="446"/>
      <point x="268" y="514"/>
      <point x="346" y="514" type="curve" smooth="yes"/>
      <point x="424" y="514"/>
      <point x="472" y="446"/>
      <point x="472" y="328" type="curve" smooth="yes"/>
      <point x="472" y="200"/>
      <point x="424" y="128"/>
    </contour>
    <contour>
      <point x="346" y="672" type="move" name="aboveUC"/>
    </contour>
  </outline>
</glyph>
<glyph name="Q.sc" format="1">
  <advance width="624"/>
  <outline>
    <contour>
      <point x="225" y="6" type="line"/>
      <point x="269" y="-103"/>
      <point x="350" y="-177"/>
      <point x="496" y="-177" type="curve" smooth="yes"/>
      <point x="547" y="-177"/>
      <point x="586" y="-168"/>
      <point x="610" y="-155" type="curve"/>
      <point x="581" y="-35" type="line"/>
      <point x="562" y="-41"/>
      <point x="540" y="-45"/>
      <point x="516" y="-45" type="curve" smooth="yes"/>
      <point x="462" y="-45"/>
      <point x="413" y="-38"/>
      <point x="393" y="24" type="curve"/>
    </contour>
    <contour>
      <point x="312" y="-12" type="curve" smooth="yes"/>
      <point x="471" y="-12"/>
      <point x="580" y="91"/>
      <point x="580" y="269" type="curve" smooth="yes"/>
      <point x="580" y="446"/>
      <point x="471" y="544"/>
      <point x="312" y="544" type="curve" smooth="yes"/>
      <point x="151" y="544"/>
      <point x="42" y="447"/>
      <point x="42" y="269" type="curve" smooth="yes"/>
      <point x="42" y="91"/>
      <point x="151" y="-12"/>
    </contour>
    <contour>
      <point x="312" y="118" type="curve" smooth="yes"/>
      <point x="252" y="118"/>
      <point x="218" y="172"/>
      <point x="218" y="269" type="curve" smooth="yes"/>
      <point x="218" y="356"/>
      <point x="252" y="404"/>
      <point x="312" y="404" type="curve" smooth="yes"/>
      <point x="370" y="404"/>
      <point x="404" y="356"/>
      <point x="404" y="269" type="curve" smooth="yes"/>
      <point x="404" y="172"/>
      <point x="370" y="118"/>
    </contour>
    <contour>
      <point x="312" y="564" type="move" name="aboveUC"/>
    </contour>
  </outline>
</glyph>
<glyph name="S.sups" format="1">
  <advance width="381"/>
  <outline>
    <contour>
      <point x="21" y="315" type="line"/>
      <point x="69" y="271"/>
      <point x="132" y="252"/>
      <point x="189" y="252" type="curve" smooth="yes"/>
      <point x="299" y="252"/>
      <point x="360" y="318"/>
      <point x="360" y="398" type="curve" smooth="yes"/>
      <point x="360" y="452"/>
      <point x="338" y="482"/>
      <point x="276" y="508" type="curve" smooth="yes"/>
      <point x="222" y="531" type="line" smooth="yes"/>
      <point x="184" y="547"/>
      <point x="158" y="554"/>
      <point x="158" y="574" type="curve" smooth="yes"/>
      <point x="158" y="590"/>
      <point x="170" y="601"/>
      <point x="198" y="601" type="curve" smooth="yes"/>
      <point x="232" y="601"/>
      <point x="259" y="588"/>
      <point x="289" y="568" type="curve"/>
      <point x="349" y="642" type="line"/>
      <point x="308" y="681"/>
      <point x="252" y="701"/>
      <point x="203" y="701" type="curve" smooth="yes"/>
      <point x="104" y="701"/>
      <point x="37" y="639"/>
      <point x="37" y="565" type="curve" smooth="yes"/>
      <point x="37" y="504"/>
      <point x="72" y="470"/>
      <point x="126" y="447" type="curve" smooth="yes"/>
      <point x="180" y="424" type="line" smooth="yes"/>
      <point x="216" y="409"/>
      <point x="238" y="402"/>
      <point x="238" y="384" type="curve" smooth="yes"/>
      <point x="238" y="369"/>
      <point x="231" y="355"/>
      <point x="197" y="355" type="curve" smooth="yes"/>
      <point x="163" y="355"/>
      <point x="120" y="371"/>
      <point x="89" y="396" type="curve"/>
    </contour>
  </outline>
</glyph>
<glyph name="Schwa" format="1">
  <advance width="684"/>
  <outline>
    <contour>
      <point x="224" y="256" type="curve"/>
      <point x="514" y="256" type="line"/>
      <point x="514" y="380" type="line"/>
      <point x="52" y="380" type="line"/>
      <point x="50" y="360"/>
      <point x="48" y="340"/>
      <point x="48" y="322" type="curve" smooth="yes"/>
      <point x="48" y="108"/>
      <point x="168" y="-12"/>
      <point x="342" y="-12" type="curve" smooth="yes"/>
      <point x="516" y="-12"/>
      <point x="640" y="112"/>
      <point x="640" y="326" type="curve" smooth="yes"/>
      <point x="640" y="540"/>
      <point x="516" y="662"/>
      <point x="346" y="662" type="curve" smooth="yes"/>
      <point x="240" y="662"/>
      <point x="164" y="628"/>
      <point x="110" y="580" type="curve"/>
      <point x="188" y="462" type="line"/>
      <point x="222" y="492"/>
      <point x="264" y="522"/>
      <point x="324" y="522" type="curve" smooth="yes"/>
      <point x="420" y="522"/>
      <point x="470" y="456"/>
      <point x="470" y="326" type="curve" smooth="yes"/>
      <point x="470" y="192"/>
      <point x="414" y="128"/>
      <point x="342" y="128" type="curve" smooth="yes"/>
      <point x="280" y="128"/>
      <point x="232" y="166"/>
    </contour>
    <contour>
      <point x="376" y="672" type="move" name="aboveUC"/>
    </contour>
    <contour>
      <point x="388" y="-22" type="move" name="belowLC"/>
    </contour>
  </outline>
</glyph>
<glyph name="Schwa.sc" format="1">
  <advance width="612"/>
  <outline>
    <contour>
      <point x="219" y="204" type="curve"/>
      <point x="444" y="204" type="line"/>
      <point x="444" y="316" type="line"/>
      <point x="52" y="316" type="line"/>
      <point x="50" y="296"/>
      <point x="48" y="282"/>
      <point x="48" y="264" type="curve" smooth="yes"/>
      <point x="48" y="85"/>
      <point x="155" y="-12"/>
      <point x="307" y="-12" type="curve" smooth="yes"/>
      <point x="459" y="-12"/>
      <point x="568" y="89"/>
      <point x="568" y="266" type="curve" smooth="yes"/>
      <point x="568" y="443"/>
      <point x="457" y="544"/>
      <point x="310" y="544" type="curve" smooth="yes"/>
      <point x="220" y="544"/>
      <point x="148" y="519"/>
      <point x="100" y="478" type="curve"/>
      <point x="176" y="364" type="line"/>
      <point x="204" y="388"/>
      <point x="242" y="410"/>
      <point x="288" y="410" type="curve" smooth="yes"/>
      <point x="362" y="410"/>
      <point x="400" y="366"/>
      <point x="400" y="266" type="curve" smooth="yes"/>
      <point x="400" y="160"/>
      <point x="360" y="120"/>
      <point x="307" y="120" type="curve" smooth="yes"/>
      <point x="260" y="120"/>
      <point x="224" y="146"/>
    </contour>
  </outline>
</glyph>
<glyph name="Sha.sc" format="1">
  <advance width="847"/>
  <outline>
    <contour>
      <point x="72" y="0" type="line"/>
      <point x="508" y="0" type="line"/>
      <point x="508" y="531" type="line"/>
      <point x="339" y="531" type="line"/>
      <point x="339" y="141" type="line"/>
      <point x="241" y="141" type="line"/>
      <point x="241" y="531" type="line"/>
      <point x="72" y="531" type="line"/>
    </contour>
    <contour>
      <point x="339" y="0" type="line"/>
      <point x="775" y="0" type="line"/>
      <point x="775" y="531" type="line"/>
      <point x="606" y="531" type="line"/>
      <point x="606" y="141" type="line"/>
      <point x="508" y="141" type="line"/>
      <point x="508" y="531" type="line"/>
      <point x="339" y="531" type="line"/>
    </contour>
  </outline>
</glyph>
<glyph name="Sigma.sc" format="1">
  <advance width="492"/>
  <outline>
    <contour>
      <point x="36" y="0" type="line"/>
      <point x="459" y="0" type="line"/>
      <point x="459" y="141" type="line"/>
      <point x="246" y="141" type="line"/>
      <point x="362" y="276" type="line"/>
      <point x="248" y="400" type="line"/>
      <point x="437" y="400" type="line"/>
      <point x="437" y="541" type="line"/>
      <point x="37" y="541" type="line"/>
      <point x="37" y="439" type="line"/>
      <point x="193" y="271" type="line"/>
      <point x="36" y="102" type="line"/>
    </contour>
  </outline>
</glyph>
<glyph name="Theta.sc" format="1">
  <advance width="626"/>
  <outline>
    <contour>
      <point x="242" y="196" type="line"/>
      <point x="386" y="196" type="line"/>
      <point x="386" y="344" type="line"/>
      <point x="242" y="344" type="line"/>
    </contour>
    <component base="O.sc"/>
  </outline>
</glyph>
<glyph name="Thorn.sc" format="1">
  <advance width="576"/>
  <outline>
    <contour>
      <point x="72" y="0" type="line"/>
      <point x="244" y="0" type="line"/>
      <point x="244" y="84" type="line"/>
      <point x="301" y="84" type="line" smooth="yes"/>
      <point x="416" y="84"/>
      <point x="530" y="138"/>
      <point x="530" y="275" type="curve" smooth="yes"/>
      <point x="530" y="416"/>
      <point x="420" y="455"/>
      <point x="301" y="455" type="curve" smooth="yes"/>
      <point x="244" y="455" type="line"/>
      <point x="244" y="532" type="line"/>
      <point x="72" y="532" type="line"/>
    </contour>
    <contour>
      <point x="244" y="207" type="line"/>
      <point x="244" y="332" type="line"/>
      <point x="295" y="332" type="line" smooth="yes"/>
      <point x="338" y="332"/>
      <point x="364" y="318"/>
      <point x="364" y="275" type="curve" smooth="yes"/>
      <point x="364" y="232"/>
      <point x="342" y="207"/>
      <point x="295" y="207" type="curve" smooth="yes"/>
    </contour>
  </outline>
</glyph>
<glyph name="Tse.sc" format="1">
  <advance width="624"/>
  <outline>
    <contour>
      <point x="72" y="0" type="line"/>
      <point x="544" y="0" type="line"/>
      <point x="544" y="531" type="line"/>
      <point x="374" y="531" type="line"/>
      <point x="374" y="141" type="line"/>
      <point x="241" y="141" type="line"/>
      <point x="241" y="531" type="line"/>
      <point x="72" y="531" type="line"/>
    </contour>
    <contour>
      <point x="434" y="0" type="line"/>
      <point x="455" y="0" type="line"/>
      <point x="455" y="-158" type="line"/>
      <point x="599" y="-158" type="line"/>
      <point x="616" y="22" type="line"/>
      <point x="616" y="141" type="line"/>
      <point x="434" y="141" type="line"/>
    </contour>
  </outline>
</glyph>
<glyph name="Tshe.sc" format="1">
  <advance width="655"/>
  <outline>
    <contour>
      <point x="148" y="0" type="line"/>
      <point x="318" y="0" type="line"/>
      <point x="318" y="200" type="line"/>
      <point x="331" y="208"/>
      <point x="347" y="211"/>
      <point x="360" y="211" type="curve" smooth="yes"/>
      <point x="411" y="211"/>
      <point x="432" y="185"/>
      <point x="432" y="145" type="curve" smooth="yes"/>
      <point x="432" y="0" type="line"/>
      <point x="597" y="0" type="line"/>
      <point x="597" y="145" type="line" smooth="yes"/>
      <point x="597" y="283"/>
      <point x="506" y="343"/>
      <point x="379" y="343" type="curve" smooth="yes"/>
      <point x="359" y="343"/>
      <point x="343" y="341"/>
      <point x="318" y="333" type="curve"/>
      <point x="318" y="532" type="line"/>
      <point x="148" y="532" type="line"/>
    </contour>
    <contour>
      <point x="24" y="392" type="line"/>
      <point x="459" y="392" type="line"/>
      <point x="459" y="532" type="line"/>
      <point x="24" y="532" type="line"/>
    </contour>
  </outline>
</glyph>
<glyph name="U.sups" format="1">
  <advance width="454"/>
  <outline>
    <contour>
      <point x="230" y="360" type="curve" smooth="yes"/>
      <point x="354" y="360"/>
      <point x="410" y="430"/>
      <point x="410" y="580" type="curve" smooth="yes"/>
      <point x="410" y="800" type="line"/>
      <point x="294" y="800" type="line"/>
      <point x="294" y="565" type="line" smooth="yes"/>
      <point x="294" y="489"/>
      <point x="274" y="462"/>
      <point x="230" y="462" type="curve" smooth="yes"/>
      <point x="183" y="462"/>
      <point x="165" y="489"/>
      <point x="165" y="565" type="curve" smooth="yes"/>
      <point x="165" y="800" type="line"/>
      <point x="45" y="800" type="line"/>
      <point x="45" y="580" type="line" smooth="yes"/>
      <point x="45" y="430"/>
      <point x="98" y="360"/>
    </contour>
  </outline>
</glyph>
<glyph name="Ucyr.sc" format="1">
  <advance width="505"/>
  <outline>
    <contour>
      <point x="152" y="-10" type="curve" smooth="yes"/>
      <point x="250" y="-10"/>
      <point x="307" y="46"/>
      <point x="351" y="139" type="curve"/>
      <point x="516" y="541" type="line"/>
      <point x="345" y="541" type="line"/>
      <point x="321" y="471" type="line"/>
      <point x="271" y="313" type="line"/>
      <point x="267" y="313" type="line"/>
      <point x="213" y="471" type="line"/>
      <point x="183" y="541" type="line"/>
      <point x="4" y="541" type="line"/>
      <point x="192" y="151" type="line"/>
      <point x="189" y="145" type="line"/>
      <point x="184" y="141"/>
      <point x="164" y="136"/>
      <point x="129" y="136" type="curve" smooth="yes"/>
      <point x="118" y="136"/>
      <point x="108" y="138"/>
      <point x="97" y="141" type="curve"/>
      <point x="68" y="3" type="line"/>
      <point x="86" y="-4"/>
      <point x="113" y="-10"/>
    </contour>
    <contour>
      <point x="264" y="554" type="move" name="aboveUC"/>
    </contour>
  </outline>
</glyph>
<glyph name="Uhorn" format="1">
  <advance width="692"/>
  <outline>
    <contour>
      <point x="604" y="589" type="line"/>
      <point x="678" y="603"/>
      <point x="734" y="644"/>
      <point x="734" y="722" type="curve" smooth="yes"/>
      <point x="734" y="758"/>
      <point x="718" y="790"/>
      <point x="702" y="808" type="curve"/>
      <point x="586" y="758" type="line"/>
      <point x="593" y="747"/>
      <point x="602" y="730"/>
      <point x="602" y="710" type="curve" smooth="yes"/>
      <point x="602" y="656"/>
      <point x="556" y="650"/>
      <point x="522" y="650" type="curve"/>
    </contour>
    <component base="U"/>
    <contour>
      <point x="336" y="672" type="move" name="aboveUC"/>
    </contour>
    <contour>
      <point x="336" y="-22" type="move" name="belowLC"/>
    </contour>
  </outline>
</glyph>
<glyph name="Uhorn.sc" format="1">
  <advance width="636"/>
  <outline>
    <contour>
      <point x="548" y="471" type="line"/>
      <point x="622" y="485"/>
      <point x="678" y="526"/>
      <point x="678" y="604" type="curve" smooth="yes"/>
      <point x="678" y="640"/>
      <point x="662" y="672"/>
      <point x="646" y="690" type="curve"/>
      <point x="530" y="640" type="line"/>
      <point x="537" y="629"/>
      <point x="546" y="612"/>
      <point x="546" y="592" type="curve" smooth="yes"/>
      <point x="546" y="538"/>
      <point x="500" y="532"/>
      <point x="466" y="532" type="curve"/>
    </contour>
    <component base="U.sc"/>
    <contour>
      <point x="308" y="564" type="move" name="aboveUC"/>
    </contour>
    <contour>
      <point x="308" y="-22" type="move" name="belowLC"/>
    </contour>
  </outline>
</glyph>
<glyph name="Ustraight.sc" format="1">
  <advance width="487"/>
  <outline>
    <component base="Y.sc"/>
    <contour>
      <point x="240.0" y="564.0" type="move" name="aboveUC"/>
    </contour>
    <contour>
      <point x="242.0" y="-22.0" type="move" name="belowLC"/>
    </contour>
  </outline>
</glyph>
<glyph name="Ustraightstroke.sc" format="1">
  <advance width="544"/>
  <outline>
    <contour>
      <point x="44" y="204" type="line"/>
      <point x="500" y="204" type="line"/>
      <point x="500" y="284" type="line"/>
      <point x="140" y="284" type="line"/>
      <point x="44" y="278" type="line"/>
    </contour>
    <component base="Y"/>
    <contour>
      <point x="272.0" y="672.0" type="move" name="aboveUC"/>
    </contour>
  </outline>
</glyph>
<glyph name="V.sups" format="1">
  <advance width="390"/>
  <outline>
    <contour>
      <point x="123" y="260" type="line"/>
      <point x="268" y="260" type="line"/>
      <point x="397" y="692" type="line"/>
      <point x="275" y="692" type="line"/>
      <point x="231" y="507" type="line" smooth="yes"/>
      <point x="220" y="462"/>
      <point x="211" y="418"/>
      <point x="199" y="370" type="curve"/>
      <point x="197" y="370" type="line"/>
      <point x="185" y="418"/>
      <point x="176" y="462"/>
      <point x="165" y="507" type="curve" smooth="yes"/>
      <point x="120" y="692" type="line"/>
      <point x="-7" y="692" type="line"/>
    </contour>
  </outline>
</glyph>
<glyph name="W.sups" format="1">
  <advance width="558"/>
  <outline>
    <contour>
      <point x="83" y="260" type="line"/>
      <point x="233" y="260" type="line"/>
      <point x="262" y="427" type="line" smooth="yes"/>
      <point x="268" y="459"/>
      <point x="273" y="495"/>
      <point x="278" y="526" type="curve"/>
      <point x="280" y="526" type="line"/>
      <point x="284" y="495"/>
      <point x="290" y="459"/>
      <point x="296" y="427" type="curve" smooth="yes"/>
      <point x="329" y="260" type="line"/>
      <point x="481" y="260" type="line"/>
      <point x="552" y="692" type="line"/>
      <point x="438" y="692" type="line"/>
      <point x="415" y="507" type="line"/>
      <point x="410" y="464"/>
      <point x="406" y="418"/>
      <point x="401" y="371" type="curve"/>
      <point x="399" y="371" type="line"/>
      <point x="391" y="418"/>
      <point x="383" y="465"/>
      <point x="375" y="507" type="curve"/>
      <point x="333" y="692" type="line"/>
      <point x="233" y="692" type="line"/>
      <point x="193" y="507" type="line"/>
      <point x="184" y="463"/>
      <point x="178" y="418"/>
      <point x="170" y="371" type="curve"/>
      <point x="167" y="371" type="line"/>
      <point x="161" y="418"/>
      <point x="156" y="462"/>
      <point x="151" y="507" type="curve"/>
      <point x="129" y="692" type="line"/>
      <point x="6" y="692" type="line"/>
    </contour>
  </outline>
</glyph>
<glyph name="Xi.sc" format="1">
  <advance width="529"/>
  <outline>
    <contour>
      <point x="54" y="0" type="line"/>
      <point x="476" y="0" type="line"/>
      <point x="476" y="132" type="line"/>
      <point x="54" y="132" type="line"/>
    </contour>
    <contour>
      <point x="109" y="206" type="line"/>
      <point x="421" y="206" type="line"/>
      <point x="421" y="330" type="line"/>
      <point x="109" y="330" type="line"/>
    </contour>
    <contour>
      <point x="63" y="400" type="line"/>
      <point x="467" y="400" type="line"/>
      <point x="467" y="532" type="line"/>
      <point x="63" y="532" type="line"/>
    </contour>
  </outline>
</glyph>
<glyph name="Y.sc" format="1">
  <advance width="487"/>
  <outline>
    <contour>
      <point x="158" y="0" type="line"/>
      <point x="330" y="0" type="line"/>
      <point x="330" y="175" type="line"/>
      <point x="497" y="532" type="line"/>
      <point x="319" y="532" type="line"/>
      <point x="287" y="436" type="line" smooth="yes"/>
      <point x="273" y="395"/>
      <point x="259" y="359"/>
      <point x="246" y="316" type="curve"/>
      <point x="242" y="316" type="line"/>
      <point x="229" y="359"/>
      <point x="216" y="395"/>
      <point x="204" y="436" type="curve" smooth="yes"/>
      <point x="171" y="532" type="line"/>
      <point x="-10" y="532" type="line"/>
      <point x="158" y="175" type="line"/>
    </contour>
    <contour>
      <point x="240" y="564" type="move" name="aboveUC"/>
    </contour>
    <contour>
      <point x="242" y="-22" type="move" name="belowLC"/>
    </contour>
  </outline>
</glyph>
<glyph name="Yi.sca" format="1">
  <advance width="316"/>
  <outline>
    <contour>
      <point x="78" y="586" type="curve" smooth="yes"/>
      <point x="118" y="586"/>
      <point x="146" y="620"/>
      <point x="146" y="664" type="curve" smooth="yes"/>
      <point x="146" y="708"/>
      <point x="118" y="742"/>
      <point x="78" y="742" type="curve" smooth="yes"/>
      <point x="38" y="742"/>
      <point x="10" y="708"/>
      <point x="10" y="664" type="curve" smooth="yes"/>
      <point x="10" y="620"/>
      <point x="38" y="586"/>
    </contour>
    <contour>
      <point x="238" y="586" type="curve" smooth="yes"/>
      <point x="278" y="586"/>
      <point x="306" y="620"/>
      <point x="306" y="664" type="curve" smooth="yes"/>
      <point x="306" y="708"/>
      <point x="278" y="742"/>
      <point x="238" y="742" type="curve" smooth="yes"/>
      <point x="198" y="742"/>
      <point x="170" y="708"/>
      <point x="170" y="664" type="curve" smooth="yes"/>
      <point x="170" y="620"/>
      <point x="198" y="586"/>
    </contour>
    <component base="I.sc"/>
  </outline>
</glyph>
<glyph name="Ya.sc" format="1">
  <advance width="568"/>
  <outline>
    <contour>
      <point x="327" y="0" type="line"/>
      <point x="497" y="0" type="line"/>
      <point x="497" y="532" type="line"/>
      <point x="282" y="532" type="line" smooth="yes"/>
      <point x="160" y="532"/>
      <point x="51" y="492"/>
      <point x="51" y="351" type="curve" smooth="yes"/>
      <point x="51" y="214"/>
      <point x="160" y="160"/>
      <point x="282" y="160" type="curve" smooth="yes"/>
      <point x="327" y="160" type="line"/>
    </contour>
    <contour>
      <point x="292" y="293" type="line"/>
      <point x="242" y="293"/>
      <point x="216" y="314"/>
      <point x="216" y="351" type="curve" smooth="yes"/>
      <point x="216" y="387"/>
      <point x="242" y="399"/>
      <point x="292" y="399" type="curve" smooth="yes"/>
      <point x="327" y="399" type="line"/>
      <point x="327" y="293" type="line"/>
    </contour>
    <contour>
      <point x="16" y="0" type="line"/>
      <point x="205" y="0" type="line"/>
      <point x="310" y="204" type="line"/>
      <point x="198" y="320" type="line"/>
    </contour>
  </outline>
</glyph>
<glyph name="Yat.sc" format="1">
  <advance width="583"/>
  <outline>
    <contour>
      <point x="114" y="0" type="line"/>
      <point x="324" y="0" type="line" smooth="yes"/>
      <point x="442" y="0"/>
      <point x="550" y="41"/>
      <point x="550" y="182" type="curve" smooth="yes"/>
      <point x="550" y="306"/>
      <point x="448" y="339"/>
      <point x="324" y="339" type="curve" smooth="yes"/>
      <point x="283" y="339" type="line"/>
      <point x="283" y="532" type="line"/>
      <point x="114" y="532" type="line"/>
    </contour>
    <contour>
      <point x="283" y="129" type="line"/>
      <point x="283" y="222" type="line"/>
      <point x="318" y="222" type="line"/>
      <point x="364" y="222"/>
      <point x="385" y="204"/>
      <point x="385" y="180" type="curve" smooth="yes"/>
      <point x="385" y="144"/>
      <point x="360" y="129"/>
      <point x="318" y="129" type="curve" smooth="yes"/>
    </contour>
    <contour>
      <point x="24" y="367" type="line"/>
      <point x="425" y="367" type="line"/>
      <point x="425" y="488" type="line"/>
      <point x="24" y="488" type="line"/>
    </contour>
  </outline>
</glyph>
<glyph name="Yeru.sc" format="1">
  <advance width="807"/>
  <outline>
    <contour>
      <point x="72" y="0" type="line"/>
      <point x="282" y="0" type="line" smooth="yes"/>
      <point x="400" y="0"/>
      <point x="508" y="45"/>
      <point x="508" y="186" type="curve" smooth="yes"/>
      <point x="508" y="309"/>
      <point x="396" y="359"/>
      <point x="282" y="359" type="curve" smooth="yes"/>
      <point x="241" y="359" type="line"/>
      <point x="241" y="531" type="line"/>
      <point x="72" y="531" type="line"/>
    </contour>
    <contour>
      <point x="241" y="133" type="line"/>
      <point x="241" y="226" type="line"/>
      <point x="276" y="226" type="line"/>
      <point x="322" y="226"/>
      <point x="343" y="209"/>
      <point x="343" y="184" type="curve" smooth="yes"/>
      <point x="343" y="148"/>
      <point x="318" y="133"/>
      <point x="276" y="133" type="curve" smooth="yes"/>
    </contour>
    <contour>
      <point x="566" y="0" type="line"/>
      <point x="735" y="0" type="line"/>
      <point x="735" y="531" type="line"/>
      <point x="566" y="531" type="line"/>
    </contour>
  </outline>
</glyph>
<glyph name="Yu.sc" format="1">
  <advance width="867"/>
  <outline>
    <contour>
      <point x="72" y="0" type="line"/>
      <point x="244" y="0" type="line"/>
      <point x="244" y="196" type="line"/>
      <point x="409" y="196" type="line"/>
      <point x="409" y="344" type="line"/>
      <point x="244" y="344" type="line"/>
      <point x="244" y="532" type="line"/>
      <point x="72" y="532" type="line"/>
    </contour>
    <contour>
      <point x="310" y="270" type="curve" smooth="yes"/>
      <point x="310" y="94"/>
      <point x="405" y="-10"/>
      <point x="565" y="-10" type="curve" smooth="yes"/>
      <point x="724" y="-10"/>
      <point x="823" y="94"/>
      <point x="823" y="270" type="curve" smooth="yes"/>
      <point x="823" y="446"/>
      <point x="724" y="544"/>
      <point x="565" y="544" type="curve" smooth="yes"/>
      <point x="405" y="544"/>
      <point x="310" y="447"/>
    </contour>
    <contour>
      <point x="479" y="270" type="curve" smooth="yes"/>
      <point x="479" y="353"/>
      <point x="506" y="399"/>
      <point x="565" y="399" type="curve" smooth="yes"/>
      <point x="623" y="399"/>
      <point x="650" y="353"/>
      <point x="650" y="270" type="curve" smooth="yes"/>
      <point x="650" y="188"/>
      <point x="623" y="135"/>
      <point x="565" y="135" type="curve" smooth="yes"/>
      <point x="506" y="135"/>
      <point x="479" y="188"/>
    </contour>
  </outline>
</glyph>
<glyph name="Z.sc" format="1">
  <advance width="483"/>
  <outline>
    <contour>
      <point x="32" y="0" type="line"/>
      <point x="453" y="0" type="line"/>
      <point x="453" y="140" type="line"/>
      <point x="239" y="140" type="line"/>
      <point x="450" y="430" type="line"/>
      <point x="450" y="532" type="line"/>
      <point x="54" y="532" type="line"/>
      <point x="54" y="392" type="line"/>
      <point x="244" y="392" type="line"/>
      <point x="32" y="102" type="line"/>
    </contour>
    <contour>
      <point x="258" y="564" type="move" name="aboveUC"/>
    </contour>
    <contour>
      <point x="252" y="-22" type="move" name="belowLC"/>
    </contour>
  </outline>
</glyph>
<glyph name="Z.sups" format="1">
  <advance width="366"/>
  <outline>
    <contour>
      <point x="21" y="260" type="line"/>
      <point x="346" y="260" type="line"/>
      <point x="346" y="359" type="line"/>
      <point x="169" y="359" type="line"/>
      <point x="345" y="620" type="line"/>
      <point x="345" y="692" type="line"/>
      <point x="38" y="692" type="line"/>
      <point x="38" y="593" type="line"/>
      <point x="197" y="593" type="line"/>
      <point x="21" y="332" type="line"/>
    </contour>
  </outline>
</glyph>
<glyph name="Ze.sc" format="1">
  <advance width="505"/>
  <outline>
    <contour>
      <point x="32" y="60" type="line"/>
      <point x="93" y="8"/>
      <point x="174" y="-10"/>
      <point x="242" y="-10" type="curve" smooth="yes"/>
      <point x="375" y="-10"/>
      <point x="475" y="46"/>
      <point x="475" y="161" type="curve" smooth="yes"/>
      <point x="475" y="219"/>
      <point x="430" y="263"/>
      <point x="370" y="278" type="curve"/>
      <point x="370" y="282" type="line"/>
      <point x="425" y="302"/>
      <point x="451" y="346"/>
      <point x="451" y="392" type="curve" smooth="yes"/>
      <point x="451" y="484"/>
      <point x="383" y="541"/>
      <point x="236" y="541" type="curve" smooth="yes"/>
      <point x="168" y="541"/>
      <point x="102" y="522"/>
      <point x="45" y="475" type="curve"/>
      <point x="129" y="363" type="line"/>
      <point x="168" y="386"/>
      <point x="192" y="396"/>
      <point x="230" y="396" type="curve" smooth="yes"/>
      <point x="263" y="396"/>
      <point x="285" y="389"/>
      <point x="285" y="361" type="curve" smooth="yes"/>
      <point x="285" y="343"/>
      <point x="273" y="327"/>
      <point x="230" y="327" type="curve" smooth="yes"/>
      <point x="164" y="327" type="line"/>
      <point x="164" y="210" type="line"/>
      <point x="247" y="210" type="line" smooth="yes"/>
      <point x="294" y="210"/>
      <point x="310" y="200"/>
      <point x="310" y="176" type="curve" smooth="yes"/>
      <point x="310" y="150"/>
      <point x="285" y="135"/>
      <point x="240" y="135" type="curve" smooth="yes"/>
      <point x="201" y="135"/>
      <point x="156" y="148"/>
      <point x="120" y="176" type="curve"/>
    </contour>
  </outline>
</glyph>
<glyph name="Zedescender.sc" format="1">
  <advance width="505"/>
  <outline>
    <contour>
      <point x="178" y="-172" type="line"/>
      <point x="326" y="-172" type="line"/>
      <point x="346" y="10" type="line"/>
      <point x="172" y="10" type="line"/>
    </contour>
    <component base="Ze.sc"/>
  </outline>
</glyph>
<glyph name="Zhe.b" format="1">
  <advance width="900"/>
  <outline>
    <contour>
      <point x="0" y="0" type="line"/>
      <point x="188" y="0" type="line"/>
      <point x="308" y="260" type="line"/>
      <point x="364" y="260" type="line"/>
      <point x="364" y="0" type="line"/>
      <point x="536" y="0" type="line"/>
      <point x="536" y="260" type="line"/>
      <point x="592" y="260" type="line"/>
      <point x="712" y="0" type="line"/>
      <point x="900" y="0" type="line"/>
      <point x="708" y="358" type="line"/>
      <point x="890" y="650" type="line"/>
      <point x="698" y="650" type="line"/>
      <point x="574" y="406" type="line"/>
      <point x="536" y="406" type="line"/>
      <point x="536" y="650" type="line"/>
      <point x="364" y="650" type="line"/>
      <point x="364" y="406" type="line"/>
      <point x="326" y="406" type="line"/>
      <point x="202" y="650" type="line"/>
      <point x="10" y="650" type="line"/>
      <point x="192" y="358" type="line"/>
    </contour>
    <contour>
      <point x="450" y="672" type="move" name="aboveUC"/>
    </contour>
  </outline>
</glyph>
<glyph name="Zhe.sc" format="1">
  <advance width="792"/>
  <outline>
    <contour>
      <point x="316" y="0" type="line"/>
      <point x="476" y="0" type="line"/>
      <point x="476" y="202" type="line"/>
      <point x="516" y="202" type="line"/>
      <point x="612" y="0" type="line"/>
      <point x="792" y="0" type="line"/>
      <point x="604" y="336" type="line"/>
      <point x="476" y="336" type="line"/>
      <point x="476" y="532" type="line"/>
      <point x="316" y="532" type="line"/>
      <point x="316" y="336" type="line"/>
      <point x="188" y="336" type="line"/>
      <point x="0" y="0" type="line"/>
      <point x="180" y="0" type="line"/>
      <point x="276" y="202" type="line"/>
      <point x="316" y="202" type="line"/>
    </contour>
    <contour>
      <point x="636" y="274" type="line"/>
      <point x="674" y="354" type="line" smooth="yes"/>
      <point x="684" y="374"/>
      <point x="700" y="388"/>
      <point x="728" y="388" type="curve" smooth="yes"/>
      <point x="738" y="388"/>
      <point x="748" y="386"/>
      <point x="756" y="384" type="curve"/>
      <point x="784" y="534" type="line"/>
      <point x="770" y="540"/>
      <point x="748" y="544"/>
      <point x="726" y="544" type="curve" smooth="yes"/>
      <point x="652" y="544"/>
      <point x="596" y="518"/>
      <point x="562" y="450" type="curve" smooth="yes"/>
      <point x="492" y="310" type="line"/>
    </contour>
    <contour>
      <point x="300" y="310" type="line"/>
      <point x="230" y="450" type="line" smooth="yes"/>
      <point x="196" y="518"/>
      <point x="140" y="544"/>
      <point x="66" y="544" type="curve" smooth="yes"/>
      <point x="44" y="544"/>
      <point x="22" y="540"/>
      <point x="8" y="534" type="curve"/>
      <point x="36" y="384" type="line"/>
      <point x="44" y="386"/>
      <point x="54" y="388"/>
      <point x="64" y="388" type="curve" smooth="yes"/>
      <point x="92" y="388"/>
      <point x="108" y="374"/>
      <point x="118" y="354" type="curve" smooth="yes"/>
      <point x="156" y="274" type="line"/>
    </contour>
  </outline>
</glyph>
<glyph name="Zhedescender.b" format="1">
  <advance width="962"/>
  <outline>
    <contour>
      <point x="790" y="-192" type="line"/>
      <point x="936" y="-192" type="line"/>
      <point x="954" y="24" type="line"/>
      <point x="954" y="144" type="line"/>
      <point x="756" y="144" type="line"/>
      <point x="756" y="0" type="line"/>
      <point x="790" y="0" type="line"/>
    </contour>
    <component base="Zhe.b" xOffset="10"/>
  </outline>
</glyph>
<glyph name="Zhedescender.sc" format="1">
  <advance width="928"/>
  <outline>
    <contour>
      <point x="752" y="-188" type="line"/>
      <point x="906" y="-188" type="line"/>
      <point x="920" y="36" type="line"/>
      <point x="920" y="144" type="line"/>
      <point x="722" y="144" type="line"/>
      <point x="722" y="0" type="line"/>
      <point x="752" y="0" type="line"/>
    </contour>
    <component base="Zhe"/>
  </outline>
</glyph>
<glyph name="a" format="1">
  <advance width="542"/>
  <outline>
    <contour>
      <point x="42" y="142" type="curve" smooth="yes"/>
      <point x="42" y="60"/>
      <point x="98" y="-12"/>
      <point x="192" y="-12" type="curve" smooth="yes"/>
      <point x="246" y="-12"/>
      <point x="290" y="12"/>
      <point x="330" y="48" type="curve"/>
      <point x="334" y="48" type="line"/>
      <point x="346" y="0" type="line"/>
      <point x="486" y="0" type="line"/>
      <point x="486" y="278" type="line" smooth="yes"/>
      <point x="486" y="442"/>
      <point x="408" y="512"/>
      <point x="278" y="512" type="curve" smooth="yes"/>
      <point x="200" y="512"/>
      <point x="128" y="488"/>
      <point x="58" y="446" type="curve"/>
      <point x="118" y="334" type="line"/>
      <point x="170" y="362"/>
      <point x="208" y="376"/>
      <point x="244" y="376" type="curve" smooth="yes"/>
      <point x="288" y="376"/>
      <point x="310" y="360"/>
      <point x="314" y="324" type="curve"/>
      <point x="122" y="304"/>
      <point x="42" y="246"/>
    </contour>
    <contour>
      <point x="206" y="156" type="curve" smooth="yes"/>
      <point x="206" y="184"/>
      <point x="232" y="210"/>
      <point x="314" y="222" type="curve"/>
      <point x="314" y="154" type="line"/>
      <point x="296" y="134"/>
      <point x="280" y="120"/>
      <point x="252" y="120" type="curve" smooth="yes"/>
      <point x="222" y="120"/>
      <point x="206" y="133"/>
    </contour>
    <contour>
      <point x="285" y="522" type="move" name="aboveLC"/>
    </contour>
    <contour>
      <point x="268" y="-22" type="move" name="belowLC"/>
    </contour>
    <contour>
      <point x="430" y="0" type="move" name="ogonekLC"/>
    </contour>
  </outline>
</glyph>
<glyph name="acute" format="1">
  <advance width="560"/>
  <outline>
    <component base="acutecmb" xOffset="280"/>
    <contour>
      <point x="280" y="522" type="move" name="_aboveLC"/>
    </contour>
  </outline>
</glyph>
<glyph name="acutecmb" format="1">
  <advance width="0"/>
  <outline>
    <contour>
      <point x="-78" y="574" type="line"/>
      <point x="70" y="574" type="line"/>
      <point x="196" y="748" type="line"/>
      <point x="0" y="748" type="line"/>
    </contour>
    <contour>
      <point x="0" y="522" type="move" name="_aboveLC"/>
    </contour>
  </outline>
</glyph>
<glyph name="aogonek" format="1">
  <advance width="542"/>
  <outline>
    <contour>
      <point x="206" y="156" type="curve" smooth="yes"/>
      <point x="206" y="184"/>
      <point x="232" y="210"/>
      <point x="314" y="222" type="curve"/>
      <point x="314" y="154" type="line"/>
      <point x="296" y="134"/>
      <point x="280" y="120"/>
      <point x="252" y="120" type="curve" smooth="yes"/>
      <point x="222" y="120"/>
      <point x="206" y="133"/>
    </contour>
    <contour>
      <point x="42" y="142" type="curve" smooth="yes"/>
      <point x="42" y="60"/>
      <point x="98" y="-12"/>
      <point x="192" y="-12" type="curve" smooth="yes"/>
      <point x="246" y="-12"/>
      <point x="290" y="12"/>
      <point x="330" y="48" type="curve"/>
      <point x="334" y="48" type="line"/>
      <point x="348" y="-4" type="line"/>
      <point x="328" y="-18"/>
      <point x="284" y="-58"/>
      <point x="284" y="-118" type="curve" smooth="yes"/>
      <point x="284" y="-180"/>
      <point x="334" y="-212"/>
      <point x="396" y="-212" type="curve" smooth="yes"/>
      <point x="430" y="-212"/>
      <point x="478" y="-198"/>
      <point x="506" y="-176" type="curve"/>
      <point x="472" y="-100" type="line"/>
      <point x="464" y="-106"/>
      <point x="450" y="-112"/>
      <point x="438" y="-112" type="curve" smooth="yes"/>
      <point x="418" y="-112"/>
      <point x="398" y="-102"/>
      <point x="398" y="-78" type="curve" smooth="yes"/>
      <point x="398" y="-50"/>
      <point x="418" y="-16"/>
      <point x="486" y="0" type="curve"/>
      <point x="486" y="278" type="line" smooth="yes"/>
      <point x="486" y="442"/>
      <point x="408" y="512"/>
      <point x="278" y="512" type="curve" smooth="yes"/>
      <point x="200" y="512"/>
      <point x="128" y="488"/>
      <point x="58" y="446" type="curve"/>
      <point x="118" y="334" type="line"/>
      <point x="170" y="362"/>
      <point x="208" y="376"/>
      <point x="244" y="376" type="curve" smooth="yes"/>
      <point x="288" y="376"/>
      <point x="310" y="360"/>
      <point x="314" y="324" type="curve"/>
      <point x="122" y="304"/>
      <point x="42" y="246"/>
    </contour>
    <contour>
      <point x="285" y="522" type="move" name="aboveLC"/>
    </contour>
  </outline>
</glyph>
<glyph name="asciicircum" format="1">
  <advance width="540"/>
  <outline>
    <contour>
      <point x="46" y="270" type="line"/>
      <point x="186" y="270" type="line"/>
      <point x="224" y="380" type="line"/>
      <point x="268" y="516" type="line"/>
      <point x="272" y="516" type="line"/>
      <point x="316" y="380" type="line"/>
      <point x="354" y="270" type="line"/>
      <point x="494" y="270" type="line"/>
      <point x="338" y="670" type="line"/>
      <point x="202" y="670" type="line"/>
    </contour>
  </outline>
</glyph>
<glyph name="asperacutecmb" format="1">
  <advance width="0"/>
  <outline>
    <contour>
      <point x="-68" y="558" type="curve"/>
      <point x="-56" y="624" type="line"/>
      <point x="-72" y="627"/>
      <point x="-86" y="632"/>
      <point x="-86" y="648" type="curve" smooth="yes"/>
      <point x="-86" y="664"/>
      <point x="-68" y="674"/>
      <point x="-18" y="678" type="curve"/>
      <point x="-38" y="762" type="line"/>
      <point x="-150" y="758"/>
      <point x="-198" y="720"/>
      <point x="-198" y="666" type="curve" smooth="yes"/>
      <point x="-198" y="594"/>
      <point x="-129" y="566"/>
    </contour>
    <contour>
      <point x="-2" y="564" type="line"/>
      <point x="96" y="564" type="line"/>
      <point x="174" y="754" type="line"/>
      <point x="28" y="754" type="line"/>
    </contour>
    <contour>
      <point x="0" y="522" type="move" name="_aboveLC"/>
    </contour>
  </outline>
</glyph>
<glyph name="aspercmb" format="1">
  <advance width="0"/>
  <outline>
    <contour>
      <point x="48" y="566" type="curve"/>
      <point x="60" y="632" type="line"/>
      <point x="38" y="635"/>
      <point x="20" y="642"/>
      <point x="20" y="662" type="curve" smooth="yes"/>
      <point x="20" y="684"/>
      <point x="40" y="698"/>
      <point x="98" y="702" type="curve"/>
      <point x="88" y="796" type="line"/>
      <point x="-58.0102135305" y="791.999720177"/>
      <point x="-104.0" y="742.625"/>
      <point x="-104" y="674" type="curve" smooth="yes"/>
      <point x="-104" y="602"/>
      <point x="-34" y="570"/>
    </contour>
    <contour>
      <point x="0" y="522" type="move" name="_aboveLC"/>
    </contour>
  </outline>
</glyph>
<glyph name="aspertilde.cap" format="1">
  <advance width="236"/>
  <outline>
    <contour>
      <point x="-24" y="564" type="curve"/>
      <point x="48" y="564" type="line"/>
      <point x="52" y="584"/>
      <point x="62" y="590"/>
      <point x="76" y="590" type="curve" smooth="yes"/>
      <point x="102" y="590"/>
      <point x="124" y="564"/>
      <point x="170" y="564" type="curve" smooth="yes"/>
      <point x="209" y="564"/>
      <point x="250" y="582"/>
      <point x="260" y="662" type="curve"/>
      <point x="188" y="662" type="line"/>
      <point x="184" y="642"/>
      <point x="174" y="636"/>
      <point x="160" y="636" type="curve" smooth="yes"/>
      <point x="134" y="636"/>
      <point x="112" y="662"/>
      <point x="66" y="662" type="curve" smooth="yes"/>
      <point x="27" y="662"/>
      <point x="-14" y="644"/>
    </contour>
    <contour>
      <point x="156" y="389" type="curve"/>
      <point x="166" y="441" type="line"/>
      <point x="150" y="443"/>
      <point x="140" y="446"/>
      <point x="140" y="455" type="curve" smooth="yes"/>
      <point x="140" y="465"/>
      <point x="153" y="471"/>
      <point x="204" y="475" type="curve"/>
      <point x="188" y="541" type="line"/>
      <point x="66" y="537"/>
      <point x="30" y="513"/>
      <point x="30" y="473" type="curve" smooth="yes"/>
      <point x="30" y="420"/>
      <point x="86" y="396"/>
    </contour>
  </outline>
</glyph>
<glyph name="aspertildecmb" format="1">
  <advance width="0"/>
  <outline>
    <contour>
      <point x="38" y="563" type="curve"/>
      <point x="48" y="615" type="line"/>
      <point x="32" y="617"/>
      <point x="22" y="620"/>
      <point x="22" y="629" type="curve" smooth="yes"/>
      <point x="22" y="639"/>
      <point x="35" y="645"/>
      <point x="86" y="649" type="curve"/>
      <point x="70" y="715" type="line"/>
      <point x="-52" y="711"/>
      <point x="-88" y="687"/>
      <point x="-88" y="647" type="curve" smooth="yes"/>
      <point x="-88" y="594"/>
      <point x="-32" y="570"/>
    </contour>
    <contour>
      <point x="-162" y="744" type="curve"/>
      <point x="-76" y="736" type="line"/>
      <point x="-70" y="762"/>
      <point x="-60" y="772"/>
      <point x="-46" y="772" type="curve" smooth="yes"/>
      <point x="-20" y="772"/>
      <point x="2" y="730"/>
      <point x="56" y="730" type="curve" smooth="yes"/>
      <point x="113" y="730"/>
      <point x="153" y="764"/>
      <point x="162" y="850" type="curve"/>
      <point x="76" y="858" type="line"/>
      <point x="70" y="832"/>
      <point x="60" y="822"/>
      <point x="46" y="822" type="curve" smooth="yes"/>
      <point x="20" y="822"/>
      <point x="-2" y="864"/>
      <point x="-56" y="864" type="curve" smooth="yes"/>
      <point x="-113" y="864"/>
      <point x="-153" y="830"/>
    </contour>
    <contour>
      <point x="0" y="522" type="move" name="_aboveLC"/>
    </contour>
  </outline>
</glyph>
<glyph name="backslash" format="1">
  <advance width="334"/>
  <outline>
    <contour>
      <point x="210" y="-160" type="line"/>
      <point x="320" y="-160" type="line"/>
      <point x="144" y="710" type="line"/>
      <point x="34" y="710" type="line"/>
    </contour>
  </outline>
</glyph>
<glyph name="bardbl" format="1">
  <advance width="476"/>
  <outline>
    <contour>
      <point x="84" y="-250" type="line"/>
      <point x="194" y="-250" type="line"/>
      <point x="194" y="750" type="line"/>
      <point x="84" y="750" type="line"/>
    </contour>
    <contour>
      <point x="282" y="-250" type="line"/>
      <point x="392" y="-250" type="line"/>
      <point x="392" y="750" type="line"/>
      <point x="282" y="750" type="line"/>
    </contour>
  </outline>
</glyph>
<glyph name="brackhalftopright" format="1">
  <advance width="360"/>
  <outline>
    <contour>
      <point x="276" y="708" type="line"/>
      <point x="52" y="708" type="line"/>
      <point x="52" y="618" type="line"/>
      <point x="148" y="618" type="line"/>
      <point x="148" y="278" type="line"/>
      <point x="276" y="278" type="line"/>
    </contour>
  </outline>
</glyph>
<glyph name="brevebelowcmb" format="1">
  <advance width="0"/>
  <outline>
    <contour>
      <point x="0" y="-212" type="curve" smooth="yes"/>
      <point x="96" y="-212"/>
      <point x="142" y="-146"/>
      <point x="144" y="-68" type="curve"/>
      <point x="50" y="-68" type="line"/>
      <point x="46" y="-98"/>
      <point x="31" y="-120"/>
      <point x="0" y="-120" type="curve" smooth="yes"/>
      <point x="-31" y="-120"/>
      <point x="-46" y="-98"/>
      <point x="-50" y="-68" type="curve"/>
      <point x="-144" y="-68" type="line"/>
      <point x="-142" y="-146"/>
      <point x="-96" y="-212"/>
    </contour>
    <contour>
      <point x="0" y="-22" type="move" name="_belowLC"/>
    </contour>
  </outline>
</glyph>
<glyph name="brevecmb.cap" format="1">
  <advance width="0"/>
  <outline>
    <contour>
      <point x="0" y="700" type="curve" smooth="yes"/>
      <point x="90" y="700"/>
      <point x="134" y="746"/>
      <point x="142" y="824" type="curve"/>
      <point x="50" y="824" type="line"/>
      <point x="44" y="800"/>
      <point x="30" y="784"/>
      <point x="0" y="784" type="curve" smooth="yes"/>
      <point x="-30" y="784"/>
      <point x="-44" y="800"/>
      <point x="-50" y="824" type="curve"/>
      <point x="-142" y="824" type="line"/>
      <point x="-134" y="746"/>
      <point x="-90" y="700"/>
    </contour>
    <contour>
      <point x="0" y="672" type="move" name="_aboveUC"/>
    </contour>
  </outline>
</glyph>
<glyph name="brevecmb" format="1">
  <advance width="0"/>
  <outline>
    <contour>
      <point x="0" y="572" type="curve" smooth="yes"/>
      <point x="111" y="572"/>
      <point x="162" y="650"/>
      <point x="164" y="738" type="curve"/>
      <point x="60" y="738" type="line"/>
      <point x="55" y="702"/>
      <point x="37" y="674"/>
      <point x="0" y="674" type="curve" smooth="yes"/>
      <point x="-37" y="674"/>
      <point x="-56" y="702"/>
      <point x="-61" y="738" type="curve"/>
      <point x="-165" y="738" type="line"/>
      <point x="-163" y="650"/>
      <point x="-111" y="572"/>
    </contour>
    <contour>
      <point x="0" y="522" type="move" name="_aboveLC"/>
    </contour>
  </outline>
</glyph>
<glyph name="brevegrave.cap" format="1">
  <advance width="0"/>
  <outline>
    <contour>
      <point x="62" y="860" type="line"/>
      <point x="-34" y="1004" type="line"/>
      <point x="-140" y="940" type="line"/>
      <point x="-22" y="806" type="line"/>
    </contour>
    <contour>
      <point x="0" y="694" type="curve" smooth="yes"/>
      <point x="102" y="694"/>
      <point x="160" y="738"/>
      <point x="170" y="834" type="curve"/>
      <point x="88" y="850" type="line"/>
      <point x="77" y="804"/>
      <point x="45" y="782"/>
      <point x="0" y="782" type="curve" smooth="yes"/>
      <point x="-45" y="782"/>
      <point x="-77" y="804"/>
      <point x="-88" y="850" type="curve"/>
      <point x="-170" y="834" type="line"/>
      <point x="-160" y="738"/>
      <point x="-102" y="694"/>
    </contour>
    <contour>
      <point x="0" y="672" type="move" name="_aboveUC"/>
    </contour>
  </outline>
</glyph>
<glyph name="brevegrave" format="1">
  <advance width="0"/>
  <outline>
    <contour>
      <point x="0" y="574" type="curve"/>
      <point x="96" y="574"/>
      <point x="142" y="640"/>
      <point x="144" y="718" type="curve"/>
      <point x="70" y="718" type="line"/>
      <point x="64" y="682"/>
      <point x="43" y="656"/>
      <point x="0" y="656" type="curve" smooth="yes"/>
      <point x="-43" y="656"/>
      <point x="-64" y="682"/>
      <point x="-70" y="718" type="curve"/>
      <point x="-144" y="718" type="line"/>
      <point x="-142" y="640"/>
      <point x="-96" y="574"/>
    </contour>
    <contour>
      <point x="-34" y="698" type="line"/>
      <point x="50" y="698" type="line"/>
      <point x="-4" y="818" type="line"/>
      <point x="-124" y="818" type="line"/>
    </contour>
    <contour>
      <point x="0" y="522" type="move" name="_aboveLC"/>
    </contour>
  </outline>
</glyph>
<glyph name="brevehoi.cap" format="1">
  <advance width="0"/>
  <outline>
    <contour>
      <point x="0" y="700" type="curve" smooth="yes"/>
      <point x="90" y="700"/>
      <point x="134" y="746"/>
      <point x="142" y="824" type="curve"/>
      <point x="66" y="824" type="line"/>
      <point x="58" y="794"/>
      <point x="42" y="774"/>
      <point x="0" y="774" type="curve" smooth="yes"/>
      <point x="-42" y="774"/>
      <point x="-58" y="794"/>
      <point x="-66" y="824" type="curve"/>
      <point x="-142" y="824" type="line"/>
      <point x="-134" y="746"/>
      <point x="-90" y="700"/>
    </contour>
    <contour>
      <point x="-36" y="808" type="line"/>
      <point x="35" y="812"/>
      <point x="88" y="836"/>
      <point x="88" y="898" type="curve" smooth="yes"/>
      <point x="88" y="942"/>
      <point x="54" y="978"/>
      <point x="-68" y="982" type="curve"/>
      <point x="-84" y="914" type="line"/>
      <point x="-33" y="910"/>
      <point x="-20" y="900"/>
      <point x="-20" y="884" type="curve" smooth="yes"/>
      <point x="-20" y="868"/>
      <point x="-32" y="863"/>
      <point x="-48" y="860" type="curve"/>
    </contour>
    <contour>
      <point x="0" y="672" type="move" name="_aboveUC"/>
    </contour>
  </outline>
</glyph>
<glyph name="brevehoi" format="1">
  <advance width="0"/>
  <outline>
    <contour>
      <point x="0" y="574" type="curve" smooth="yes"/>
      <point x="96" y="574"/>
      <point x="142" y="640"/>
      <point x="144" y="718" type="curve"/>
      <point x="70" y="718" type="line"/>
      <point x="64" y="682"/>
      <point x="43" y="656"/>
      <point x="0" y="656" type="curve" smooth="yes"/>
      <point x="-43" y="656"/>
      <point x="-64" y="682"/>
      <point x="-70" y="718" type="curve"/>
      <point x="-144" y="718" type="line"/>
      <point x="-142" y="640"/>
      <point x="-96" y="574"/>
    </contour>
    <contour>
      <point x="-38" y="703" type="line"/>
      <point x="32" y="711"/>
      <point x="88" y="731"/>
      <point x="88" y="801" type="curve" smooth="yes"/>
      <point x="88" y="847"/>
      <point x="52" y="879"/>
      <point x="-70" y="883" type="curve"/>
      <point x="-86" y="813" type="line"/>
      <point x="-35" y="809"/>
      <point x="-22" y="799"/>
      <point x="-22" y="783" type="curve" smooth="yes"/>
      <point x="-22" y="767"/>
      <point x="-32" y="762"/>
      <point x="-48" y="759" type="curve"/>
    </contour>
    <contour>
      <point x="0" y="522" type="move" name="_aboveLC"/>
    </contour>
  </outline>
</glyph>
<glyph name="brevetilde.cap" format="1">
  <advance width="0"/>
  <outline>
    <contour>
      <point x="0" y="700" type="curve" smooth="yes"/>
      <point x="90" y="700"/>
      <point x="134" y="746"/>
      <point x="142" y="824" type="curve"/>
      <point x="66" y="824" type="line"/>
      <point x="58" y="794"/>
      <point x="42" y="774"/>
      <point x="0" y="774" type="curve" smooth="yes"/>
      <point x="-42" y="774"/>
      <point x="-58" y="794"/>
      <point x="-66" y="824" type="curve"/>
      <point x="-142" y="824" type="line"/>
      <point x="-134" y="746"/>
      <point x="-90" y="700"/>
    </contour>
    <contour>
      <point x="-82" y="854" type="line"/>
      <point x="-76" y="880"/>
      <point x="-63" y="890"/>
      <point x="-47" y="890" type="curve" smooth="yes"/>
      <point x="-21" y="890"/>
      <point x="10" y="854"/>
      <point x="58" y="854" type="curve" smooth="yes"/>
      <point x="102" y="854"/>
      <point x="146" y="888"/>
      <point x="156" y="976" type="curve"/>
      <point x="82" y="976" type="line"/>
      <point x="76" y="950"/>
      <point x="63" y="940"/>
      <point x="47" y="940" type="curve" smooth="yes"/>
      <point x="21" y="940"/>
      <point x="-10" y="976"/>
      <point x="-58" y="976" type="curve" smooth="yes"/>
      <point x="-102" y="976"/>
      <point x="-146" y="942"/>
      <point x="-156" y="854" type="curve"/>
    </contour>
    <contour>
      <point x="0" y="672" type="move" name="_aboveUC"/>
    </contour>
  </outline>
</glyph>
<glyph name="brevetilde" format="1">
  <advance width="0"/>
  <outline>
    <contour>
      <point x="0" y="574" type="curve" smooth="yes"/>
      <point x="96" y="574"/>
      <point x="142" y="630"/>
      <point x="144" y="698" type="curve"/>
      <point x="66" y="698" type="line"/>
      <point x="60" y="674"/>
      <point x="43" y="652"/>
      <point x="0" y="652" type="curve" smooth="yes"/>
      <point x="-43" y="652"/>
      <point x="-60" y="674"/>
      <point x="-66" y="698" type="curve"/>
      <point x="-144" y="698" type="line"/>
      <point x="-142" y="630"/>
      <point x="-96" y="574"/>
    </contour>
    <contour>
      <point x="-152" y="724" type="curve"/>
      <point x="-80" y="724" type="line"/>
      <point x="-74" y="750"/>
      <point x="-62" y="760"/>
      <point x="-46" y="760" type="curve" smooth="yes"/>
      <point x="-20" y="760"/>
      <point x="2" y="724"/>
      <point x="56" y="724" type="curve" smooth="yes"/>
      <point x="100" y="724"/>
      <point x="142" y="758"/>
      <point x="152" y="846" type="curve"/>
      <point x="80" y="846" type="line"/>
      <point x="74" y="820"/>
      <point x="62" y="810"/>
      <point x="46" y="810" type="curve" smooth="yes"/>
      <point x="20" y="810"/>
      <point x="-2" y="846"/>
      <point x="-56" y="846" type="curve" smooth="yes"/>
      <point x="-100" y="846"/>
      <point x="-142" y="812"/>
    </contour>
    <contour>
      <point x="0" y="522" type="move" name="_aboveLC"/>
    </contour>
  </outline>
</glyph>
<glyph name="bridgeinvertedbelowcmb" format="1">
  <advance width="0"/>
  <outline>
    <contour>
      <point x="0" y="-22" type="move" name="_belowLC"/>
    </contour>
    <contour>
      <point x="-112" y="-210" type="line"/>
      <point x="112" y="-210" type="line"/>
      <point x="112" y="-130" type="line"/>
      <point x="-112" y="-130" type="line"/>
    </contour>
    <contour>
      <point x="130" y="-210" type="line"/>
      <point x="130" y="-68" type="line"/>
      <point x="48" y="-68" type="line"/>
      <point x="48" y="-210" type="line"/>
    </contour>
    <contour>
      <point x="-48" y="-210" type="line"/>
      <point x="-48" y="-68" type="line"/>
      <point x="-130" y="-68" type="line"/>
      <point x="-130" y="-210" type="line"/>
    </contour>
  </outline>
</glyph>
<glyph name="bstroke" format="1">
  <advance width="582"/>
  <outline>
    <contour>
      <point x="58" y="0" type="line"/>
      <point x="192" y="0" type="line"/>
      <point x="206" y="54" type="line"/>
      <point x="210" y="54" type="line"/>
      <point x="248" y="10"/>
      <point x="292" y="-12"/>
      <point x="336" y="-12" type="curve" smooth="yes"/>
      <point x="442" y="-12"/>
      <point x="544" y="82"/>
      <point x="544" y="235" type="curve" smooth="yes"/>
      <point x="544" y="368"/>
      <point x="467" y="460"/>
      <point x="349" y="460" type="curve" smooth="yes"/>
      <point x="305" y="460"/>
      <point x="261" y="442"/>
      <point x="226" y="410" type="curve"/>
      <point x="230" y="482" type="line"/>
      <point x="230" y="696" type="line"/>
      <point x="58" y="696" type="line"/>
    </contour>
    <contour>
      <point x="230" y="152" type="curve"/>
      <point x="230" y="284" type="line"/>
      <point x="252" y="310"/>
      <point x="272" y="320"/>
      <point x="298" y="320" type="curve" smooth="yes"/>
      <point x="344" y="320"/>
      <point x="368" y="290"/>
      <point x="368" y="232" type="curve" smooth="yes"/>
      <point x="368" y="160"/>
      <point x="334" y="128"/>
      <point x="294" y="128" type="curve" smooth="yes"/>
      <point x="272" y="128"/>
      <point x="250" y="134"/>
    </contour>
    <contour>
      <point x="-8" y="550" type="line"/>
      <point x="394" y="550" type="line"/>
      <point x="394" y="630" type="line"/>
      <point x="68" y="630" type="line"/>
      <point x="-8" y="624" type="line"/>
    </contour>
  </outline>
</glyph>
